M48
; DRILL file {KiCad 9.0.4} date 2025-09-08T17:38:22-0400
; FORMAT={-:-/ absolute / inch / decimal}
; #@! TF.CreationDate,2025-09-08T17:38:22-04:00
; #@! TF.GenerationSoftware,Kicad,Pcbnew,9.0.4
; #@! TF.FileFunction,MixedPlating,1,6
FMAT,2
INCH
; #@! TA.AperFunction,Plated,PTH,ViaDrill
T1C0.0079
; #@! TA.AperFunction,Plated,PTH,ComponentDrill
T2C0.0197
; #@! TA.AperFunction,Plated,PTH,ComponentDrill
T3C0.0236
; #@! TA.AperFunction,NonPlated,NPTH,ComponentDrill
T4C0.0256
; #@! TA.AperFunction,NonPlated,NPTH,ComponentDrill
T5C0.0354
; #@! TA.AperFunction,NonPlated,NPTH,ComponentDrill
T6C0.1260
%
G90
G05
T1
X4.1791Y-3.751
X4.2087Y-3.2283
X4.2087Y-3.2697
X4.2106Y-3.7894
X4.2244Y-3.4163
X4.2244Y-3.4557
X4.2244Y-3.6132
X4.2293Y-3.378
X4.2303Y-3.6722
X4.2372Y-3.7539
X4.2461Y-3.2283
X4.2461Y-3.2687
X4.2726Y-3.4488
X4.2844Y-3.2283
X4.2844Y-3.2697
X4.2919Y-3.7281
X4.3219Y-3.2289
X4.3223Y-3.2709
X4.3356Y-3.378
X4.3376Y-3.6722
X4.3415Y-3.436
X4.3425Y-3.5935
X4.3563Y-3.2527
X4.3563Y-3.2904
X4.3907Y-3.3967
X4.3957Y-3.3356
X4.4035Y-3.6132
X4.4094Y-3.1555
X4.4114Y-3.9951
X4.414Y-3.1816
X4.4154Y-3.2283
X4.4154Y-3.25
X4.4213Y-3.1299
X4.436Y-3.3888
X4.454Y-3.3182
X4.4562Y-3.1028
X4.4565Y-3.0551
X4.4812Y-3.2913
X4.4823Y-3.4557
X4.4823Y-3.6132
X4.4833Y-3.4173
X4.4872Y-3.377
X4.4892Y-3.6722
X4.4941Y-3.0531
X4.5Y-3.1063
X4.5236Y-3.3042
X4.5262Y-3.45
X4.528Y-3.4059
X4.5309Y-3.5774
X4.5322Y-3.4923
X4.5322Y-3.5317
X4.5323Y-3.4282
X4.5473Y-3.6953
X4.5623Y-3.1879
X4.5642Y-3.2111
X4.565Y-3.1398
X4.5679Y-3.1657
X4.5703Y-3.0866
X4.5709Y-3.0482
X4.5748Y-3.3228
X4.5935Y-3.6722
X4.5945Y-3.377
X4.5963Y-3.2757
X4.5994Y-3.437
X4.6004Y-3.4754
X4.6004Y-3.5148
X4.6052Y-3.9206
X4.6181Y-3.7894
X4.6219Y-3.27
X4.6293Y-3.3187
X4.6302Y-3.3444
X4.6377Y-3.9079
X4.6437Y-3.0472
X4.6496Y-3.75
X4.6524Y-3.8895
X4.6555Y-3.122
X4.6627Y-3.2653
X4.6689Y-3.3396
X4.6732Y-3.8782
X4.686Y-3.4606
X4.688Y-3.0856
X4.6892Y-3.8307
X4.7018Y-3.8504
X4.7106Y-3.2937
X4.7352Y-3.0846
X4.7392Y-3.4173
X4.7431Y-3.377
X4.7441Y-3.6722
X4.752Y-3.9862
X4.7618Y-3.2653
X4.7854Y-3.4163
X4.7943Y-3.8372
X4.8002Y-3.374
X4.804Y-3.622
X4.8287Y-3.1791
X4.8287Y-3.2057
X4.8287Y-3.2323
X4.8504Y-3.377
X4.8504Y-3.6722
X4.8563Y-3.438
X4.8681Y-3.1701
X4.8681Y-3.2079
X4.8864Y-3.3277
X4.8996Y-3.4491
X4.918Y-3.4056
X4.9284Y-3.4758
X4.934Y-3.124
X4.946Y-3.4921
X4.9783Y-3.2244
X4.9841Y-3.1805
X4.9941Y-3.4163
X4.9941Y-3.5344
X5.0Y-3.377
X5.0Y-3.6722
X5.0Y-3.8583
X5.0069Y-3.1358
X5.0346Y-3.8282
X5.0384Y-3.9862
X5.051Y-3.3252
X5.0551Y-3.1988
X5.0551Y-3.2224
X5.0551Y-3.25
X5.0593Y-3.6956
X5.0974Y-3.1252
X5.1063Y-3.6722
X5.1073Y-3.378
X5.1102Y-3.8199
X5.1122Y-3.436
X5.1122Y-3.4754
X5.124Y-3.8474
X5.1281Y-4.0698
X5.1595Y-3.5801
X5.1614Y-3.8465
X5.1624Y-3.2126
X5.1624Y-3.249
X5.1667Y-3.7535
X5.175Y-3.3281
X5.1969Y-3.4291
X5.1969Y-3.4665
X5.1994Y-3.8003
X5.1998Y-3.9819
X5.2034Y-3.249
X5.2036Y-3.273
X5.2094Y-3.952
X5.2126Y-3.6781
X5.2274Y-3.9272
X5.249Y-3.4675
X5.249Y-3.6772
X5.25Y-2.9596
X5.25Y-3.0187
X5.25Y-3.1644
X5.25Y-3.2077
X5.25Y-3.251
X5.25Y-3.2943
X5.2648Y-3.5256
X5.2706Y-3.9424
X5.28Y-3.7417
X5.2869Y-3.6767
X5.2869Y-3.5871
X5.2933Y-2.9596
X5.2933Y-3.0775
X5.2933Y-3.1211
X5.2933Y-3.1644
X5.2933Y-3.2077
X5.2933Y-3.251
X5.2933Y-3.2943
X5.2933Y-3.3376
X5.2933Y-3.3809
X5.2933Y-3.4242
X5.2933Y-3.4675
X5.2946Y-3.7922
X5.3023Y-3.7686
X5.3031Y-3.5256
X5.3248Y-3.94
X5.3366Y-3.4242
X5.3366Y-3.0775
X5.3366Y-3.1211
X5.3366Y-3.1644
X5.3366Y-3.2077
X5.3366Y-3.251
X5.3366Y-3.2943
X5.3366Y-3.3376
X5.3366Y-3.4665
X5.3583Y-3.6496
X5.3593Y-3.8002
X5.3602Y-3.9459
X5.3947Y-3.6496
X5.3963Y-3.9288
X5.3967Y-3.687
X5.4016Y-3.251
X5.4016Y-3.2943
X5.4035Y-3.9724
X5.4232Y-3.0775
X5.4232Y-3.3809
X5.4232Y-3.4242
X5.4232Y-3.4675
X5.4252Y-3.6752
X5.4311Y-3.6496
X5.4321Y-3.6112
X5.4389Y-3.5103
X5.439Y-3.7549
X5.439Y-3.8012
X5.439Y-3.8543
X5.4449Y-3.251
X5.4449Y-3.2943
X5.4621Y-3.7082
X5.4665Y-3.3809
X5.4665Y-3.4242
X5.4665Y-3.4675
X5.4675Y-3.6112
X5.4676Y-3.9618
X5.4685Y-3.6496
X5.4993Y-3.8612
X5.5007Y-3.8051
X5.5017Y-3.5098
X5.5069Y-3.56
X5.5089Y-3.6575
X5.5098Y-3.0775
X5.5098Y-3.1644
X5.5098Y-3.2077
X5.5098Y-3.251
X5.5098Y-3.2943
X5.5098Y-3.3376
X5.5098Y-3.4242
X5.5098Y-3.4675
X5.5157Y-3.9158
X5.5246Y-3.6322
X5.5413Y-3.7608
X5.5472Y-3.8984
X5.5512Y-3.7382
X5.5522Y-3.0775
X5.5522Y-3.1211
X5.5531Y-2.9596
X5.5531Y-3.1644
X5.5531Y-3.2077
X5.5531Y-3.251
X5.5531Y-3.2943
X5.5531Y-3.3376
X5.5531Y-3.3809
X5.5531Y-3.4242
X5.5531Y-3.4675
X5.5581Y-3.6486
X5.5659Y-3.6083
X5.5659Y-3.6831
X5.571Y-3.9066
X5.5797Y-3.5591
X5.5818Y-3.7356
X5.5965Y-2.9596
X5.5965Y-3.0187
X5.5965Y-3.1644
X5.5965Y-3.2077
X5.5965Y-3.2943
X5.5965Y-3.3376
X5.5965Y-3.3809
X5.5965Y-3.4242
X5.5965Y-3.4675
X5.5965Y-3.251
X5.6102Y-3.7854
X5.6112Y-3.8632
X5.6205Y-3.5591
X5.626Y-3.9104
X5.627Y-3.6398
X5.627Y-3.6604
X5.627Y-3.6831
X5.6339Y-3.6043
X5.6419Y-3.4065
X5.6457Y-3.7717
X5.6545Y-3.5584
X5.6585Y-3.4768
X5.6585Y-3.9567
X5.6791Y-3.3179
X5.685Y-3.7854
X5.686Y-3.8632
X5.687Y-3.4193
X5.6919Y-3.56
X5.6929Y-3.6614
X5.6939Y-3.7205
X5.6959Y-3.6026
X5.6959Y-4.0266
X5.6969Y-3.251
X5.6969Y-3.9587
X5.7126Y-3.6043
X5.7264Y-3.5591
X5.7293Y-3.753
X5.7323Y-3.4611
X5.7407Y-3.0807
X5.7421Y-3.0079
X5.7579Y-3.251
X5.7589Y-3.6417
X5.7589Y-3.6654
X5.7589Y-3.6841
X5.7661Y-3.5591
X5.7726Y-3.7894
X5.7726Y-3.8278
X5.7795Y-3.1555
X5.7805Y-3.0443
X5.7815Y-3.0807
X5.7874Y-3.4793
X5.7874Y-3.5039
X5.8136Y-3.0059
X5.8136Y-3.0807
X5.814Y-3.1181
X5.814Y-3.1565
X5.8278Y-3.2589
X5.8278Y-3.2904
X5.8278Y-3.4793
X5.8278Y-3.875
X5.8278Y-3.5109
X5.8376Y-4.0256
X5.8459Y-3.8268
X5.8543Y-2.9695
X5.8543Y-3.0433
X5.8691Y-3.3563
X5.8691Y-3.3957
X5.9183Y-3.7943
X6.0325Y-3.687
X6.0325Y-3.8268
X6.0831Y-3.6859
T2
X4.4236Y-2.9772
X4.5024Y-2.9772
T4
X5.8748Y-3.2705
X5.8748Y-3.498
T5
X5.7667Y-4.0143
X5.7667Y-4.0851
X6.022Y-3.7567
X6.0929Y-3.7567
T6
X4.2717Y-3.0512
X4.2717Y-3.9961
X6.0039Y-3.0512
X6.0039Y-3.9961
T3
G00X5.8335Y-3.2142
M15
G01X5.8768Y-3.2142
M16
G05
G00X5.8335Y-3.5543
M15
G01X5.8768Y-3.5543
M16
G05
G00X6.0039Y-3.2142
M15
G01X6.0354Y-3.2142
M16
G05
G00X6.0039Y-3.5543
M15
G01X6.0354Y-3.5543
M16
G05
M30
