%TF.GenerationSoftware,KiCad,Pcbnew,9.0.4*%
%TF.CreationDate,2025-09-08T17:38:28-04:00*%
%TF.ProjectId,CPU1-NRF5340-uBlox-NORA,43505531-2d4e-4524-9635-3334302d7542,A*%
%TF.SameCoordinates,Original*%
%TF.FileFunction,Paste,Top*%
%TF.FilePolarity,Positive*%
%FSLAX46Y46*%
G04 Gerber Fmt 4.6, Leading zero omitted, Abs format (unit mm)*
G04 Created by KiCad (PCBNEW 9.0.4) date 2025-09-08 17:38:28*
%MOMM*%
%LPD*%
G01*
G04 APERTURE LIST*
G04 Aperture macros list*
%AMRoundRect*
0 Rectangle with rounded corners*
0 $1 Rounding radius*
0 $2 $3 $4 $5 $6 $7 $8 $9 X,Y pos of 4 corners*
0 Add a 4 corners polygon primitive as box body*
4,1,4,$2,$3,$4,$5,$6,$7,$8,$9,$2,$3,0*
0 Add four circle primitives for the rounded corners*
1,1,$1+$1,$2,$3*
1,1,$1+$1,$4,$5*
1,1,$1+$1,$6,$7*
1,1,$1+$1,$8,$9*
0 Add four rect primitives between the rounded corners*
20,1,$1+$1,$2,$3,$4,$5,0*
20,1,$1+$1,$4,$5,$6,$7,0*
20,1,$1+$1,$6,$7,$8,$9,0*
20,1,$1+$1,$8,$9,$2,$3,0*%
G04 Aperture macros list end*
%ADD10C,0.010000*%
%ADD11RoundRect,0.250000X-0.250000X-1.500000X0.250000X-1.500000X0.250000X1.500000X-0.250000X1.500000X0*%
%ADD12RoundRect,0.250001X-0.499999X-1.449999X0.499999X-1.449999X0.499999X1.449999X-0.499999X1.449999X0*%
%ADD13RoundRect,0.135000X-0.135000X-0.185000X0.135000X-0.185000X0.135000X0.185000X-0.135000X0.185000X0*%
%ADD14RoundRect,0.140000X-0.170000X0.140000X-0.170000X-0.140000X0.170000X-0.140000X0.170000X0.140000X0*%
%ADD15RoundRect,0.147500X-0.147500X-0.172500X0.147500X-0.172500X0.147500X0.172500X-0.147500X0.172500X0*%
%ADD16RoundRect,0.140000X0.170000X-0.140000X0.170000X0.140000X-0.170000X0.140000X-0.170000X-0.140000X0*%
%ADD17RoundRect,0.135000X0.135000X0.185000X-0.135000X0.185000X-0.135000X-0.185000X0.135000X-0.185000X0*%
%ADD18RoundRect,0.150000X0.150000X-0.512500X0.150000X0.512500X-0.150000X0.512500X-0.150000X-0.512500X0*%
%ADD19RoundRect,0.150000X0.425000X-0.150000X0.425000X0.150000X-0.425000X0.150000X-0.425000X-0.150000X0*%
%ADD20RoundRect,0.075000X0.500000X-0.075000X0.500000X0.075000X-0.500000X0.075000X-0.500000X-0.075000X0*%
%ADD21O,2.100000X1.000000*%
%ADD22O,1.800000X1.000000*%
%ADD23RoundRect,0.250000X-0.475000X0.250000X-0.475000X-0.250000X0.475000X-0.250000X0.475000X0.250000X0*%
%ADD24RoundRect,0.250000X0.250000X0.475000X-0.250000X0.475000X-0.250000X-0.475000X0.250000X-0.475000X0*%
%ADD25RoundRect,0.100000X-0.712500X-0.100000X0.712500X-0.100000X0.712500X0.100000X-0.712500X0.100000X0*%
%ADD26R,0.300000X1.300000*%
%ADD27R,1.800000X2.200000*%
%ADD28R,1.500000X0.600000*%
%ADD29R,1.800000X0.800000*%
%ADD30RoundRect,0.202500X-0.202500X-0.202500X0.202500X-0.202500X0.202500X0.202500X-0.202500X0.202500X0*%
%ADD31RoundRect,0.062500X-0.062500X-0.350000X0.062500X-0.350000X0.062500X0.350000X-0.062500X0.350000X0*%
%ADD32RoundRect,0.062500X-0.350000X-0.062500X0.350000X-0.062500X0.350000X0.062500X-0.350000X0.062500X0*%
%ADD33RoundRect,0.135000X0.185000X-0.135000X0.185000X0.135000X-0.185000X0.135000X-0.185000X-0.135000X0*%
%ADD34RoundRect,0.135000X0.315000X-0.565000X0.315000X0.565000X-0.315000X0.565000X-0.315000X-0.565000X0*%
%ADD35RoundRect,0.225000X0.225000X0.250000X-0.225000X0.250000X-0.225000X-0.250000X0.225000X-0.250000X0*%
%ADD36RoundRect,0.050000X-0.285000X-0.100000X0.285000X-0.100000X0.285000X0.100000X-0.285000X0.100000X0*%
%ADD37RoundRect,0.140000X0.140000X0.170000X-0.140000X0.170000X-0.140000X-0.170000X0.140000X-0.170000X0*%
%ADD38RoundRect,0.150000X0.150000X0.400000X-0.150000X0.400000X-0.150000X-0.400000X0.150000X-0.400000X0*%
%ADD39RoundRect,0.225000X0.225000X0.275000X-0.225000X0.275000X-0.225000X-0.275000X0.225000X-0.275000X0*%
%ADD40RoundRect,0.135000X-0.565000X-0.315000X0.565000X-0.315000X0.565000X0.315000X-0.565000X0.315000X0*%
%ADD41RoundRect,0.135000X-0.185000X0.135000X-0.185000X-0.135000X0.185000X-0.135000X0.185000X0.135000X0*%
%ADD42RoundRect,0.150000X0.587500X0.150000X-0.587500X0.150000X-0.587500X-0.150000X0.587500X-0.150000X0*%
%ADD43RoundRect,0.140000X-0.140000X-0.170000X0.140000X-0.170000X0.140000X0.170000X-0.140000X0.170000X0*%
%ADD44R,0.300000X0.850000*%
%ADD45R,3.700000X1.200000*%
%ADD46RoundRect,0.175000X-0.175000X-0.325000X0.175000X-0.325000X0.175000X0.325000X-0.175000X0.325000X0*%
%ADD47RoundRect,0.150000X-0.200000X-0.150000X0.200000X-0.150000X0.200000X0.150000X-0.200000X0.150000X0*%
%ADD48R,0.600000X0.600000*%
%ADD49R,0.550000X0.780000*%
%ADD50R,0.550000X0.340000*%
%ADD51RoundRect,0.212500X0.212500X0.212500X-0.212500X0.212500X-0.212500X-0.212500X0.212500X-0.212500X0*%
%ADD52RoundRect,0.087500X0.425000X0.087500X-0.425000X0.087500X-0.425000X-0.087500X0.425000X-0.087500X0*%
%ADD53RoundRect,0.087500X0.087500X0.425000X-0.087500X0.425000X-0.087500X-0.425000X0.087500X-0.425000X0*%
G04 APERTURE END LIST*
D10*
%TO.C,U7*%
X145874910Y-93520641D02*
X143345090Y-93520641D01*
X143345090Y-92521359D01*
X145874910Y-92521359D01*
X145874910Y-93520641D01*
G36*
X145874910Y-93520641D02*
G01*
X143345090Y-93520641D01*
X143345090Y-92521359D01*
X145874910Y-92521359D01*
X145874910Y-93520641D01*
G37*
%TD*%
D11*
%TO.C,J3*%
X136150000Y-96550000D03*
X138150000Y-96550000D03*
D12*
X133800000Y-102300000D03*
X140500000Y-102300000D03*
%TD*%
D13*
%TO.C,R29*%
X144690000Y-100550000D03*
X145710000Y-100550000D03*
%TD*%
D14*
%TO.C,C7*%
X137025000Y-91720000D03*
X137025000Y-92680000D03*
%TD*%
D15*
%TO.C,D1*%
X145832500Y-76375000D03*
X146802500Y-76375000D03*
%TD*%
D16*
%TO.C,C10*%
X138900000Y-92680000D03*
X138900000Y-91720000D03*
%TD*%
D17*
%TO.C,R17*%
X142760000Y-90400000D03*
X141740000Y-90400000D03*
%TD*%
D18*
%TO.C,U5*%
X132387500Y-93387500D03*
X133337500Y-93387500D03*
X134287500Y-93387500D03*
X134287500Y-91112500D03*
X132387500Y-91112500D03*
%TD*%
D19*
%TO.C,J1*%
X148145000Y-89160000D03*
X148145000Y-88360000D03*
D20*
X148145000Y-87210000D03*
X148145000Y-86210000D03*
X148145000Y-85710000D03*
X148145000Y-84710000D03*
D19*
X148145000Y-83560000D03*
X148145000Y-82760000D03*
X148145000Y-82760000D03*
X148145000Y-83560000D03*
D20*
X148145000Y-84210000D03*
X148145000Y-85210000D03*
X148145000Y-86710000D03*
X148145000Y-87710000D03*
D19*
X148145000Y-88360000D03*
X148145000Y-89160000D03*
D21*
X148720000Y-90280000D03*
D22*
X152900000Y-90280000D03*
D21*
X148720000Y-81640000D03*
D22*
X152900000Y-81640000D03*
%TD*%
D17*
%TO.C,R9*%
X148710000Y-78250000D03*
X147690000Y-78250000D03*
%TD*%
%TO.C,R23*%
X151360000Y-96350000D03*
X150340000Y-96350000D03*
%TD*%
D23*
%TO.C,C13*%
X141375000Y-91650000D03*
X141375000Y-93550000D03*
%TD*%
D24*
%TO.C,C14*%
X144400000Y-96150000D03*
X142500000Y-96150000D03*
%TD*%
D16*
%TO.C,C4*%
X131125000Y-82555000D03*
X131125000Y-81595000D03*
%TD*%
D25*
%TO.C,U3*%
X125337500Y-80600000D03*
X125337500Y-81250000D03*
X125337500Y-81900000D03*
X125337500Y-82550000D03*
X129562500Y-82550000D03*
X129562500Y-81900000D03*
X129562500Y-81250000D03*
X129562500Y-80600000D03*
%TD*%
D26*
%TO.C,J2*%
X122575000Y-97975000D03*
X123075000Y-97975000D03*
X123575000Y-97975000D03*
X124075000Y-97975000D03*
X124575000Y-97975000D03*
X125075000Y-97975000D03*
X125575000Y-97975000D03*
X126075000Y-97975000D03*
D27*
X120675000Y-101225000D03*
X127975000Y-101225000D03*
%TD*%
D28*
%TO.C,CON1*%
X107300000Y-86775000D03*
X110300000Y-87275000D03*
X107300000Y-87775000D03*
X110300000Y-88275000D03*
X107300000Y-88775000D03*
X110300000Y-89275000D03*
X107300000Y-89775000D03*
X110300000Y-90275000D03*
X107300000Y-90775000D03*
X110300000Y-91275000D03*
X107300000Y-91775000D03*
X110300000Y-92275000D03*
D29*
X107450000Y-85775000D03*
X110150000Y-85775000D03*
X107450000Y-93275000D03*
X110150000Y-93275000D03*
%TD*%
D16*
%TO.C,C12*%
X139925000Y-93855000D03*
X139925000Y-92895000D03*
%TD*%
D30*
%TO.C,U1*%
X114075000Y-80750000D03*
X114075000Y-81750000D03*
D31*
X113825000Y-79562500D03*
D32*
X112887500Y-80000000D03*
X112887500Y-80500000D03*
X112887500Y-81000000D03*
X112887500Y-81500000D03*
X112887500Y-82000000D03*
X112887500Y-82500000D03*
D31*
X113825000Y-82937500D03*
X114325000Y-82937500D03*
D32*
X115262500Y-82500000D03*
X115262500Y-82000000D03*
X115262500Y-81500000D03*
X115262500Y-81000000D03*
X115262500Y-80500000D03*
X115262500Y-80000000D03*
D31*
X114325000Y-79562500D03*
%TD*%
D28*
%TO.C,CON3*%
X120350000Y-86775000D03*
X123350000Y-87275000D03*
X120350000Y-87775000D03*
X123350000Y-88275000D03*
X120350000Y-88775000D03*
X123350000Y-89275000D03*
X120350000Y-89775000D03*
X123350000Y-90275000D03*
X120350000Y-90775000D03*
X123350000Y-91275000D03*
X120350000Y-91775000D03*
X123350000Y-92275000D03*
D29*
X120500000Y-85775000D03*
X123200000Y-85775000D03*
X120500000Y-93275000D03*
X123200000Y-93275000D03*
%TD*%
D17*
%TO.C,R16*%
X140885000Y-90425000D03*
X139865000Y-90425000D03*
%TD*%
D33*
%TO.C,R26*%
X115040000Y-101210000D03*
X115040000Y-100190000D03*
%TD*%
D13*
%TO.C,R10*%
X147665000Y-79200000D03*
X148685000Y-79200000D03*
%TD*%
%TO.C,R8*%
X145790000Y-80150000D03*
X146810000Y-80150000D03*
%TD*%
D28*
%TO.C,CON2*%
X113850000Y-86775000D03*
X116850000Y-87275000D03*
X113850000Y-87775000D03*
X116850000Y-88275000D03*
X113850000Y-88775000D03*
X116850000Y-89275000D03*
X113850000Y-89775000D03*
X116850000Y-90275000D03*
X113850000Y-90775000D03*
X116850000Y-91275000D03*
X113850000Y-91775000D03*
X116850000Y-92275000D03*
D29*
X114000000Y-85775000D03*
X116700000Y-85775000D03*
X114000000Y-93275000D03*
X116700000Y-93275000D03*
%TD*%
D24*
%TO.C,C16*%
X144425000Y-98125000D03*
X142525000Y-98125000D03*
%TD*%
D34*
%TO.C,SW1*%
X154510000Y-97221000D03*
X154510000Y-93621000D03*
X153210000Y-93621000D03*
X153210000Y-97221000D03*
%TD*%
D16*
%TO.C,C3*%
X123650000Y-81480000D03*
X123650000Y-80520000D03*
%TD*%
D35*
%TO.C,C5*%
X146250000Y-82575000D03*
X144700000Y-82575000D03*
%TD*%
D36*
%TO.C,U6*%
X144785000Y-87412500D03*
X144785000Y-87912500D03*
X144785000Y-88412500D03*
X144785000Y-88912500D03*
X146265000Y-88912500D03*
X146265000Y-88412500D03*
X146265000Y-87912500D03*
X146265000Y-87412500D03*
%TD*%
D17*
%TO.C,R18*%
X146460000Y-90400000D03*
X145440000Y-90400000D03*
%TD*%
D13*
%TO.C,R21*%
X145590000Y-97200000D03*
X146610000Y-97200000D03*
%TD*%
D33*
%TO.C,R14*%
X109775000Y-83035000D03*
X109775000Y-82015000D03*
%TD*%
D37*
%TO.C,C11*%
X144580000Y-90400000D03*
X143620000Y-90400000D03*
%TD*%
D38*
%TO.C,Y1*%
X137300000Y-90175000D03*
X135900000Y-90175000D03*
%TD*%
D33*
%TO.C,R19*%
X143725000Y-88310000D03*
X143725000Y-87290000D03*
%TD*%
D13*
%TO.C,R11*%
X147665000Y-80150000D03*
X148685000Y-80150000D03*
%TD*%
D14*
%TO.C,C9*%
X137975000Y-91720000D03*
X137975000Y-92680000D03*
%TD*%
D33*
%TO.C,R12*%
X106925000Y-83035000D03*
X106925000Y-82015000D03*
%TD*%
D39*
%TO.C,D5*%
X131852500Y-103372500D03*
X130252500Y-103372500D03*
%TD*%
D17*
%TO.C,R7*%
X146810000Y-79200000D03*
X145790000Y-79200000D03*
%TD*%
D40*
%TO.C,SW2*%
X144675000Y-103512500D03*
X148275000Y-103512500D03*
X148275000Y-102212500D03*
X144675000Y-102212500D03*
%TD*%
D17*
%TO.C,R5*%
X116085000Y-78400000D03*
X115065000Y-78400000D03*
%TD*%
%TO.C,R22*%
X146610000Y-96250000D03*
X145590000Y-96250000D03*
%TD*%
D33*
%TO.C,R25*%
X113025000Y-101210000D03*
X113025000Y-100190000D03*
%TD*%
D41*
%TO.C,R28*%
X132075000Y-101140000D03*
X132075000Y-102160000D03*
%TD*%
D13*
%TO.C,R4*%
X147665000Y-75400000D03*
X148685000Y-75400000D03*
%TD*%
%TO.C,R20*%
X136040000Y-93625000D03*
X137060000Y-93625000D03*
%TD*%
D37*
%TO.C,C2*%
X114155000Y-78150000D03*
X113195000Y-78150000D03*
%TD*%
D17*
%TO.C,R3*%
X148685000Y-76350000D03*
X147665000Y-76350000D03*
%TD*%
D42*
%TO.C,Q1*%
X148037500Y-100325000D03*
X148037500Y-98425000D03*
X146162500Y-99375000D03*
%TD*%
D17*
%TO.C,R6*%
X146810000Y-78250000D03*
X145790000Y-78250000D03*
%TD*%
D13*
%TO.C,R2*%
X147665000Y-77300000D03*
X148685000Y-77300000D03*
%TD*%
D43*
%TO.C,C15*%
X130145000Y-97700000D03*
X131105000Y-97700000D03*
%TD*%
D44*
%TO.C,U7*%
X143110000Y-94496000D03*
X143610000Y-94496000D03*
X144110000Y-94496000D03*
X144610000Y-94496000D03*
X145110000Y-94496000D03*
X145610000Y-94496000D03*
X146110000Y-94496000D03*
X146110000Y-91546000D03*
X145610000Y-91546000D03*
X145110000Y-91546000D03*
X144610000Y-91546000D03*
X144110000Y-91546000D03*
X143610000Y-91546000D03*
X143110000Y-91546000D03*
%TD*%
D28*
%TO.C,CON4*%
X126850000Y-86775000D03*
X129850000Y-87275000D03*
X126850000Y-87775000D03*
X129850000Y-88275000D03*
X126850000Y-88775000D03*
X129850000Y-89275000D03*
X126850000Y-89775000D03*
X129850000Y-90275000D03*
X126850000Y-90775000D03*
X129850000Y-91275000D03*
X126850000Y-91775000D03*
X129850000Y-92275000D03*
D29*
X127000000Y-85775000D03*
X129700000Y-85775000D03*
X127000000Y-93275000D03*
X129700000Y-93275000D03*
%TD*%
D45*
%TO.C,L1*%
X149510000Y-92221000D03*
X149510000Y-95021000D03*
%TD*%
D37*
%TO.C,C6*%
X134655000Y-89550000D03*
X133695000Y-89550000D03*
%TD*%
D33*
%TO.C,R13*%
X107875000Y-83035000D03*
X107875000Y-82015000D03*
%TD*%
D46*
%TO.C,D2*%
X144260000Y-84258500D03*
D47*
X144260000Y-85958500D03*
X146260000Y-85958500D03*
X146260000Y-84058500D03*
%TD*%
D33*
%TO.C,R27*%
X114025000Y-101210000D03*
X114025000Y-100190000D03*
%TD*%
D48*
%TO.C,U4*%
X142150000Y-88075000D03*
X141050000Y-88075000D03*
X139950000Y-88075000D03*
X138850000Y-88075000D03*
X137750000Y-88075000D03*
X136650000Y-88075000D03*
X135550000Y-88075000D03*
X134450000Y-88075000D03*
X133350000Y-88075000D03*
X142150000Y-86975000D03*
X141050000Y-86975000D03*
X139950000Y-86975000D03*
X138850000Y-86975000D03*
X137750000Y-86975000D03*
X136650000Y-86975000D03*
X135550000Y-86975000D03*
X134450000Y-86975000D03*
X133350000Y-86975000D03*
X142150000Y-85875000D03*
X141050000Y-85875000D03*
X138850000Y-85875000D03*
X137750000Y-85875000D03*
X136650000Y-85875000D03*
X134450000Y-85875000D03*
X133350000Y-85875000D03*
X142150000Y-84775000D03*
X141050000Y-84775000D03*
X139950000Y-84775000D03*
X135550000Y-84775000D03*
X134450000Y-84775000D03*
X133350000Y-84775000D03*
X142150000Y-83675000D03*
X141050000Y-83675000D03*
X139950000Y-83675000D03*
X138300000Y-83675000D03*
X137200000Y-83675000D03*
X135550000Y-83675000D03*
X134450000Y-83675000D03*
X133350000Y-83675000D03*
X142150000Y-82575000D03*
X141050000Y-82575000D03*
X139950000Y-82575000D03*
X138300000Y-82575000D03*
X137200000Y-82575000D03*
X135550000Y-82575000D03*
X134450000Y-82575000D03*
X133350000Y-82575000D03*
X142150000Y-81475000D03*
X141050000Y-81475000D03*
X139950000Y-81475000D03*
X138300000Y-81475000D03*
X137200000Y-81475000D03*
X135550000Y-81475000D03*
X134450000Y-81475000D03*
X133350000Y-81475000D03*
X142150000Y-80375000D03*
X141050000Y-80375000D03*
X139950000Y-80375000D03*
X135550000Y-80375000D03*
X134450000Y-80375000D03*
X133350000Y-80375000D03*
X142150000Y-79275000D03*
X141050000Y-79275000D03*
X139950000Y-79275000D03*
X138300000Y-79275000D03*
X137200000Y-79275000D03*
X135550000Y-79275000D03*
X134450000Y-79275000D03*
X133350000Y-79275000D03*
X142150000Y-78175000D03*
X141050000Y-78175000D03*
X139950000Y-78175000D03*
X137750000Y-78175000D03*
X135550000Y-78175000D03*
X134450000Y-78175000D03*
X133350000Y-78175000D03*
X142150000Y-76675000D03*
X133350000Y-76675000D03*
X142150000Y-75175000D03*
X141050000Y-75175000D03*
X134450000Y-75175000D03*
X133350000Y-75175000D03*
%TD*%
D13*
%TO.C,R1*%
X115065000Y-77450000D03*
X116085000Y-77450000D03*
%TD*%
D33*
%TO.C,R15*%
X108825000Y-83035000D03*
X108825000Y-82015000D03*
%TD*%
D43*
%TO.C,C1*%
X145845000Y-77325000D03*
X146805000Y-77325000D03*
%TD*%
D15*
%TO.C,D3*%
X153842500Y-91971000D03*
X154812500Y-91971000D03*
%TD*%
D14*
%TO.C,C8*%
X136100000Y-91720000D03*
X136100000Y-92680000D03*
%TD*%
D49*
%TO.C,D4*%
X112500000Y-102920000D03*
D50*
X113500000Y-102700000D03*
X114350000Y-102700000D03*
D49*
X115350000Y-102920000D03*
%TD*%
D13*
%TO.C,R24*%
X147465000Y-97200000D03*
X148485000Y-97200000D03*
%TD*%
D51*
%TO.C,U2*%
X120475000Y-81625000D03*
X120475000Y-80575000D03*
X119425000Y-81625000D03*
X119425000Y-80575000D03*
D52*
X121812500Y-82075000D03*
X121812500Y-81425000D03*
X121812500Y-80775000D03*
X121812500Y-80125000D03*
D53*
X120925000Y-79237500D03*
X120275000Y-79237500D03*
X119625000Y-79237500D03*
X118975000Y-79237500D03*
D52*
X118087500Y-80125000D03*
X118087500Y-80775000D03*
X118087500Y-81425000D03*
X118087500Y-82075000D03*
D53*
X118975000Y-82962500D03*
X119625000Y-82962500D03*
X120275000Y-82962500D03*
X120925000Y-82962500D03*
%TD*%
M02*
