%TF.GenerationSoftware,KiCad,Pcbnew,9.0.4*%
%TF.CreationDate,2025-09-08T17:38:28-04:00*%
%TF.ProjectId,CPU1-NRF5340-uBlox-NORA,43505531-2d4e-4524-9635-3334302d7542,A*%
%TF.SameCoordinates,Original*%
%TF.FileFunction,Legend,Top*%
%TF.FilePolarity,Positive*%
%FSLAX46Y46*%
G04 Gerber Fmt 4.6, Leading zero omitted, Abs format (unit mm)*
G04 Created by KiCad (PCBNEW 9.0.4) date 2025-09-08 17:38:28*
%MOMM*%
%LPD*%
G01*
G04 APERTURE LIST*
%ADD10C,0.150000*%
%ADD11C,0.254000*%
%ADD12C,0.120000*%
%ADD13C,0.100000*%
%ADD14C,0.200000*%
%ADD15C,0.127000*%
G04 APERTURE END LIST*
D10*
X118231541Y-74824157D02*
X118898207Y-74824157D01*
X118898207Y-74824157D02*
X118231541Y-75724157D01*
X118231541Y-75724157D02*
X118898207Y-75724157D01*
X119279160Y-75252728D02*
X119612493Y-75252728D01*
X119755350Y-75724157D02*
X119279160Y-75724157D01*
X119279160Y-75724157D02*
X119279160Y-74824157D01*
X119279160Y-74824157D02*
X119755350Y-74824157D01*
X120183922Y-75724157D02*
X120183922Y-74824157D01*
X120183922Y-74824157D02*
X120422017Y-74824157D01*
X120422017Y-74824157D02*
X120564874Y-74867014D01*
X120564874Y-74867014D02*
X120660112Y-74952728D01*
X120660112Y-74952728D02*
X120707731Y-75038442D01*
X120707731Y-75038442D02*
X120755350Y-75209871D01*
X120755350Y-75209871D02*
X120755350Y-75338442D01*
X120755350Y-75338442D02*
X120707731Y-75509871D01*
X120707731Y-75509871D02*
X120660112Y-75595585D01*
X120660112Y-75595585D02*
X120564874Y-75681300D01*
X120564874Y-75681300D02*
X120422017Y-75724157D01*
X120422017Y-75724157D02*
X120183922Y-75724157D01*
X122279160Y-75252728D02*
X122422017Y-75295585D01*
X122422017Y-75295585D02*
X122469636Y-75338442D01*
X122469636Y-75338442D02*
X122517255Y-75424157D01*
X122517255Y-75424157D02*
X122517255Y-75552728D01*
X122517255Y-75552728D02*
X122469636Y-75638442D01*
X122469636Y-75638442D02*
X122422017Y-75681300D01*
X122422017Y-75681300D02*
X122326779Y-75724157D01*
X122326779Y-75724157D02*
X121945827Y-75724157D01*
X121945827Y-75724157D02*
X121945827Y-74824157D01*
X121945827Y-74824157D02*
X122279160Y-74824157D01*
X122279160Y-74824157D02*
X122374398Y-74867014D01*
X122374398Y-74867014D02*
X122422017Y-74909871D01*
X122422017Y-74909871D02*
X122469636Y-74995585D01*
X122469636Y-74995585D02*
X122469636Y-75081300D01*
X122469636Y-75081300D02*
X122422017Y-75167014D01*
X122422017Y-75167014D02*
X122374398Y-75209871D01*
X122374398Y-75209871D02*
X122279160Y-75252728D01*
X122279160Y-75252728D02*
X121945827Y-75252728D01*
X123088684Y-75724157D02*
X122993446Y-75681300D01*
X122993446Y-75681300D02*
X122945827Y-75638442D01*
X122945827Y-75638442D02*
X122898208Y-75552728D01*
X122898208Y-75552728D02*
X122898208Y-75295585D01*
X122898208Y-75295585D02*
X122945827Y-75209871D01*
X122945827Y-75209871D02*
X122993446Y-75167014D01*
X122993446Y-75167014D02*
X123088684Y-75124157D01*
X123088684Y-75124157D02*
X123231541Y-75124157D01*
X123231541Y-75124157D02*
X123326779Y-75167014D01*
X123326779Y-75167014D02*
X123374398Y-75209871D01*
X123374398Y-75209871D02*
X123422017Y-75295585D01*
X123422017Y-75295585D02*
X123422017Y-75552728D01*
X123422017Y-75552728D02*
X123374398Y-75638442D01*
X123374398Y-75638442D02*
X123326779Y-75681300D01*
X123326779Y-75681300D02*
X123231541Y-75724157D01*
X123231541Y-75724157D02*
X123088684Y-75724157D01*
X124279160Y-75724157D02*
X124279160Y-75252728D01*
X124279160Y-75252728D02*
X124231541Y-75167014D01*
X124231541Y-75167014D02*
X124136303Y-75124157D01*
X124136303Y-75124157D02*
X123945827Y-75124157D01*
X123945827Y-75124157D02*
X123850589Y-75167014D01*
X124279160Y-75681300D02*
X124183922Y-75724157D01*
X124183922Y-75724157D02*
X123945827Y-75724157D01*
X123945827Y-75724157D02*
X123850589Y-75681300D01*
X123850589Y-75681300D02*
X123802970Y-75595585D01*
X123802970Y-75595585D02*
X123802970Y-75509871D01*
X123802970Y-75509871D02*
X123850589Y-75424157D01*
X123850589Y-75424157D02*
X123945827Y-75381300D01*
X123945827Y-75381300D02*
X124183922Y-75381300D01*
X124183922Y-75381300D02*
X124279160Y-75338442D01*
X124755351Y-75724157D02*
X124755351Y-75124157D01*
X124755351Y-75295585D02*
X124802970Y-75209871D01*
X124802970Y-75209871D02*
X124850589Y-75167014D01*
X124850589Y-75167014D02*
X124945827Y-75124157D01*
X124945827Y-75124157D02*
X125041065Y-75124157D01*
X125802970Y-75724157D02*
X125802970Y-74824157D01*
X125802970Y-75681300D02*
X125707732Y-75724157D01*
X125707732Y-75724157D02*
X125517256Y-75724157D01*
X125517256Y-75724157D02*
X125422018Y-75681300D01*
X125422018Y-75681300D02*
X125374399Y-75638442D01*
X125374399Y-75638442D02*
X125326780Y-75552728D01*
X125326780Y-75552728D02*
X125326780Y-75295585D01*
X125326780Y-75295585D02*
X125374399Y-75209871D01*
X125374399Y-75209871D02*
X125422018Y-75167014D01*
X125422018Y-75167014D02*
X125517256Y-75124157D01*
X125517256Y-75124157D02*
X125707732Y-75124157D01*
X125707732Y-75124157D02*
X125802970Y-75167014D01*
X118898207Y-77087392D02*
X118850588Y-77130250D01*
X118850588Y-77130250D02*
X118707731Y-77173107D01*
X118707731Y-77173107D02*
X118612493Y-77173107D01*
X118612493Y-77173107D02*
X118469636Y-77130250D01*
X118469636Y-77130250D02*
X118374398Y-77044535D01*
X118374398Y-77044535D02*
X118326779Y-76958821D01*
X118326779Y-76958821D02*
X118279160Y-76787392D01*
X118279160Y-76787392D02*
X118279160Y-76658821D01*
X118279160Y-76658821D02*
X118326779Y-76487392D01*
X118326779Y-76487392D02*
X118374398Y-76401678D01*
X118374398Y-76401678D02*
X118469636Y-76315964D01*
X118469636Y-76315964D02*
X118612493Y-76273107D01*
X118612493Y-76273107D02*
X118707731Y-76273107D01*
X118707731Y-76273107D02*
X118850588Y-76315964D01*
X118850588Y-76315964D02*
X118898207Y-76358821D01*
X119326779Y-77173107D02*
X119326779Y-76273107D01*
X119326779Y-76273107D02*
X119707731Y-76273107D01*
X119707731Y-76273107D02*
X119802969Y-76315964D01*
X119802969Y-76315964D02*
X119850588Y-76358821D01*
X119850588Y-76358821D02*
X119898207Y-76444535D01*
X119898207Y-76444535D02*
X119898207Y-76573107D01*
X119898207Y-76573107D02*
X119850588Y-76658821D01*
X119850588Y-76658821D02*
X119802969Y-76701678D01*
X119802969Y-76701678D02*
X119707731Y-76744535D01*
X119707731Y-76744535D02*
X119326779Y-76744535D01*
X120326779Y-76273107D02*
X120326779Y-77001678D01*
X120326779Y-77001678D02*
X120374398Y-77087392D01*
X120374398Y-77087392D02*
X120422017Y-77130250D01*
X120422017Y-77130250D02*
X120517255Y-77173107D01*
X120517255Y-77173107D02*
X120707731Y-77173107D01*
X120707731Y-77173107D02*
X120802969Y-77130250D01*
X120802969Y-77130250D02*
X120850588Y-77087392D01*
X120850588Y-77087392D02*
X120898207Y-77001678D01*
X120898207Y-77001678D02*
X120898207Y-76273107D01*
X121898207Y-77173107D02*
X121326779Y-77173107D01*
X121612493Y-77173107D02*
X121612493Y-76273107D01*
X121612493Y-76273107D02*
X121517255Y-76401678D01*
X121517255Y-76401678D02*
X121422017Y-76487392D01*
X121422017Y-76487392D02*
X121326779Y-76530250D01*
X122326779Y-76830250D02*
X123088684Y-76830250D01*
X123564874Y-76573107D02*
X123564874Y-77173107D01*
X123564874Y-76658821D02*
X123612493Y-76615964D01*
X123612493Y-76615964D02*
X123707731Y-76573107D01*
X123707731Y-76573107D02*
X123850588Y-76573107D01*
X123850588Y-76573107D02*
X123945826Y-76615964D01*
X123945826Y-76615964D02*
X123993445Y-76701678D01*
X123993445Y-76701678D02*
X123993445Y-77173107D01*
X125041064Y-77173107D02*
X124707731Y-76744535D01*
X124469636Y-77173107D02*
X124469636Y-76273107D01*
X124469636Y-76273107D02*
X124850588Y-76273107D01*
X124850588Y-76273107D02*
X124945826Y-76315964D01*
X124945826Y-76315964D02*
X124993445Y-76358821D01*
X124993445Y-76358821D02*
X125041064Y-76444535D01*
X125041064Y-76444535D02*
X125041064Y-76573107D01*
X125041064Y-76573107D02*
X124993445Y-76658821D01*
X124993445Y-76658821D02*
X124945826Y-76701678D01*
X124945826Y-76701678D02*
X124850588Y-76744535D01*
X124850588Y-76744535D02*
X124469636Y-76744535D01*
X125802969Y-76701678D02*
X125469636Y-76701678D01*
X125469636Y-77173107D02*
X125469636Y-76273107D01*
X125469636Y-76273107D02*
X125945826Y-76273107D01*
X126802969Y-76273107D02*
X126326779Y-76273107D01*
X126326779Y-76273107D02*
X126279160Y-76701678D01*
X126279160Y-76701678D02*
X126326779Y-76658821D01*
X126326779Y-76658821D02*
X126422017Y-76615964D01*
X126422017Y-76615964D02*
X126660112Y-76615964D01*
X126660112Y-76615964D02*
X126755350Y-76658821D01*
X126755350Y-76658821D02*
X126802969Y-76701678D01*
X126802969Y-76701678D02*
X126850588Y-76787392D01*
X126850588Y-76787392D02*
X126850588Y-77001678D01*
X126850588Y-77001678D02*
X126802969Y-77087392D01*
X126802969Y-77087392D02*
X126755350Y-77130250D01*
X126755350Y-77130250D02*
X126660112Y-77173107D01*
X126660112Y-77173107D02*
X126422017Y-77173107D01*
X126422017Y-77173107D02*
X126326779Y-77130250D01*
X126326779Y-77130250D02*
X126279160Y-77087392D01*
X127183922Y-76273107D02*
X127802969Y-76273107D01*
X127802969Y-76273107D02*
X127469636Y-76615964D01*
X127469636Y-76615964D02*
X127612493Y-76615964D01*
X127612493Y-76615964D02*
X127707731Y-76658821D01*
X127707731Y-76658821D02*
X127755350Y-76701678D01*
X127755350Y-76701678D02*
X127802969Y-76787392D01*
X127802969Y-76787392D02*
X127802969Y-77001678D01*
X127802969Y-77001678D02*
X127755350Y-77087392D01*
X127755350Y-77087392D02*
X127707731Y-77130250D01*
X127707731Y-77130250D02*
X127612493Y-77173107D01*
X127612493Y-77173107D02*
X127326779Y-77173107D01*
X127326779Y-77173107D02*
X127231541Y-77130250D01*
X127231541Y-77130250D02*
X127183922Y-77087392D01*
X128660112Y-76573107D02*
X128660112Y-77173107D01*
X128422017Y-76230250D02*
X128183922Y-76873107D01*
X128183922Y-76873107D02*
X128802969Y-76873107D01*
X129374398Y-76273107D02*
X129469636Y-76273107D01*
X129469636Y-76273107D02*
X129564874Y-76315964D01*
X129564874Y-76315964D02*
X129612493Y-76358821D01*
X129612493Y-76358821D02*
X129660112Y-76444535D01*
X129660112Y-76444535D02*
X129707731Y-76615964D01*
X129707731Y-76615964D02*
X129707731Y-76830250D01*
X129707731Y-76830250D02*
X129660112Y-77001678D01*
X129660112Y-77001678D02*
X129612493Y-77087392D01*
X129612493Y-77087392D02*
X129564874Y-77130250D01*
X129564874Y-77130250D02*
X129469636Y-77173107D01*
X129469636Y-77173107D02*
X129374398Y-77173107D01*
X129374398Y-77173107D02*
X129279160Y-77130250D01*
X129279160Y-77130250D02*
X129231541Y-77087392D01*
X129231541Y-77087392D02*
X129183922Y-77001678D01*
X129183922Y-77001678D02*
X129136303Y-76830250D01*
X129136303Y-76830250D02*
X129136303Y-76615964D01*
X129136303Y-76615964D02*
X129183922Y-76444535D01*
X129183922Y-76444535D02*
X129231541Y-76358821D01*
X129231541Y-76358821D02*
X129279160Y-76315964D01*
X129279160Y-76315964D02*
X129374398Y-76273107D01*
X118326779Y-77722057D02*
X118326779Y-78450628D01*
X118326779Y-78450628D02*
X118374398Y-78536342D01*
X118374398Y-78536342D02*
X118422017Y-78579200D01*
X118422017Y-78579200D02*
X118517255Y-78622057D01*
X118517255Y-78622057D02*
X118707731Y-78622057D01*
X118707731Y-78622057D02*
X118802969Y-78579200D01*
X118802969Y-78579200D02*
X118850588Y-78536342D01*
X118850588Y-78536342D02*
X118898207Y-78450628D01*
X118898207Y-78450628D02*
X118898207Y-77722057D01*
X119707731Y-78150628D02*
X119850588Y-78193485D01*
X119850588Y-78193485D02*
X119898207Y-78236342D01*
X119898207Y-78236342D02*
X119945826Y-78322057D01*
X119945826Y-78322057D02*
X119945826Y-78450628D01*
X119945826Y-78450628D02*
X119898207Y-78536342D01*
X119898207Y-78536342D02*
X119850588Y-78579200D01*
X119850588Y-78579200D02*
X119755350Y-78622057D01*
X119755350Y-78622057D02*
X119374398Y-78622057D01*
X119374398Y-78622057D02*
X119374398Y-77722057D01*
X119374398Y-77722057D02*
X119707731Y-77722057D01*
X119707731Y-77722057D02*
X119802969Y-77764914D01*
X119802969Y-77764914D02*
X119850588Y-77807771D01*
X119850588Y-77807771D02*
X119898207Y-77893485D01*
X119898207Y-77893485D02*
X119898207Y-77979200D01*
X119898207Y-77979200D02*
X119850588Y-78064914D01*
X119850588Y-78064914D02*
X119802969Y-78107771D01*
X119802969Y-78107771D02*
X119707731Y-78150628D01*
X119707731Y-78150628D02*
X119374398Y-78150628D01*
X120517255Y-78622057D02*
X120422017Y-78579200D01*
X120422017Y-78579200D02*
X120374398Y-78493485D01*
X120374398Y-78493485D02*
X120374398Y-77722057D01*
X121041065Y-78622057D02*
X120945827Y-78579200D01*
X120945827Y-78579200D02*
X120898208Y-78536342D01*
X120898208Y-78536342D02*
X120850589Y-78450628D01*
X120850589Y-78450628D02*
X120850589Y-78193485D01*
X120850589Y-78193485D02*
X120898208Y-78107771D01*
X120898208Y-78107771D02*
X120945827Y-78064914D01*
X120945827Y-78064914D02*
X121041065Y-78022057D01*
X121041065Y-78022057D02*
X121183922Y-78022057D01*
X121183922Y-78022057D02*
X121279160Y-78064914D01*
X121279160Y-78064914D02*
X121326779Y-78107771D01*
X121326779Y-78107771D02*
X121374398Y-78193485D01*
X121374398Y-78193485D02*
X121374398Y-78450628D01*
X121374398Y-78450628D02*
X121326779Y-78536342D01*
X121326779Y-78536342D02*
X121279160Y-78579200D01*
X121279160Y-78579200D02*
X121183922Y-78622057D01*
X121183922Y-78622057D02*
X121041065Y-78622057D01*
X121707732Y-78622057D02*
X122231541Y-78022057D01*
X121707732Y-78022057D02*
X122231541Y-78622057D01*
X123374399Y-78622057D02*
X123374399Y-77722057D01*
X123374399Y-77722057D02*
X123945827Y-78622057D01*
X123945827Y-78622057D02*
X123945827Y-77722057D01*
X124612494Y-77722057D02*
X124802970Y-77722057D01*
X124802970Y-77722057D02*
X124898208Y-77764914D01*
X124898208Y-77764914D02*
X124993446Y-77850628D01*
X124993446Y-77850628D02*
X125041065Y-78022057D01*
X125041065Y-78022057D02*
X125041065Y-78322057D01*
X125041065Y-78322057D02*
X124993446Y-78493485D01*
X124993446Y-78493485D02*
X124898208Y-78579200D01*
X124898208Y-78579200D02*
X124802970Y-78622057D01*
X124802970Y-78622057D02*
X124612494Y-78622057D01*
X124612494Y-78622057D02*
X124517256Y-78579200D01*
X124517256Y-78579200D02*
X124422018Y-78493485D01*
X124422018Y-78493485D02*
X124374399Y-78322057D01*
X124374399Y-78322057D02*
X124374399Y-78022057D01*
X124374399Y-78022057D02*
X124422018Y-77850628D01*
X124422018Y-77850628D02*
X124517256Y-77764914D01*
X124517256Y-77764914D02*
X124612494Y-77722057D01*
X126041065Y-78622057D02*
X125707732Y-78193485D01*
X125469637Y-78622057D02*
X125469637Y-77722057D01*
X125469637Y-77722057D02*
X125850589Y-77722057D01*
X125850589Y-77722057D02*
X125945827Y-77764914D01*
X125945827Y-77764914D02*
X125993446Y-77807771D01*
X125993446Y-77807771D02*
X126041065Y-77893485D01*
X126041065Y-77893485D02*
X126041065Y-78022057D01*
X126041065Y-78022057D02*
X125993446Y-78107771D01*
X125993446Y-78107771D02*
X125945827Y-78150628D01*
X125945827Y-78150628D02*
X125850589Y-78193485D01*
X125850589Y-78193485D02*
X125469637Y-78193485D01*
X126422018Y-78364914D02*
X126898208Y-78364914D01*
X126326780Y-78622057D02*
X126660113Y-77722057D01*
X126660113Y-77722057D02*
X126993446Y-78622057D01*
X128660113Y-78622057D02*
X128326780Y-78193485D01*
X128088685Y-78622057D02*
X128088685Y-77722057D01*
X128088685Y-77722057D02*
X128469637Y-77722057D01*
X128469637Y-77722057D02*
X128564875Y-77764914D01*
X128564875Y-77764914D02*
X128612494Y-77807771D01*
X128612494Y-77807771D02*
X128660113Y-77893485D01*
X128660113Y-77893485D02*
X128660113Y-78022057D01*
X128660113Y-78022057D02*
X128612494Y-78107771D01*
X128612494Y-78107771D02*
X128564875Y-78150628D01*
X128564875Y-78150628D02*
X128469637Y-78193485D01*
X128469637Y-78193485D02*
X128088685Y-78193485D01*
X129469637Y-78579200D02*
X129374399Y-78622057D01*
X129374399Y-78622057D02*
X129183923Y-78622057D01*
X129183923Y-78622057D02*
X129088685Y-78579200D01*
X129088685Y-78579200D02*
X129041066Y-78493485D01*
X129041066Y-78493485D02*
X129041066Y-78150628D01*
X129041066Y-78150628D02*
X129088685Y-78064914D01*
X129088685Y-78064914D02*
X129183923Y-78022057D01*
X129183923Y-78022057D02*
X129374399Y-78022057D01*
X129374399Y-78022057D02*
X129469637Y-78064914D01*
X129469637Y-78064914D02*
X129517256Y-78150628D01*
X129517256Y-78150628D02*
X129517256Y-78236342D01*
X129517256Y-78236342D02*
X129041066Y-78322057D01*
X129850590Y-78022057D02*
X130088685Y-78622057D01*
X130088685Y-78622057D02*
X130326780Y-78022057D01*
X131993447Y-78622057D02*
X131422019Y-78622057D01*
X131707733Y-78622057D02*
X131707733Y-77722057D01*
X131707733Y-77722057D02*
X131612495Y-77850628D01*
X131612495Y-77850628D02*
X131517257Y-77936342D01*
X131517257Y-77936342D02*
X131422019Y-77979200D01*
D11*
X107257857Y-96803365D02*
X107197381Y-96863842D01*
X107197381Y-96863842D02*
X107015952Y-96924318D01*
X107015952Y-96924318D02*
X106895000Y-96924318D01*
X106895000Y-96924318D02*
X106713571Y-96863842D01*
X106713571Y-96863842D02*
X106592619Y-96742889D01*
X106592619Y-96742889D02*
X106532142Y-96621937D01*
X106532142Y-96621937D02*
X106471666Y-96380032D01*
X106471666Y-96380032D02*
X106471666Y-96198603D01*
X106471666Y-96198603D02*
X106532142Y-95956699D01*
X106532142Y-95956699D02*
X106592619Y-95835746D01*
X106592619Y-95835746D02*
X106713571Y-95714794D01*
X106713571Y-95714794D02*
X106895000Y-95654318D01*
X106895000Y-95654318D02*
X107015952Y-95654318D01*
X107015952Y-95654318D02*
X107197381Y-95714794D01*
X107197381Y-95714794D02*
X107257857Y-95775270D01*
X108044047Y-95654318D02*
X108285952Y-95654318D01*
X108285952Y-95654318D02*
X108406904Y-95714794D01*
X108406904Y-95714794D02*
X108527857Y-95835746D01*
X108527857Y-95835746D02*
X108588333Y-96077651D01*
X108588333Y-96077651D02*
X108588333Y-96500984D01*
X108588333Y-96500984D02*
X108527857Y-96742889D01*
X108527857Y-96742889D02*
X108406904Y-96863842D01*
X108406904Y-96863842D02*
X108285952Y-96924318D01*
X108285952Y-96924318D02*
X108044047Y-96924318D01*
X108044047Y-96924318D02*
X107923095Y-96863842D01*
X107923095Y-96863842D02*
X107802142Y-96742889D01*
X107802142Y-96742889D02*
X107741666Y-96500984D01*
X107741666Y-96500984D02*
X107741666Y-96077651D01*
X107741666Y-96077651D02*
X107802142Y-95835746D01*
X107802142Y-95835746D02*
X107923095Y-95714794D01*
X107923095Y-95714794D02*
X108044047Y-95654318D01*
X109132618Y-96924318D02*
X109132618Y-95654318D01*
X109132618Y-95654318D02*
X109858333Y-96924318D01*
X109858333Y-96924318D02*
X109858333Y-95654318D01*
X111128333Y-96924318D02*
X110402618Y-96924318D01*
X110765475Y-96924318D02*
X110765475Y-95654318D01*
X110765475Y-95654318D02*
X110644523Y-95835746D01*
X110644523Y-95835746D02*
X110523571Y-95956699D01*
X110523571Y-95956699D02*
X110402618Y-96017175D01*
X120257857Y-96753365D02*
X120197381Y-96813842D01*
X120197381Y-96813842D02*
X120015952Y-96874318D01*
X120015952Y-96874318D02*
X119895000Y-96874318D01*
X119895000Y-96874318D02*
X119713571Y-96813842D01*
X119713571Y-96813842D02*
X119592619Y-96692889D01*
X119592619Y-96692889D02*
X119532142Y-96571937D01*
X119532142Y-96571937D02*
X119471666Y-96330032D01*
X119471666Y-96330032D02*
X119471666Y-96148603D01*
X119471666Y-96148603D02*
X119532142Y-95906699D01*
X119532142Y-95906699D02*
X119592619Y-95785746D01*
X119592619Y-95785746D02*
X119713571Y-95664794D01*
X119713571Y-95664794D02*
X119895000Y-95604318D01*
X119895000Y-95604318D02*
X120015952Y-95604318D01*
X120015952Y-95604318D02*
X120197381Y-95664794D01*
X120197381Y-95664794D02*
X120257857Y-95725270D01*
X121044047Y-95604318D02*
X121285952Y-95604318D01*
X121285952Y-95604318D02*
X121406904Y-95664794D01*
X121406904Y-95664794D02*
X121527857Y-95785746D01*
X121527857Y-95785746D02*
X121588333Y-96027651D01*
X121588333Y-96027651D02*
X121588333Y-96450984D01*
X121588333Y-96450984D02*
X121527857Y-96692889D01*
X121527857Y-96692889D02*
X121406904Y-96813842D01*
X121406904Y-96813842D02*
X121285952Y-96874318D01*
X121285952Y-96874318D02*
X121044047Y-96874318D01*
X121044047Y-96874318D02*
X120923095Y-96813842D01*
X120923095Y-96813842D02*
X120802142Y-96692889D01*
X120802142Y-96692889D02*
X120741666Y-96450984D01*
X120741666Y-96450984D02*
X120741666Y-96027651D01*
X120741666Y-96027651D02*
X120802142Y-95785746D01*
X120802142Y-95785746D02*
X120923095Y-95664794D01*
X120923095Y-95664794D02*
X121044047Y-95604318D01*
X122132618Y-96874318D02*
X122132618Y-95604318D01*
X122132618Y-95604318D02*
X122858333Y-96874318D01*
X122858333Y-96874318D02*
X122858333Y-95604318D01*
X123342142Y-95604318D02*
X124128333Y-95604318D01*
X124128333Y-95604318D02*
X123704999Y-96088127D01*
X123704999Y-96088127D02*
X123886428Y-96088127D01*
X123886428Y-96088127D02*
X124007380Y-96148603D01*
X124007380Y-96148603D02*
X124067856Y-96209080D01*
X124067856Y-96209080D02*
X124128333Y-96330032D01*
X124128333Y-96330032D02*
X124128333Y-96632413D01*
X124128333Y-96632413D02*
X124067856Y-96753365D01*
X124067856Y-96753365D02*
X124007380Y-96813842D01*
X124007380Y-96813842D02*
X123886428Y-96874318D01*
X123886428Y-96874318D02*
X123523571Y-96874318D01*
X123523571Y-96874318D02*
X123402618Y-96813842D01*
X123402618Y-96813842D02*
X123342142Y-96753365D01*
X113757857Y-96803365D02*
X113697381Y-96863842D01*
X113697381Y-96863842D02*
X113515952Y-96924318D01*
X113515952Y-96924318D02*
X113395000Y-96924318D01*
X113395000Y-96924318D02*
X113213571Y-96863842D01*
X113213571Y-96863842D02*
X113092619Y-96742889D01*
X113092619Y-96742889D02*
X113032142Y-96621937D01*
X113032142Y-96621937D02*
X112971666Y-96380032D01*
X112971666Y-96380032D02*
X112971666Y-96198603D01*
X112971666Y-96198603D02*
X113032142Y-95956699D01*
X113032142Y-95956699D02*
X113092619Y-95835746D01*
X113092619Y-95835746D02*
X113213571Y-95714794D01*
X113213571Y-95714794D02*
X113395000Y-95654318D01*
X113395000Y-95654318D02*
X113515952Y-95654318D01*
X113515952Y-95654318D02*
X113697381Y-95714794D01*
X113697381Y-95714794D02*
X113757857Y-95775270D01*
X114544047Y-95654318D02*
X114785952Y-95654318D01*
X114785952Y-95654318D02*
X114906904Y-95714794D01*
X114906904Y-95714794D02*
X115027857Y-95835746D01*
X115027857Y-95835746D02*
X115088333Y-96077651D01*
X115088333Y-96077651D02*
X115088333Y-96500984D01*
X115088333Y-96500984D02*
X115027857Y-96742889D01*
X115027857Y-96742889D02*
X114906904Y-96863842D01*
X114906904Y-96863842D02*
X114785952Y-96924318D01*
X114785952Y-96924318D02*
X114544047Y-96924318D01*
X114544047Y-96924318D02*
X114423095Y-96863842D01*
X114423095Y-96863842D02*
X114302142Y-96742889D01*
X114302142Y-96742889D02*
X114241666Y-96500984D01*
X114241666Y-96500984D02*
X114241666Y-96077651D01*
X114241666Y-96077651D02*
X114302142Y-95835746D01*
X114302142Y-95835746D02*
X114423095Y-95714794D01*
X114423095Y-95714794D02*
X114544047Y-95654318D01*
X115632618Y-96924318D02*
X115632618Y-95654318D01*
X115632618Y-95654318D02*
X116358333Y-96924318D01*
X116358333Y-96924318D02*
X116358333Y-95654318D01*
X116902618Y-95775270D02*
X116963094Y-95714794D01*
X116963094Y-95714794D02*
X117084047Y-95654318D01*
X117084047Y-95654318D02*
X117386428Y-95654318D01*
X117386428Y-95654318D02*
X117507380Y-95714794D01*
X117507380Y-95714794D02*
X117567856Y-95775270D01*
X117567856Y-95775270D02*
X117628333Y-95896222D01*
X117628333Y-95896222D02*
X117628333Y-96017175D01*
X117628333Y-96017175D02*
X117567856Y-96198603D01*
X117567856Y-96198603D02*
X116842142Y-96924318D01*
X116842142Y-96924318D02*
X117628333Y-96924318D01*
X126807857Y-96753365D02*
X126747381Y-96813842D01*
X126747381Y-96813842D02*
X126565952Y-96874318D01*
X126565952Y-96874318D02*
X126445000Y-96874318D01*
X126445000Y-96874318D02*
X126263571Y-96813842D01*
X126263571Y-96813842D02*
X126142619Y-96692889D01*
X126142619Y-96692889D02*
X126082142Y-96571937D01*
X126082142Y-96571937D02*
X126021666Y-96330032D01*
X126021666Y-96330032D02*
X126021666Y-96148603D01*
X126021666Y-96148603D02*
X126082142Y-95906699D01*
X126082142Y-95906699D02*
X126142619Y-95785746D01*
X126142619Y-95785746D02*
X126263571Y-95664794D01*
X126263571Y-95664794D02*
X126445000Y-95604318D01*
X126445000Y-95604318D02*
X126565952Y-95604318D01*
X126565952Y-95604318D02*
X126747381Y-95664794D01*
X126747381Y-95664794D02*
X126807857Y-95725270D01*
X127594047Y-95604318D02*
X127835952Y-95604318D01*
X127835952Y-95604318D02*
X127956904Y-95664794D01*
X127956904Y-95664794D02*
X128077857Y-95785746D01*
X128077857Y-95785746D02*
X128138333Y-96027651D01*
X128138333Y-96027651D02*
X128138333Y-96450984D01*
X128138333Y-96450984D02*
X128077857Y-96692889D01*
X128077857Y-96692889D02*
X127956904Y-96813842D01*
X127956904Y-96813842D02*
X127835952Y-96874318D01*
X127835952Y-96874318D02*
X127594047Y-96874318D01*
X127594047Y-96874318D02*
X127473095Y-96813842D01*
X127473095Y-96813842D02*
X127352142Y-96692889D01*
X127352142Y-96692889D02*
X127291666Y-96450984D01*
X127291666Y-96450984D02*
X127291666Y-96027651D01*
X127291666Y-96027651D02*
X127352142Y-95785746D01*
X127352142Y-95785746D02*
X127473095Y-95664794D01*
X127473095Y-95664794D02*
X127594047Y-95604318D01*
X128682618Y-96874318D02*
X128682618Y-95604318D01*
X128682618Y-95604318D02*
X129408333Y-96874318D01*
X129408333Y-96874318D02*
X129408333Y-95604318D01*
X130557380Y-96027651D02*
X130557380Y-96874318D01*
X130254999Y-95543842D02*
X129952618Y-96450984D01*
X129952618Y-96450984D02*
X130738809Y-96450984D01*
D12*
%TO.C,J3*%
X133090000Y-96090000D02*
X134110000Y-96090000D01*
X133090000Y-100340000D02*
X133090000Y-96090000D01*
X134110000Y-96090000D02*
X134110000Y-97690000D01*
X134110000Y-97690000D02*
X135390000Y-97690000D01*
X134810000Y-103910000D02*
X139490000Y-103910000D01*
X135390000Y-97690000D02*
X135390000Y-94800000D01*
X140190000Y-96090000D02*
X140190000Y-97690000D01*
X140190000Y-97690000D02*
X138910000Y-97690000D01*
X141210000Y-96090000D02*
X140190000Y-96090000D01*
X141210000Y-100340000D02*
X141210000Y-96090000D01*
%TO.C,R29*%
X145046359Y-100170000D02*
X145353641Y-100170000D01*
X145046359Y-100930000D02*
X145353641Y-100930000D01*
%TO.C,C7*%
X136665000Y-92092164D02*
X136665000Y-92307836D01*
X137385000Y-92092164D02*
X137385000Y-92307836D01*
D13*
%TO.C,D1*%
X145277500Y-76375000D02*
G75*
G02*
X145177500Y-76375000I-50000J0D01*
G01*
X145177500Y-76375000D02*
G75*
G02*
X145277500Y-76375000I50000J0D01*
G01*
D12*
%TO.C,C10*%
X138540000Y-92307836D02*
X138540000Y-92092164D01*
X139260000Y-92307836D02*
X139260000Y-92092164D01*
%TO.C,R17*%
X142403641Y-90020000D02*
X142096359Y-90020000D01*
X142403641Y-90780000D02*
X142096359Y-90780000D01*
%TO.C,U5*%
X131777500Y-92250000D02*
X131777500Y-91450000D01*
X131777500Y-92250000D02*
X131777500Y-93050000D01*
X134897500Y-92250000D02*
X134897500Y-91450000D01*
X134897500Y-92250000D02*
X134897500Y-93050000D01*
X131827500Y-93550000D02*
X131497500Y-93790000D01*
X131497500Y-93310000D01*
X131827500Y-93550000D01*
G36*
X131827500Y-93550000D02*
G01*
X131497500Y-93790000D01*
X131497500Y-93310000D01*
X131827500Y-93550000D01*
G37*
%TO.C,J1*%
X151725000Y-81290000D02*
X150025000Y-81290000D01*
X151725000Y-90630000D02*
X150025000Y-90630000D01*
%TO.C,R9*%
X148353641Y-77870000D02*
X148046359Y-77870000D01*
X148353641Y-78630000D02*
X148046359Y-78630000D01*
%TO.C,R23*%
X151003641Y-95970000D02*
X150696359Y-95970000D01*
X151003641Y-96730000D02*
X150696359Y-96730000D01*
%TO.C,TP1*%
X111660000Y-74921000D02*
X113060000Y-74921000D01*
X111660000Y-76321000D02*
X111660000Y-74921000D01*
X113060000Y-74921000D02*
X113060000Y-76321000D01*
X113060000Y-76321000D02*
X111660000Y-76321000D01*
%TO.C,C13*%
X140640000Y-92338748D02*
X140640000Y-92861252D01*
X142110000Y-92338748D02*
X142110000Y-92861252D01*
%TO.C,C14*%
X143711252Y-95415000D02*
X143188748Y-95415000D01*
X143711252Y-96885000D02*
X143188748Y-96885000D01*
%TO.C,C4*%
X130765000Y-82182836D02*
X130765000Y-81967164D01*
X131485000Y-82182836D02*
X131485000Y-81967164D01*
%TO.C,U3*%
X127450000Y-79965000D02*
X125950000Y-79965000D01*
X127450000Y-79965000D02*
X128950000Y-79965000D01*
X127450000Y-83185000D02*
X125950000Y-83185000D01*
X127450000Y-83185000D02*
X128950000Y-83185000D01*
X125237500Y-80140000D02*
X124997500Y-79810000D01*
X125477500Y-79810000D01*
X125237500Y-80140000D01*
G36*
X125237500Y-80140000D02*
G01*
X124997500Y-79810000D01*
X125477500Y-79810000D01*
X125237500Y-80140000D01*
G37*
%TO.C,J2*%
X120675000Y-98525000D02*
X120675000Y-99865000D01*
X120675000Y-102585000D02*
X120675000Y-104325000D01*
X120675000Y-104325000D02*
X127975000Y-104325000D01*
X122165000Y-98525000D02*
X120675000Y-98525000D01*
X122165000Y-98525000D02*
X122165000Y-97325000D01*
X126485000Y-98525000D02*
X127975000Y-98525000D01*
X127975000Y-98525000D02*
X127975000Y-99865000D01*
X127975000Y-104325000D02*
X127975000Y-102585000D01*
D13*
%TO.C,CON1*%
X106000000Y-86775000D02*
X106000000Y-86775000D01*
X106100000Y-86775000D02*
X106100000Y-86775000D01*
D14*
X106900000Y-84825000D02*
X110700000Y-84825000D01*
X106900000Y-94225000D02*
X110700000Y-94225000D01*
D13*
X106000000Y-86775000D02*
G75*
G02*
X106100000Y-86775000I50000J0D01*
G01*
X106100000Y-86775000D02*
G75*
G02*
X106000000Y-86775000I-50000J0D01*
G01*
D12*
%TO.C,C12*%
X139565000Y-93482836D02*
X139565000Y-93267164D01*
X140285000Y-93482836D02*
X140285000Y-93267164D01*
%TO.C,U1*%
X112715000Y-83110000D02*
X112715000Y-82885000D01*
X113440000Y-79390000D02*
X113015000Y-79390000D01*
X113440000Y-83110000D02*
X112715000Y-83110000D01*
X114710000Y-79390000D02*
X115435000Y-79390000D01*
X114710000Y-83110000D02*
X115435000Y-83110000D01*
X115435000Y-79390000D02*
X115435000Y-79615000D01*
X115435000Y-83110000D02*
X115435000Y-82885000D01*
X112715000Y-79390000D02*
X112475000Y-79060000D01*
X112955000Y-79060000D01*
X112715000Y-79390000D01*
G36*
X112715000Y-79390000D02*
G01*
X112475000Y-79060000D01*
X112955000Y-79060000D01*
X112715000Y-79390000D01*
G37*
D13*
%TO.C,CON3*%
X119050000Y-86775000D02*
X119050000Y-86775000D01*
X119150000Y-86775000D02*
X119150000Y-86775000D01*
D14*
X119950000Y-84825000D02*
X123750000Y-84825000D01*
X119950000Y-94225000D02*
X123750000Y-94225000D01*
D13*
X119050000Y-86775000D02*
G75*
G02*
X119150000Y-86775000I50000J0D01*
G01*
X119150000Y-86775000D02*
G75*
G02*
X119050000Y-86775000I-50000J0D01*
G01*
D12*
%TO.C,R16*%
X140528641Y-90045000D02*
X140221359Y-90045000D01*
X140528641Y-90805000D02*
X140221359Y-90805000D01*
%TO.C,R26*%
X114660000Y-100853641D02*
X114660000Y-100546359D01*
X115420000Y-100853641D02*
X115420000Y-100546359D01*
%TO.C,R10*%
X148021359Y-78820000D02*
X148328641Y-78820000D01*
X148021359Y-79580000D02*
X148328641Y-79580000D01*
%TO.C,R8*%
X146146359Y-79770000D02*
X146453641Y-79770000D01*
X146146359Y-80530000D02*
X146453641Y-80530000D01*
D13*
%TO.C,CON2*%
X112550000Y-86775000D02*
X112550000Y-86775000D01*
X112650000Y-86775000D02*
X112650000Y-86775000D01*
D14*
X113450000Y-84825000D02*
X117250000Y-84825000D01*
X113450000Y-94225000D02*
X117250000Y-94225000D01*
D13*
X112550000Y-86775000D02*
G75*
G02*
X112650000Y-86775000I50000J0D01*
G01*
X112650000Y-86775000D02*
G75*
G02*
X112550000Y-86775000I-50000J0D01*
G01*
D12*
%TO.C,C16*%
X143736252Y-97390000D02*
X143213748Y-97390000D01*
X143736252Y-98860000D02*
X143213748Y-98860000D01*
%TO.C,SW1*%
X152235000Y-93376000D02*
X152585000Y-93376000D01*
X152235000Y-97466000D02*
X152235000Y-93376000D01*
X152260000Y-97466000D02*
X152610000Y-97466000D01*
X153820000Y-93376000D02*
X153900000Y-93376000D01*
X153820000Y-97466000D02*
X153900000Y-97466000D01*
%TO.C,C3*%
X123290000Y-81107836D02*
X123290000Y-80892164D01*
X124010000Y-81107836D02*
X124010000Y-80892164D01*
%TO.C,C5*%
X145615580Y-82065000D02*
X145334420Y-82065000D01*
X145615580Y-83085000D02*
X145334420Y-83085000D01*
%TO.C,U6*%
X146175000Y-87002500D02*
X145125000Y-87002500D01*
X146175000Y-89322500D02*
X144875000Y-89322500D01*
X144765000Y-87002500D02*
X144485000Y-87002500D01*
X144765000Y-86722500D01*
X144765000Y-87002500D01*
G36*
X144765000Y-87002500D02*
G01*
X144485000Y-87002500D01*
X144765000Y-86722500D01*
X144765000Y-87002500D01*
G37*
%TO.C,R18*%
X146103641Y-90020000D02*
X145796359Y-90020000D01*
X146103641Y-90780000D02*
X145796359Y-90780000D01*
%TO.C,R21*%
X145946359Y-96820000D02*
X146253641Y-96820000D01*
X145946359Y-97580000D02*
X146253641Y-97580000D01*
%TO.C,R14*%
X109395000Y-82678641D02*
X109395000Y-82371359D01*
X110155000Y-82678641D02*
X110155000Y-82371359D01*
%TO.C,C11*%
X144207836Y-90040000D02*
X143992164Y-90040000D01*
X144207836Y-90760000D02*
X143992164Y-90760000D01*
%TO.C,Y1*%
X135340000Y-91035000D02*
X137860000Y-91035000D01*
X137860000Y-89315000D02*
X135340000Y-89315000D01*
X137860000Y-91035000D02*
X137860000Y-89315000D01*
%TO.C,R19*%
X143345000Y-87953641D02*
X143345000Y-87646359D01*
X144105000Y-87953641D02*
X144105000Y-87646359D01*
%TO.C,R11*%
X148021359Y-79770000D02*
X148328641Y-79770000D01*
X148021359Y-80530000D02*
X148328641Y-80530000D01*
%TO.C,C9*%
X137615000Y-92092164D02*
X137615000Y-92307836D01*
X138335000Y-92092164D02*
X138335000Y-92307836D01*
%TO.C,R12*%
X106545000Y-82678641D02*
X106545000Y-82371359D01*
X107305000Y-82678641D02*
X107305000Y-82371359D01*
%TO.C,D5*%
X132562500Y-102612500D02*
X131852500Y-102612500D01*
X132562500Y-103372500D02*
X132562500Y-102612500D01*
%TO.C,R7*%
X146453641Y-78820000D02*
X146146359Y-78820000D01*
X146453641Y-79580000D02*
X146146359Y-79580000D01*
%TO.C,SW2*%
X144430000Y-101237500D02*
X148520000Y-101237500D01*
X144430000Y-101262500D02*
X144430000Y-101612500D01*
X144430000Y-102822500D02*
X144430000Y-102902500D01*
X148520000Y-101237500D02*
X148520000Y-101587500D01*
X148520000Y-102822500D02*
X148520000Y-102902500D01*
%TO.C,R5*%
X115728641Y-78020000D02*
X115421359Y-78020000D01*
X115728641Y-78780000D02*
X115421359Y-78780000D01*
%TO.C,R22*%
X146253641Y-95870000D02*
X145946359Y-95870000D01*
X146253641Y-96630000D02*
X145946359Y-96630000D01*
%TO.C,R25*%
X112645000Y-100853641D02*
X112645000Y-100546359D01*
X113405000Y-100853641D02*
X113405000Y-100546359D01*
%TO.C,R28*%
X131695000Y-101496359D02*
X131695000Y-101803641D01*
X132455000Y-101496359D02*
X132455000Y-101803641D01*
%TO.C,R4*%
X148021359Y-75020000D02*
X148328641Y-75020000D01*
X148021359Y-75780000D02*
X148328641Y-75780000D01*
%TO.C,R20*%
X136396359Y-93245000D02*
X136703641Y-93245000D01*
X136396359Y-94005000D02*
X136703641Y-94005000D01*
%TO.C,C2*%
X113782836Y-77790000D02*
X113567164Y-77790000D01*
X113782836Y-78510000D02*
X113567164Y-78510000D01*
%TO.C,R3*%
X148328641Y-75970000D02*
X148021359Y-75970000D01*
X148328641Y-76730000D02*
X148021359Y-76730000D01*
%TO.C,Q1*%
X147100000Y-97815000D02*
X146450000Y-97815000D01*
X147100000Y-97815000D02*
X147750000Y-97815000D01*
X147100000Y-100935000D02*
X146450000Y-100935000D01*
X147100000Y-100935000D02*
X147750000Y-100935000D01*
X149299851Y-100563329D02*
X148969851Y-100323329D01*
X149299851Y-100083329D01*
X149299851Y-100563329D01*
G36*
X149299851Y-100563329D02*
G01*
X148969851Y-100323329D01*
X149299851Y-100083329D01*
X149299851Y-100563329D01*
G37*
%TO.C,R6*%
X146453641Y-77870000D02*
X146146359Y-77870000D01*
X146453641Y-78630000D02*
X146146359Y-78630000D01*
%TO.C,R2*%
X148021359Y-76920000D02*
X148328641Y-76920000D01*
X148021359Y-77680000D02*
X148328641Y-77680000D01*
%TO.C,C15*%
X130517164Y-97340000D02*
X130732836Y-97340000D01*
X130517164Y-98060000D02*
X130732836Y-98060000D01*
%TO.C,TP2*%
X113660000Y-74921000D02*
X115060000Y-74921000D01*
X113660000Y-76321000D02*
X113660000Y-74921000D01*
X115060000Y-74921000D02*
X115060000Y-76321000D01*
X115060000Y-76321000D02*
X113660000Y-76321000D01*
D15*
%TO.C,U7*%
X142610000Y-91521000D02*
X142640000Y-91521000D01*
X142610000Y-91911000D02*
X142610000Y-91521000D01*
X142610000Y-94521000D02*
X142610000Y-94131000D01*
X142610000Y-94521000D02*
X142640000Y-94521000D01*
X146610000Y-91521000D02*
X146580000Y-91521000D01*
X146610000Y-91911000D02*
X146610000Y-91521000D01*
X146610000Y-94521000D02*
X146580000Y-94521000D01*
X146610000Y-94521000D02*
X146610000Y-94131000D01*
D14*
X142660000Y-94971000D02*
G75*
G02*
X142460000Y-94971000I-100000J0D01*
G01*
X142460000Y-94971000D02*
G75*
G02*
X142660000Y-94971000I100000J0D01*
G01*
D13*
%TO.C,CON4*%
X125550000Y-86775000D02*
X125550000Y-86775000D01*
X125650000Y-86775000D02*
X125650000Y-86775000D01*
D14*
X126450000Y-84825000D02*
X130250000Y-84825000D01*
X126450000Y-94225000D02*
X130250000Y-94225000D01*
D13*
X125550000Y-86775000D02*
G75*
G02*
X125650000Y-86775000I50000J0D01*
G01*
X125650000Y-86775000D02*
G75*
G02*
X125550000Y-86775000I-50000J0D01*
G01*
D15*
%TO.C,L1*%
X147340000Y-91621000D02*
X147340000Y-95621000D01*
X151680000Y-91621000D02*
X151680000Y-95621000D01*
D12*
%TO.C,C6*%
X134282836Y-89190000D02*
X134067164Y-89190000D01*
X134282836Y-89910000D02*
X134067164Y-89910000D01*
%TO.C,R13*%
X107495000Y-82678641D02*
X107495000Y-82371359D01*
X108255000Y-82678641D02*
X108255000Y-82371359D01*
%TO.C,D2*%
X144610000Y-86568500D02*
X145910000Y-86568500D01*
X145910000Y-83448500D02*
X144640000Y-83448500D01*
X144260000Y-83498500D02*
X144020000Y-83168500D01*
X144500000Y-83168500D01*
X144260000Y-83498500D01*
G36*
X144260000Y-83498500D02*
G01*
X144020000Y-83168500D01*
X144500000Y-83168500D01*
X144260000Y-83498500D01*
G37*
%TO.C,R27*%
X113645000Y-100853641D02*
X113645000Y-100546359D01*
X114405000Y-100853641D02*
X114405000Y-100546359D01*
D15*
%TO.C,U4*%
X132550000Y-74525000D02*
X142950000Y-74525000D01*
X132550000Y-88825000D02*
X132550000Y-74525000D01*
X142950000Y-74525000D02*
X142950000Y-88825000D01*
X142950000Y-88825000D02*
X132550000Y-88825000D01*
D14*
X143300000Y-89025000D02*
G75*
G02*
X143100000Y-89025000I-100000J0D01*
G01*
X143100000Y-89025000D02*
G75*
G02*
X143300000Y-89025000I100000J0D01*
G01*
D12*
%TO.C,R1*%
X115421359Y-77070000D02*
X115728641Y-77070000D01*
X115421359Y-77830000D02*
X115728641Y-77830000D01*
%TO.C,R15*%
X108445000Y-82678641D02*
X108445000Y-82371359D01*
X109205000Y-82678641D02*
X109205000Y-82371359D01*
%TO.C,C1*%
X146217164Y-76965000D02*
X146432836Y-76965000D01*
X146217164Y-77685000D02*
X146432836Y-77685000D01*
D13*
%TO.C,D3*%
X153287500Y-91971000D02*
G75*
G02*
X153187500Y-91971000I-50000J0D01*
G01*
X153187500Y-91971000D02*
G75*
G02*
X153287500Y-91971000I50000J0D01*
G01*
D12*
%TO.C,C8*%
X135740000Y-92092164D02*
X135740000Y-92307836D01*
X136460000Y-92092164D02*
X136460000Y-92307836D01*
%TO.C,D4*%
X111965000Y-102270000D02*
X112375000Y-102270000D01*
X111965000Y-102650000D02*
X111965000Y-102270000D01*
X115015000Y-103560000D02*
G75*
G02*
X112835000Y-103560000I-1090000J346708D01*
G01*
%TO.C,R24*%
X147821359Y-96820000D02*
X148128641Y-96820000D01*
X147821359Y-97580000D02*
X148128641Y-97580000D01*
%TO.C,U2*%
X122060000Y-82510000D02*
X122060000Y-82970000D01*
X122060000Y-78990000D02*
X122060000Y-79690000D01*
X121360000Y-83210000D02*
X121760000Y-83210000D01*
X121360000Y-78990000D02*
X122060000Y-78990000D01*
X118540000Y-83210000D02*
X117840000Y-83210000D01*
X118540000Y-78990000D02*
X117840000Y-78990000D01*
X117840000Y-83210000D02*
X117840000Y-82510000D01*
X117840000Y-78990000D02*
X117840000Y-79690000D01*
X122300000Y-83540000D02*
X121820000Y-83540000D01*
X122060000Y-83210000D01*
X122300000Y-83540000D01*
G36*
X122300000Y-83540000D02*
G01*
X121820000Y-83540000D01*
X122060000Y-83210000D01*
X122300000Y-83540000D01*
G37*
%TD*%
M02*
