%TF.GenerationSoftware,KiCad,Pcbnew,9.0.4*%
%TF.CreationDate,2025-09-08T17:38:28-04:00*%
%TF.ProjectId,CPU1-NRF5340-uBlox-NORA,43505531-2d4e-4524-9635-3334302d7542,A*%
%TF.SameCoordinates,Original*%
%TF.FileFunction,Copper,L2,Inr*%
%TF.FilePolarity,Positive*%
%FSLAX46Y46*%
G04 Gerber Fmt 4.6, Leading zero omitted, Abs format (unit mm)*
G04 Created by KiCad (PCBNEW 9.0.4) date 2025-09-08 17:38:28*
%MOMM*%
%LPD*%
G01*
G04 APERTURE LIST*
%TA.AperFunction,HeatsinkPad*%
%ADD10O,2.100000X1.000000*%
%TD*%
%TA.AperFunction,HeatsinkPad*%
%ADD11O,1.800000X1.000000*%
%TD*%
%TA.AperFunction,ComponentPad*%
%ADD12R,1.000000X1.000000*%
%TD*%
%TA.AperFunction,ViaPad*%
%ADD13C,0.450000*%
%TD*%
%TA.AperFunction,Conductor*%
%ADD14C,0.127000*%
%TD*%
%TA.AperFunction,Conductor*%
%ADD15C,0.500000*%
%TD*%
G04 APERTURE END LIST*
D10*
%TO.N,GND*%
%TO.C,J1*%
X148720000Y-90280000D03*
D11*
X152900000Y-90280000D03*
D10*
X148720000Y-81640000D03*
D11*
X152900000Y-81640000D03*
%TD*%
D12*
%TO.N,Net-(U2-IO7)*%
%TO.C,TP1*%
X112360000Y-75621000D03*
%TD*%
%TO.N,/P0.31*%
%TO.C,TP2*%
X114360000Y-75621000D03*
%TD*%
D13*
%TO.N,/VBUS*%
X132000000Y-88050000D03*
%TO.N,unconnected-(U4-VBUS-PadB9)*%
X132000000Y-87100000D03*
%TO.N,/VBUSMON*%
X117950000Y-77400000D03*
X113188105Y-78812000D03*
%TO.N,/PGOOD*%
X117396000Y-83057426D03*
%TO.N,/PSEN*%
X117300000Y-96250000D03*
X116747009Y-83203802D03*
%TO.N,/AIN7*%
X125323600Y-79349600D03*
X122021600Y-91998800D03*
%TO.N,/PSMODE*%
X118250000Y-79300000D03*
%TO.N,GND*%
X107425000Y-85800000D03*
X142150000Y-75175000D03*
X127000000Y-85775000D03*
X144450000Y-86850000D03*
X153225000Y-97200000D03*
X138150000Y-97900000D03*
X147675000Y-79200000D03*
X141050000Y-75175000D03*
X138875000Y-91725000D03*
X138150000Y-96550000D03*
X142150000Y-76675000D03*
X113195000Y-77600000D03*
X146275000Y-93575000D03*
X138300000Y-83675000D03*
X112150000Y-82550000D03*
X123200000Y-93275000D03*
X107300000Y-86775000D03*
X127000000Y-93275000D03*
X127975000Y-101250000D03*
X114025000Y-93275000D03*
X141725000Y-90400000D03*
X128400000Y-81250000D03*
X146275000Y-92500000D03*
X134450000Y-75175000D03*
X110125000Y-85800000D03*
X131100000Y-97700000D03*
X137025000Y-92700000D03*
X141050000Y-86975000D03*
X133325000Y-93400000D03*
X126850000Y-86775000D03*
X143625000Y-90382500D03*
X142925000Y-93550000D03*
X153225000Y-93650000D03*
X146800000Y-80150000D03*
X142500000Y-96150000D03*
X137750000Y-78169000D03*
X129700000Y-93275000D03*
X107450000Y-93275000D03*
X135550000Y-78169000D03*
X148700000Y-75425000D03*
X123200000Y-85775000D03*
X120700000Y-101250000D03*
X106900000Y-82000000D03*
X138300000Y-82575000D03*
X122650000Y-82100000D03*
X113875000Y-86800000D03*
X116100000Y-77425000D03*
X148275000Y-102250000D03*
X112150000Y-82000000D03*
X133725000Y-89550000D03*
X123650002Y-80520000D03*
X129725000Y-85800000D03*
X142925000Y-92450000D03*
X148025000Y-98425000D03*
X146625000Y-97225000D03*
X137075000Y-93650000D03*
X144675000Y-102275000D03*
X108825000Y-82000000D03*
X113975000Y-85775000D03*
X134450000Y-78169000D03*
X137200000Y-82575000D03*
X139925000Y-92900000D03*
X113821537Y-83600000D03*
X120475000Y-85775000D03*
X143400000Y-95800000D03*
X133350000Y-75175000D03*
X139875000Y-90425000D03*
X120500000Y-93275000D03*
X134450000Y-86975000D03*
X110175000Y-93275000D03*
X116675000Y-93275000D03*
X116700000Y-85775000D03*
X144700000Y-82575000D03*
X142525000Y-98125000D03*
X141025000Y-78169000D03*
X109775000Y-82014998D03*
X148700000Y-77300000D03*
X126450000Y-81900000D03*
X133350000Y-76675000D03*
X148026284Y-89176284D03*
X148025000Y-82775000D03*
X120375000Y-86800000D03*
X147675000Y-80175000D03*
X107850000Y-82000000D03*
X142925000Y-92975000D03*
X128400000Y-81850000D03*
X146275000Y-93100000D03*
X127000000Y-98000000D03*
X146825000Y-77325000D03*
X120275002Y-78350000D03*
X131125000Y-81600000D03*
X141375000Y-93550000D03*
X137200000Y-83675000D03*
X138150000Y-95375000D03*
X144600000Y-93000000D03*
X142150000Y-88075000D03*
X139950000Y-78169000D03*
X122650000Y-80750000D03*
X136100000Y-92700000D03*
X122650000Y-81425000D03*
X137950000Y-92700000D03*
X133325000Y-88075000D03*
X144250000Y-84275000D03*
%TO.N,+3.3V*%
X121775000Y-97465500D03*
X131125000Y-82525000D03*
X144700000Y-100550000D03*
%TO.N,Net-(U1-X)*%
X113131197Y-84281197D03*
%TO.N,+3.3V*%
X145850000Y-76400000D03*
X128400000Y-82550000D03*
X119649256Y-83659499D03*
%TO.N,Net-(U1-X)*%
X112000000Y-80150000D03*
%TO.N,+3.3V*%
X135549999Y-86975001D03*
X123650002Y-81480000D03*
X134700000Y-89550000D03*
X146625000Y-96250000D03*
X144425000Y-98125000D03*
X114150000Y-77550000D03*
X116825000Y-87300000D03*
X110275000Y-87275000D03*
X144625000Y-94500000D03*
X123350000Y-87325000D03*
X112050000Y-101475000D03*
X114300000Y-78900000D03*
X134450000Y-88075000D03*
X145525000Y-95325000D03*
X130150000Y-97725000D03*
X146850000Y-78250000D03*
X135550000Y-88050000D03*
X144400000Y-96150000D03*
X150325000Y-96375000D03*
X129849999Y-87274999D03*
%TO.N,/AIN5*%
X140098327Y-99461500D03*
X141050000Y-81475000D03*
X107625000Y-95350000D03*
%TO.N,/AIN2*%
X134483767Y-96322082D03*
X135550000Y-83675000D03*
X109014634Y-94694240D03*
%TO.N,/P1.13*%
X133350000Y-81475000D03*
X111850000Y-91776000D03*
X114898399Y-83927062D03*
%TO.N,/AIN6*%
X139950000Y-80375000D03*
X110300000Y-91275000D03*
X111650000Y-84725000D03*
%TO.N,/HK-ADC3*%
X115120619Y-87075095D03*
X109786304Y-83081000D03*
X115930517Y-81562774D03*
X125627722Y-88700500D03*
%TO.N,/AIN7*%
X134450000Y-79275000D03*
X107300000Y-91775000D03*
%TO.N,/AIN1*%
X106150000Y-95275000D03*
X132065500Y-96527549D03*
X134450000Y-83675000D03*
%TO.N,/AIN0*%
X112675000Y-86075000D03*
X134450000Y-84775000D03*
%TO.N,/AIN3*%
X139950000Y-84775000D03*
X138875906Y-100629007D03*
X106950000Y-96250000D03*
%TO.N,/AIN4*%
X111525000Y-86275000D03*
X139950000Y-81475000D03*
%TO.N,/P1.06*%
X117585478Y-84294426D03*
X142150000Y-81475000D03*
%TO.N,/P1.04*%
X117607358Y-84947062D03*
X132170821Y-83132997D03*
%TO.N,/P1.01*%
X138850000Y-85875000D03*
X115119000Y-89705604D03*
X115011092Y-86509012D03*
%TO.N,/P1.08*%
X132165532Y-82524000D03*
X118590358Y-84827036D03*
%TO.N,/P1.07*%
X135550000Y-82575000D03*
X135250000Y-100075000D03*
X116971203Y-99584500D03*
X113850000Y-91775000D03*
%TO.N,/SCL*%
X116850000Y-88275000D03*
X139950000Y-88075000D03*
X139719000Y-96650000D03*
X117796613Y-99259500D03*
%TO.N,/SDA*%
X138148687Y-89161999D03*
X115119000Y-88705257D03*
X138850000Y-86975000D03*
%TO.N,/P1.05*%
X133350000Y-83675000D03*
X116200000Y-84400000D03*
X115084614Y-90865257D03*
%TO.N,/HK-ADC2*%
X114966729Y-87631197D03*
X115950000Y-79750000D03*
X119025000Y-87900000D03*
X108825000Y-83050000D03*
%TO.N,/P0.30*%
X134111500Y-95039449D03*
X134450000Y-80375000D03*
%TO.N,/SPI-MISO*%
X142150000Y-85875000D03*
X124916453Y-86503500D03*
%TO.N,/SPI-CS*%
X139950000Y-86975000D03*
X121550000Y-86775000D03*
%TO.N,/SPI-DCX*%
X125180703Y-88285000D03*
X141050000Y-88075000D03*
%TO.N,/P0.21*%
X124113500Y-84522881D03*
X139950000Y-83675000D03*
%TO.N,/P0.29*%
X134678999Y-95723253D03*
X135550000Y-80375000D03*
%TO.N,/HK-ADC1*%
X113850000Y-87775000D03*
X107850000Y-83025000D03*
X108525000Y-87600000D03*
X116024416Y-80407760D03*
%TO.N,/SPI-MOSI*%
X121923976Y-85699127D03*
X141050000Y-85875000D03*
%TO.N,/P0.24*%
X141778553Y-94885253D03*
X127878661Y-97235983D03*
X142150000Y-80375000D03*
%TO.N,/SPI-SCK*%
X142150000Y-86975000D03*
X124450727Y-87607000D03*
%TO.N,/QSPI-IO3*%
X141175000Y-92675000D03*
X141050000Y-82575000D03*
%TO.N,/QSPI-SCK*%
X129850000Y-88275000D03*
X143303434Y-86525000D03*
X142150002Y-82575000D03*
%TO.N,/QSPI-IO1*%
X139743000Y-89148379D03*
X141050000Y-83675000D03*
X126850000Y-89775000D03*
%TO.N,/QSPI-IO2*%
X141000000Y-94950000D03*
X131234500Y-95337656D03*
X131052175Y-90935219D03*
X142150000Y-84775000D03*
%TO.N,/HK-ADC0*%
X115882027Y-80973493D03*
X110650000Y-83575000D03*
X110650000Y-82619500D03*
X106900000Y-83050000D03*
X107300000Y-87775000D03*
%TO.N,/P0.02-NFC1*%
X137750000Y-85875000D03*
X138737055Y-94189135D03*
%TO.N,/P0.19*%
X139950000Y-82575000D03*
X140325000Y-92257000D03*
%TO.N,/QSPI-CSN*%
X128294669Y-84461000D03*
X142150000Y-83675000D03*
%TO.N,/P0.03-NFC2*%
X128507000Y-93869222D03*
X137800000Y-93350000D03*
X137750000Y-86975000D03*
%TO.N,/DP*%
X149075000Y-86250000D03*
X149075000Y-85250000D03*
%TO.N,/VBUS*%
X143725000Y-88310000D03*
X130252500Y-103372500D03*
X146250000Y-82575000D03*
X134287500Y-91112500D03*
X148025000Y-88375000D03*
X147000000Y-89000000D03*
X148025000Y-83575000D03*
X137975000Y-91725000D03*
%TO.N,/VBAT*%
X134287499Y-93387499D03*
X147000000Y-88375000D03*
X115501503Y-93861560D03*
X116085000Y-78400000D03*
X136125000Y-96525000D03*
X138900000Y-92700000D03*
%TO.N,/DISPON*%
X119074691Y-78375309D03*
X119106000Y-97300000D03*
%TO.N,/CC2*%
X147665000Y-78250000D03*
X112114958Y-80812561D03*
%TO.N,/CC1*%
X147665000Y-76350000D03*
X112300000Y-79500000D03*
%TO.N,/PSEN*%
X146460000Y-90400000D03*
X129800000Y-97025000D03*
%TO.N,/PSMODE*%
X118100000Y-95250000D03*
X142760000Y-90400000D03*
X140750000Y-95525000D03*
%TO.N,/P1.15*%
X133350000Y-82575000D03*
X132319500Y-100380372D03*
%TO.N,/P1.14*%
X132775000Y-99750000D03*
X134450000Y-82575000D03*
%TO.N,/P1.12*%
X133874379Y-100137588D03*
X134450000Y-81475000D03*
%TO.N,/PGOOD*%
X143100000Y-91550000D03*
X148485000Y-97200000D03*
X143725000Y-100500000D03*
X118700000Y-98505500D03*
%TO.N,Net-(U5-STAT)*%
X132075000Y-101140000D03*
X132400000Y-93425000D03*
%TO.N,/RESET*%
X118432233Y-82938011D03*
X142900000Y-99325000D03*
X154510000Y-93621000D03*
X119425000Y-97800000D03*
X145815000Y-78250000D03*
%TO.N,/USER*%
X135550000Y-84775000D03*
X137065500Y-99790500D03*
%TO.N,/P1.09*%
X126596856Y-80784462D03*
X135550000Y-81475000D03*
%TO.N,/SYS*%
X145100000Y-91550000D03*
X145450000Y-90400000D03*
X141375000Y-91650000D03*
X145600000Y-87912500D03*
X144575000Y-90425000D03*
X144675000Y-91506105D03*
%TO.N,/P1.00*%
X116850000Y-89275000D03*
X118171539Y-98794000D03*
X138850000Y-88075000D03*
X139681532Y-98074266D03*
%TO.N,/QSPI-IO0*%
X131444540Y-84535000D03*
X141050000Y-84775000D03*
%TO.N,/SWDCLK*%
X141504444Y-99226643D03*
X141025000Y-79275000D03*
%TO.N,/RxD*%
X136150000Y-100225000D03*
X134450000Y-85875000D03*
%TO.N,/TxD*%
X137250000Y-100900000D03*
X137750000Y-88075000D03*
%TO.N,/SWDIO*%
X141050000Y-80375000D03*
X140900000Y-99019901D03*
%TO.N,/P1.10*%
X135550000Y-79275000D03*
X120950000Y-82939298D03*
X129475000Y-79379000D03*
%TO.N,/P1.11*%
X133350000Y-80375000D03*
X127175000Y-79650000D03*
%TD*%
D14*
%TO.N,/PSMODE*%
X118821711Y-82632403D02*
X118821711Y-79871711D01*
X119081858Y-82892550D02*
X118821711Y-82632403D01*
X118793944Y-85318536D02*
X119081858Y-85030622D01*
X119081858Y-85030622D02*
X119081858Y-82892550D01*
X118821711Y-79871711D02*
X118250000Y-79300000D01*
X118666113Y-85318536D02*
X118793944Y-85318536D01*
X118100000Y-85884649D02*
X118666113Y-85318536D01*
X118100000Y-95250000D02*
X118100000Y-85884649D01*
%TO.N,Net-(U1-X)*%
X113350000Y-84062394D02*
X113131197Y-84281197D01*
X112872032Y-80522032D02*
X113350000Y-81000000D01*
X112100000Y-80150000D02*
X112472032Y-80522032D01*
X112000000Y-80150000D02*
X112100000Y-80150000D01*
X113350000Y-81000000D02*
X113350000Y-84062394D01*
X112472032Y-80522032D02*
X112872032Y-80522032D01*
%TO.N,/VBAT*%
X115538440Y-93861560D02*
X115501503Y-93861560D01*
X116085000Y-93315000D02*
X115538440Y-93861560D01*
X116792001Y-81317979D02*
X115458500Y-82651480D01*
X116792000Y-81093002D02*
X116792001Y-81317979D01*
X117083900Y-79718899D02*
X117083900Y-80801102D01*
X116085000Y-78719999D02*
X117083900Y-79718899D01*
X115458500Y-82651480D02*
X115458500Y-84552000D01*
X116085000Y-78400000D02*
X116085000Y-78719999D01*
X115458500Y-84552000D02*
X116085000Y-85178500D01*
X117083900Y-80801102D02*
X116792000Y-81093002D01*
X116085000Y-85178500D02*
X116085000Y-93315000D01*
%TO.N,/AIN7*%
X124141502Y-80328498D02*
X125120400Y-79349600D01*
X124141502Y-80723586D02*
X124141502Y-80328498D01*
X124141502Y-81683586D02*
X124141502Y-81276414D01*
X123698000Y-82127088D02*
X124141502Y-81683586D01*
X123698000Y-84886800D02*
X123698000Y-82127088D01*
X123952000Y-85140800D02*
X123698000Y-84886800D01*
X123952000Y-90068400D02*
X123952000Y-85140800D01*
X122021600Y-91998800D02*
X123952000Y-90068400D01*
X125120400Y-79349600D02*
X125323600Y-79349600D01*
X123865088Y-81000000D02*
X124141502Y-80723586D01*
X124141502Y-81276414D02*
X123865088Y-81000000D01*
D15*
%TO.N,/SYS*%
X144575000Y-90425000D02*
X145600000Y-89400000D01*
X145600000Y-89400000D02*
X145600000Y-87912500D01*
D14*
%TO.N,/AIN3*%
X139107112Y-100397801D02*
X138875906Y-100629007D01*
X139107112Y-96756512D02*
X139107112Y-100397801D01*
X139286000Y-96577624D02*
X139107112Y-96756512D01*
X139286000Y-94150473D02*
X139286000Y-96577624D01*
X138458500Y-91253500D02*
X138458500Y-93322973D01*
X138775000Y-90937000D02*
X138458500Y-91253500D01*
X138775000Y-88887962D02*
X138775000Y-90937000D01*
X139533500Y-88129462D02*
X138775000Y-88887962D01*
X139533500Y-87902480D02*
X139533500Y-88129462D01*
X139568000Y-87867980D02*
X139533500Y-87902480D01*
X139568000Y-87182020D02*
X139568000Y-87867980D01*
X139533500Y-87147520D02*
X139568000Y-87182020D01*
X139950000Y-86385980D02*
X139533500Y-86802480D01*
X139950000Y-84775000D02*
X139950000Y-86385980D01*
X139533500Y-86802480D02*
X139533500Y-87147520D01*
X138458500Y-93322973D02*
X139286000Y-94150473D01*
%TO.N,/PSEN*%
X130065499Y-96759501D02*
X129800000Y-97025000D01*
X136025000Y-101500000D02*
X131284501Y-96759501D01*
X139975000Y-101500000D02*
X136025000Y-101500000D01*
X143150000Y-98325000D02*
X139975000Y-101500000D01*
X143891500Y-94644480D02*
X143891500Y-96003586D01*
X146460000Y-90400000D02*
X145800000Y-91060000D01*
X131284501Y-96759501D02*
X130065499Y-96759501D01*
X145800000Y-92735980D02*
X143891500Y-94644480D01*
X143150000Y-96745086D02*
X143150000Y-98325000D01*
X145800000Y-91060000D02*
X145800000Y-92735980D01*
X143891500Y-96003586D02*
X143150000Y-96745086D01*
%TO.N,/AIN5*%
X141466500Y-83847520D02*
X141432000Y-83882020D01*
X141466500Y-83502480D02*
X141466500Y-83847520D01*
X141466500Y-88933500D02*
X140974921Y-89425079D01*
X141432000Y-83882020D02*
X141432000Y-84567980D01*
X140974921Y-91354272D02*
X140754193Y-91575000D01*
X141466500Y-85702480D02*
X141466500Y-86047520D01*
X141466500Y-87359500D02*
X141466500Y-88933500D01*
X140284500Y-96434500D02*
X140284500Y-99275327D01*
X141466500Y-82402480D02*
X141466500Y-82747520D01*
X141466500Y-82747520D02*
X141432000Y-82782020D01*
X141432000Y-86767980D02*
X141466500Y-86802480D01*
X141432000Y-84982020D02*
X141432000Y-85667980D01*
X140974921Y-89425079D02*
X140974921Y-91354272D01*
X141432000Y-82782020D02*
X141432000Y-83467980D01*
X139900000Y-94826624D02*
X139900000Y-96050000D01*
X141432000Y-85667980D02*
X141466500Y-85702480D01*
X141432000Y-86082020D02*
X141432000Y-86767980D01*
X141466500Y-86047520D02*
X141432000Y-86082020D01*
X141432000Y-83467980D02*
X141466500Y-83502480D01*
X140754193Y-91575000D02*
X140754193Y-93972431D01*
X141432000Y-84567980D02*
X141466500Y-84602480D01*
X141432000Y-87325000D02*
X141466500Y-87359500D01*
X140284500Y-99275327D02*
X140098327Y-99461500D01*
X139900000Y-96050000D02*
X140284500Y-96434500D01*
X141466500Y-87147520D02*
X141432000Y-87182020D01*
X141050000Y-81985980D02*
X141466500Y-82402480D01*
X141432000Y-87182020D02*
X141432000Y-87325000D01*
X141050000Y-81475000D02*
X141050000Y-81985980D01*
X141466500Y-84602480D02*
X141466500Y-84947520D01*
X141466500Y-86802480D02*
X141466500Y-87147520D01*
X141466500Y-84947520D02*
X141432000Y-84982020D01*
X140754193Y-93972431D02*
X139900000Y-94826624D01*
%TO.N,/AIN2*%
X135150000Y-95950000D02*
X134777918Y-96322082D01*
X135133500Y-93933500D02*
X135150000Y-93950000D01*
X135550000Y-83675000D02*
X135133500Y-84091500D01*
X135133500Y-84091500D02*
X135133500Y-93933500D01*
X134777918Y-96322082D02*
X134483767Y-96322082D01*
X135150000Y-93950000D02*
X135150000Y-95950000D01*
%TO.N,/AIN1*%
X132450000Y-85125000D02*
X133307010Y-84267990D01*
X133857010Y-84267990D02*
X134450000Y-83675000D01*
X132450000Y-91200837D02*
X132450000Y-85125000D01*
X133307010Y-84267990D02*
X133857010Y-84267990D01*
X132065500Y-96527549D02*
X131975837Y-96437886D01*
X131975837Y-96437886D02*
X131975837Y-91675000D01*
X131975837Y-91675000D02*
X132450000Y-91200837D01*
%TO.N,/P1.07*%
X135550000Y-83002000D02*
X136000000Y-83452000D01*
X135350000Y-96259210D02*
X135350000Y-99975000D01*
X136000000Y-83452000D02*
X136000000Y-88979000D01*
X135429000Y-89550000D02*
X135429000Y-96180210D01*
X136000000Y-88979000D02*
X135429000Y-89550000D01*
X135350000Y-99975000D02*
X135250000Y-100075000D01*
X135550000Y-82575000D02*
X135550000Y-83002000D01*
X135429000Y-96180210D02*
X135350000Y-96259210D01*
%TO.N,/SCL*%
X139541000Y-94044849D02*
X139458500Y-93962349D01*
X139230466Y-88794534D02*
X139950000Y-88075000D01*
X139458500Y-89560307D02*
X139230466Y-89332273D01*
X139541000Y-96472000D02*
X139541000Y-94044849D01*
X139230466Y-89332273D02*
X139230466Y-88794534D01*
X139719000Y-96650000D02*
X139541000Y-96472000D01*
X139458500Y-93962349D02*
X139458500Y-89560307D01*
%TO.N,/SDA*%
X138205938Y-87192062D02*
X138205938Y-89104748D01*
X138850000Y-86975000D02*
X138423000Y-86975000D01*
X138423000Y-86975000D02*
X138205938Y-87192062D01*
X138205938Y-89104748D02*
X138148687Y-89161999D01*
%TO.N,/P0.29*%
X134283500Y-90527480D02*
X134283500Y-88808500D01*
X134875000Y-82657000D02*
X135082000Y-82450000D01*
X134875000Y-83839020D02*
X134875000Y-82657000D01*
X133925000Y-84710980D02*
X134277480Y-84358500D01*
X133925000Y-88450000D02*
X133925000Y-84710980D01*
X134678999Y-95017928D02*
X133871000Y-94209929D01*
X134678999Y-95723253D02*
X134678999Y-95017928D01*
X135082000Y-80843000D02*
X135550000Y-80375000D01*
X133871000Y-90939980D02*
X134283500Y-90527480D01*
X134277480Y-84358500D02*
X134355520Y-84358500D01*
X134355520Y-84358500D02*
X134875000Y-83839020D01*
X134283500Y-88808500D02*
X133925000Y-88450000D01*
X135082000Y-82450000D02*
X135082000Y-80843000D01*
X133871000Y-94209929D02*
X133871000Y-90939980D01*
%TO.N,/HK-ADC1*%
X108075000Y-83250000D02*
X108075000Y-87150000D01*
X107850000Y-83025000D02*
X108075000Y-83250000D01*
X108075000Y-87150000D02*
X108525000Y-87600000D01*
%TO.N,/P0.24*%
X141768000Y-84567980D02*
X141733500Y-84602480D01*
X141733500Y-81647520D02*
X141768000Y-81682020D01*
X141733500Y-87902480D02*
X141733500Y-88247520D01*
X141768000Y-85667980D02*
X141733500Y-85702480D01*
X141733500Y-83847520D02*
X141768000Y-83882020D01*
X142141500Y-90227480D02*
X142141500Y-94557662D01*
X141768000Y-87867980D02*
X141733500Y-87902480D01*
X141733500Y-88247520D02*
X141977480Y-88491500D01*
X142026270Y-88491500D02*
X142107000Y-88572230D01*
X141733500Y-85702480D02*
X141733500Y-86047520D01*
X142141500Y-94557662D02*
X141813909Y-94885253D01*
X142150000Y-80375000D02*
X142150000Y-80885980D01*
X142107000Y-90192980D02*
X142141500Y-90227480D01*
X141733500Y-87147520D02*
X141768000Y-87182020D01*
X141733500Y-84602480D02*
X141733500Y-84947520D01*
X141977480Y-88491500D02*
X142026270Y-88491500D01*
X141768000Y-82782018D02*
X141768000Y-83467980D01*
X141768000Y-83882020D02*
X141768000Y-84567980D01*
X141733500Y-81302480D02*
X141733500Y-81647520D01*
X141768000Y-86767980D02*
X141733500Y-86802480D01*
X141733502Y-82747520D02*
X141768000Y-82782018D01*
X142107000Y-88572230D02*
X142107000Y-90192980D01*
X141768000Y-87182020D02*
X141768000Y-87867980D01*
X141733500Y-84947520D02*
X141768000Y-84982020D01*
X141733502Y-82402480D02*
X141733502Y-82747520D01*
X141768000Y-83467980D02*
X141733500Y-83502480D01*
X141733500Y-86047520D02*
X141768000Y-86082020D01*
X141768000Y-81682020D02*
X141768000Y-82367982D01*
X141733500Y-86802480D02*
X141733500Y-87147520D01*
X141768000Y-82367982D02*
X141733502Y-82402480D01*
X141768000Y-84982020D02*
X141768000Y-85667980D01*
X141813909Y-94885253D02*
X141778553Y-94885253D01*
X142150000Y-80885980D02*
X141733500Y-81302480D01*
X141733500Y-83502480D02*
X141733500Y-83847520D01*
X141768000Y-86082020D02*
X141768000Y-86767980D01*
%TO.N,/HK-ADC0*%
X106475000Y-86925000D02*
X107300000Y-87750000D01*
X106475000Y-83475000D02*
X106475000Y-86925000D01*
X107300000Y-87750000D02*
X107300000Y-87775000D01*
X106900000Y-83050000D02*
X106475000Y-83475000D01*
%TO.N,/P0.19*%
X140414000Y-82612000D02*
X140414000Y-89023235D01*
X140584159Y-89193394D02*
X140584159Y-90397841D01*
X140377000Y-82575000D02*
X140414000Y-82612000D01*
X140325000Y-92208307D02*
X140325000Y-92257000D01*
X140414000Y-89023235D02*
X140584159Y-89193394D01*
X140332000Y-90650000D02*
X140332000Y-92201307D01*
X140332000Y-92201307D02*
X140325000Y-92208307D01*
X140584159Y-90397841D02*
X140332000Y-90650000D01*
X139950000Y-82575000D02*
X140377000Y-82575000D01*
%TD*%
%TA.AperFunction,Conductor*%
%TO.N,/PSMODE*%
G36*
X118441694Y-79185973D02*
G01*
X118442657Y-79187740D01*
X118606840Y-79562922D01*
X118607017Y-79571875D01*
X118604394Y-79575886D01*
X118525886Y-79654394D01*
X118517613Y-79657821D01*
X118512922Y-79656840D01*
X118137740Y-79492657D01*
X118131535Y-79486200D01*
X118131712Y-79477247D01*
X118132671Y-79475485D01*
X118247981Y-79301274D01*
X118251274Y-79297981D01*
X118425481Y-79182674D01*
X118434271Y-79180966D01*
X118441694Y-79185973D01*
G37*
%TD.AperFunction*%
%TD*%
%TA.AperFunction,Conductor*%
%TO.N,/PSMODE*%
G36*
X118163787Y-94807750D02*
G01*
X118166410Y-94811761D01*
X118315609Y-95193151D01*
X118315432Y-95202104D01*
X118308975Y-95208309D01*
X118307045Y-95208878D01*
X118102332Y-95250525D01*
X118097668Y-95250525D01*
X117892954Y-95208878D01*
X117885530Y-95203871D01*
X117883821Y-95195081D01*
X117884388Y-95193157D01*
X118033590Y-94811760D01*
X118039795Y-94805304D01*
X118044486Y-94804323D01*
X118155514Y-94804323D01*
X118163787Y-94807750D01*
G37*
%TD.AperFunction*%
%TD*%
%TA.AperFunction,Conductor*%
%TO.N,Net-(U1-X)*%
G36*
X113408127Y-83929578D02*
G01*
X113411554Y-83937851D01*
X113411417Y-83939637D01*
X113353730Y-84313072D01*
X113349080Y-84320725D01*
X113340381Y-84322849D01*
X113339935Y-84322771D01*
X113136000Y-84283130D01*
X113128532Y-84278188D01*
X113012980Y-84104326D01*
X113011254Y-84095539D01*
X113016248Y-84088106D01*
X113016691Y-84087825D01*
X113283723Y-83927814D01*
X113289737Y-83926151D01*
X113399854Y-83926151D01*
X113408127Y-83929578D01*
G37*
%TD.AperFunction*%
%TD*%
%TA.AperFunction,Conductor*%
%TO.N,Net-(U1-X)*%
G36*
X112193370Y-80034864D02*
G01*
X112193479Y-80035032D01*
X112397137Y-80354464D01*
X112398696Y-80363282D01*
X112395545Y-80369027D01*
X112316959Y-80447613D01*
X112308686Y-80451040D01*
X112306078Y-80450745D01*
X112215486Y-80430019D01*
X111967148Y-80373203D01*
X111959847Y-80368018D01*
X111958273Y-80359560D01*
X111998354Y-80154101D01*
X112003301Y-80146639D01*
X112177156Y-80031565D01*
X112185947Y-80029857D01*
X112193370Y-80034864D01*
G37*
%TD.AperFunction*%
%TD*%
%TA.AperFunction,Conductor*%
%TO.N,/VBAT*%
G36*
X115792155Y-93522925D02*
G01*
X115795479Y-93525254D01*
X115874010Y-93603785D01*
X115877437Y-93612058D01*
X115876168Y-93617358D01*
X115694528Y-93974862D01*
X115687725Y-93980685D01*
X115678797Y-93979993D01*
X115677639Y-93979318D01*
X115504883Y-93864972D01*
X115499876Y-93857549D01*
X115499857Y-93857456D01*
X115459523Y-93650701D01*
X115461303Y-93641925D01*
X115467008Y-93637465D01*
X115783209Y-93522531D01*
X115792155Y-93522925D01*
G37*
%TD.AperFunction*%
%TD*%
%TA.AperFunction,Conductor*%
%TO.N,/VBAT*%
G36*
X116089041Y-78400249D02*
G01*
X116293421Y-78441425D01*
X116300853Y-78446419D01*
X116302579Y-78455206D01*
X116302400Y-78455961D01*
X116219584Y-78760960D01*
X116216566Y-78766167D01*
X116138808Y-78843925D01*
X116130535Y-78847352D01*
X116122262Y-78843925D01*
X116120962Y-78842379D01*
X115904776Y-78534760D01*
X115902823Y-78526021D01*
X115907622Y-78518460D01*
X115907764Y-78518361D01*
X116080237Y-78402029D01*
X116089012Y-78400244D01*
X116089041Y-78400249D01*
G37*
%TD.AperFunction*%
%TD*%
%TA.AperFunction,Conductor*%
%TO.N,/AIN3*%
G36*
X139164780Y-100282526D02*
G01*
X139168207Y-100290799D01*
X139168006Y-100292961D01*
X139098757Y-100661332D01*
X139093860Y-100668829D01*
X139085096Y-100670669D01*
X139085026Y-100670655D01*
X138880709Y-100630940D01*
X138873241Y-100625998D01*
X138757910Y-100452470D01*
X138756185Y-100443684D01*
X138761179Y-100436251D01*
X138761941Y-100435785D01*
X139040960Y-100280573D01*
X139046648Y-100279099D01*
X139156507Y-100279099D01*
X139164780Y-100282526D01*
G37*
%TD.AperFunction*%
%TD*%
%TA.AperFunction,Conductor*%
%TO.N,/AIN3*%
G36*
X140157046Y-84816121D02*
G01*
X140164469Y-84821128D01*
X140166178Y-84829918D01*
X140165609Y-84831848D01*
X140016410Y-85213239D01*
X140010205Y-85219696D01*
X140005514Y-85220677D01*
X139894486Y-85220677D01*
X139886213Y-85217250D01*
X139883590Y-85213239D01*
X139734390Y-84831848D01*
X139734567Y-84822895D01*
X139741024Y-84816690D01*
X139742944Y-84816123D01*
X139947670Y-84774474D01*
X139952330Y-84774474D01*
X140157046Y-84816121D01*
G37*
%TD.AperFunction*%
%TD*%
%TA.AperFunction,Conductor*%
%TO.N,/PSEN*%
G36*
X130129688Y-96701280D02*
G01*
X130135254Y-96708295D01*
X130135703Y-96711506D01*
X130135703Y-96820468D01*
X130134654Y-96825309D01*
X129992765Y-97137495D01*
X129986223Y-97143609D01*
X129977273Y-97143305D01*
X129975638Y-97142398D01*
X129803075Y-97027708D01*
X129798081Y-97020276D01*
X129758153Y-96814859D01*
X129759938Y-96806085D01*
X129766425Y-96801377D01*
X130120794Y-96700255D01*
X130129688Y-96701280D01*
G37*
%TD.AperFunction*%
%TD*%
%TA.AperFunction,Conductor*%
%TO.N,/PSEN*%
G36*
X146282752Y-90281712D02*
G01*
X146284519Y-90282675D01*
X146458722Y-90397979D01*
X146462020Y-90401277D01*
X146577324Y-90575480D01*
X146579033Y-90584271D01*
X146574026Y-90591694D01*
X146572259Y-90592657D01*
X146197077Y-90756840D01*
X146188124Y-90757017D01*
X146184113Y-90754394D01*
X146105605Y-90675886D01*
X146102178Y-90667613D01*
X146103158Y-90662926D01*
X146267342Y-90287739D01*
X146273799Y-90281535D01*
X146282752Y-90281712D01*
G37*
%TD.AperFunction*%
%TD*%
%TA.AperFunction,Conductor*%
%TO.N,/AIN5*%
G36*
X140343722Y-99096366D02*
G01*
X140347149Y-99104639D01*
X140347120Y-99105453D01*
X140325212Y-99417077D01*
X140319931Y-99492208D01*
X140315933Y-99500220D01*
X140307439Y-99503058D01*
X140306028Y-99502872D01*
X140103130Y-99463433D01*
X140095662Y-99458491D01*
X139979509Y-99283726D01*
X139977784Y-99274940D01*
X139982338Y-99267813D01*
X140217913Y-99095201D01*
X140224828Y-99092939D01*
X140335449Y-99092939D01*
X140343722Y-99096366D01*
G37*
%TD.AperFunction*%
%TD*%
%TA.AperFunction,Conductor*%
%TO.N,/AIN5*%
G36*
X141257046Y-81516121D02*
G01*
X141264469Y-81521128D01*
X141266178Y-81529918D01*
X141265609Y-81531848D01*
X141116410Y-81913239D01*
X141110205Y-81919696D01*
X141105514Y-81920677D01*
X140994486Y-81920677D01*
X140986213Y-81917250D01*
X140983590Y-81913239D01*
X140834390Y-81531848D01*
X140834567Y-81522895D01*
X140841024Y-81516690D01*
X140842944Y-81516123D01*
X141047670Y-81474474D01*
X141052330Y-81474474D01*
X141257046Y-81516121D01*
G37*
%TD.AperFunction*%
%TD*%
%TA.AperFunction,Conductor*%
%TO.N,/AIN2*%
G36*
X135372752Y-83556712D02*
G01*
X135374519Y-83557675D01*
X135548722Y-83672979D01*
X135552020Y-83676277D01*
X135667324Y-83850480D01*
X135669033Y-83859271D01*
X135664026Y-83866694D01*
X135662259Y-83867657D01*
X135287077Y-84031840D01*
X135278124Y-84032017D01*
X135274113Y-84029394D01*
X135195605Y-83950886D01*
X135192178Y-83942613D01*
X135193158Y-83937926D01*
X135357342Y-83562739D01*
X135363799Y-83556535D01*
X135372752Y-83556712D01*
G37*
%TD.AperFunction*%
%TD*%
%TA.AperFunction,Conductor*%
%TO.N,/AIN2*%
G36*
X134539203Y-96103939D02*
G01*
X134836819Y-96169302D01*
X134842582Y-96172457D01*
X134920583Y-96250458D01*
X134924010Y-96258731D01*
X134920583Y-96267004D01*
X134919484Y-96267973D01*
X134618650Y-96501493D01*
X134610014Y-96503859D01*
X134602234Y-96499425D01*
X134601776Y-96498794D01*
X134485796Y-96326845D01*
X134484011Y-96318069D01*
X134484012Y-96318061D01*
X134525311Y-96113073D01*
X134530304Y-96105642D01*
X134539091Y-96103916D01*
X134539203Y-96103939D01*
G37*
%TD.AperFunction*%
%TD*%
%TA.AperFunction,Conductor*%
%TO.N,/AIN1*%
G36*
X134272752Y-83556712D02*
G01*
X134274519Y-83557675D01*
X134448722Y-83672979D01*
X134452020Y-83676277D01*
X134567324Y-83850480D01*
X134569033Y-83859271D01*
X134564026Y-83866694D01*
X134562259Y-83867657D01*
X134187077Y-84031840D01*
X134178124Y-84032017D01*
X134174113Y-84029394D01*
X134095605Y-83950886D01*
X134092178Y-83942613D01*
X134093158Y-83937926D01*
X134257342Y-83562739D01*
X134263799Y-83556535D01*
X134272752Y-83556712D01*
G37*
%TD.AperFunction*%
%TD*%
%TA.AperFunction,Conductor*%
%TO.N,/AIN1*%
G36*
X132041551Y-96104257D02*
G01*
X132042833Y-96105777D01*
X132245674Y-96392774D01*
X132247650Y-96401508D01*
X132242872Y-96409082D01*
X132242655Y-96409231D01*
X132069565Y-96525810D01*
X132060789Y-96527590D01*
X132060697Y-96527571D01*
X131855992Y-96485926D01*
X131848568Y-96480919D01*
X131846802Y-96472430D01*
X131910632Y-96110498D01*
X131915443Y-96102946D01*
X131922154Y-96100830D01*
X132033278Y-96100830D01*
X132041551Y-96104257D01*
G37*
%TD.AperFunction*%
%TD*%
%TA.AperFunction,Conductor*%
%TO.N,/P1.07*%
G36*
X135411707Y-99655989D02*
G01*
X135415003Y-99662515D01*
X135469016Y-100020110D01*
X135466863Y-100028802D01*
X135459779Y-100033322D01*
X135254802Y-100075022D01*
X135246012Y-100073313D01*
X135245934Y-100073261D01*
X135073139Y-99956880D01*
X135068191Y-99949416D01*
X135069971Y-99940640D01*
X135070305Y-99940170D01*
X135218066Y-99743600D01*
X135282990Y-99657232D01*
X135290700Y-99652678D01*
X135292342Y-99652562D01*
X135403434Y-99652562D01*
X135411707Y-99655989D01*
G37*
%TD.AperFunction*%
%TD*%
%TA.AperFunction,Conductor*%
%TO.N,/P1.07*%
G36*
X135555824Y-82578665D02*
G01*
X135555860Y-82578689D01*
X135728672Y-82694374D01*
X135733640Y-82701824D01*
X135732723Y-82709135D01*
X135608972Y-82968492D01*
X135606685Y-82971727D01*
X135530493Y-83047919D01*
X135522220Y-83051346D01*
X135513947Y-83047919D01*
X135511477Y-83044281D01*
X135505489Y-83030404D01*
X135366762Y-82708911D01*
X135366632Y-82699959D01*
X135370963Y-82694577D01*
X135371264Y-82694374D01*
X135542776Y-82578688D01*
X135551549Y-82576904D01*
X135555824Y-82578665D01*
G37*
%TD.AperFunction*%
%TD*%
%TA.AperFunction,Conductor*%
%TO.N,/SCL*%
G36*
X139772752Y-87956712D02*
G01*
X139774519Y-87957675D01*
X139948722Y-88072979D01*
X139952020Y-88076277D01*
X140067324Y-88250480D01*
X140069033Y-88259271D01*
X140064026Y-88266694D01*
X140062259Y-88267657D01*
X139687077Y-88431840D01*
X139678124Y-88432017D01*
X139674113Y-88429394D01*
X139597170Y-88352451D01*
X139593743Y-88344178D01*
X139597168Y-88335908D01*
X139695422Y-88237655D01*
X139724500Y-88167454D01*
X139724500Y-88091470D01*
X139724500Y-88040239D01*
X139725481Y-88035548D01*
X139757342Y-87962739D01*
X139763798Y-87956535D01*
X139772752Y-87956712D01*
G37*
%TD.AperFunction*%
%TD*%
%TA.AperFunction,Conductor*%
%TO.N,/SCL*%
G36*
X139607658Y-96280490D02*
G01*
X139835374Y-96456258D01*
X139839829Y-96464026D01*
X139837969Y-96471996D01*
X139721708Y-96646924D01*
X139714275Y-96651918D01*
X139714196Y-96651933D01*
X139511565Y-96691320D01*
X139502790Y-96689535D01*
X139497848Y-96682067D01*
X139497648Y-96680420D01*
X139487211Y-96471996D01*
X139478115Y-96290337D01*
X139481123Y-96281904D01*
X139489215Y-96278068D01*
X139489800Y-96278053D01*
X139600510Y-96278053D01*
X139607658Y-96280490D01*
G37*
%TD.AperFunction*%
%TD*%
%TA.AperFunction,Conductor*%
%TO.N,/SDA*%
G36*
X138268595Y-88725281D02*
G01*
X138271667Y-88730693D01*
X138366367Y-89106221D01*
X138365067Y-89115081D01*
X138357883Y-89120427D01*
X138357354Y-89120547D01*
X138153489Y-89162021D01*
X138144699Y-89160312D01*
X138144621Y-89160260D01*
X137970637Y-89043078D01*
X137965689Y-89035614D01*
X137967024Y-89027552D01*
X138139066Y-88727731D01*
X138146156Y-88722261D01*
X138149214Y-88721854D01*
X138260322Y-88721854D01*
X138268595Y-88725281D01*
G37*
%TD.AperFunction*%
%TD*%
%TA.AperFunction,Conductor*%
%TO.N,/SDA*%
G36*
X138730422Y-86795963D02*
G01*
X138846310Y-86967774D01*
X138848095Y-86976549D01*
X138846333Y-86980826D01*
X138730625Y-87153672D01*
X138723175Y-87158640D01*
X138715864Y-87157723D01*
X138456507Y-87033972D01*
X138453272Y-87031685D01*
X138377080Y-86955493D01*
X138373653Y-86947220D01*
X138377080Y-86938947D01*
X138380716Y-86936478D01*
X138716088Y-86791762D01*
X138725040Y-86791632D01*
X138730422Y-86795963D01*
G37*
%TD.AperFunction*%
%TD*%
%TA.AperFunction,Conductor*%
%TO.N,/P0.29*%
G36*
X134742786Y-95281003D02*
G01*
X134745409Y-95285014D01*
X134894608Y-95666404D01*
X134894431Y-95675357D01*
X134887974Y-95681562D01*
X134886044Y-95682131D01*
X134681331Y-95723778D01*
X134676667Y-95723778D01*
X134471953Y-95682131D01*
X134464529Y-95677124D01*
X134462820Y-95668334D01*
X134463387Y-95666410D01*
X134612589Y-95285013D01*
X134618794Y-95278557D01*
X134623485Y-95277576D01*
X134734513Y-95277576D01*
X134742786Y-95281003D01*
G37*
%TD.AperFunction*%
%TD*%
%TA.AperFunction,Conductor*%
%TO.N,/P0.29*%
G36*
X135372752Y-80256712D02*
G01*
X135374519Y-80257675D01*
X135548722Y-80372979D01*
X135552020Y-80376277D01*
X135667324Y-80550480D01*
X135669033Y-80559271D01*
X135664026Y-80566694D01*
X135662259Y-80567657D01*
X135287077Y-80731840D01*
X135278124Y-80732017D01*
X135274113Y-80729394D01*
X135195605Y-80650886D01*
X135192178Y-80642613D01*
X135193158Y-80637926D01*
X135357342Y-80262739D01*
X135363799Y-80256535D01*
X135372752Y-80256712D01*
G37*
%TD.AperFunction*%
%TD*%
%TA.AperFunction,Conductor*%
%TO.N,/HK-ADC1*%
G36*
X108067706Y-82985173D02*
G01*
X108072648Y-82992641D01*
X108072695Y-82992900D01*
X108136160Y-83363806D01*
X108134178Y-83372538D01*
X108126601Y-83377311D01*
X108124628Y-83377479D01*
X108014636Y-83377479D01*
X108008786Y-83375912D01*
X107908800Y-83318190D01*
X107735787Y-83218310D01*
X107730337Y-83211207D01*
X107731505Y-83202328D01*
X107731877Y-83201728D01*
X107847292Y-83028074D01*
X107854722Y-83023082D01*
X108058931Y-82983388D01*
X108067706Y-82985173D01*
G37*
%TD.AperFunction*%
%TD*%
%TA.AperFunction,Conductor*%
%TO.N,/HK-ADC1*%
G36*
X108262074Y-87243158D02*
G01*
X108476693Y-87337077D01*
X108637259Y-87407342D01*
X108643464Y-87413799D01*
X108643287Y-87422752D01*
X108642324Y-87424519D01*
X108527020Y-87598722D01*
X108523722Y-87602020D01*
X108349519Y-87717324D01*
X108340728Y-87719033D01*
X108333305Y-87714026D01*
X108332342Y-87712259D01*
X108168158Y-87337075D01*
X108167982Y-87328124D01*
X108170603Y-87324115D01*
X108249114Y-87245604D01*
X108257386Y-87242178D01*
X108262074Y-87243158D01*
G37*
%TD.AperFunction*%
%TD*%
%TA.AperFunction,Conductor*%
%TO.N,/P0.24*%
G36*
X142068401Y-94545831D02*
G01*
X142071755Y-94548174D01*
X142150285Y-94626704D01*
X142153712Y-94634977D01*
X142152456Y-94640250D01*
X141971564Y-94998510D01*
X141964776Y-95004351D01*
X141955847Y-95003681D01*
X141954662Y-95002993D01*
X141781933Y-94888665D01*
X141776926Y-94881242D01*
X141776907Y-94881149D01*
X141736567Y-94674363D01*
X141738347Y-94665590D01*
X141744021Y-94661141D01*
X142059454Y-94545462D01*
X142068401Y-94545831D01*
G37*
%TD.AperFunction*%
%TD*%
%TA.AperFunction,Conductor*%
%TO.N,/P0.24*%
G36*
X142357046Y-80416121D02*
G01*
X142364469Y-80421128D01*
X142366178Y-80429918D01*
X142365609Y-80431848D01*
X142216410Y-80813239D01*
X142210205Y-80819696D01*
X142205514Y-80820677D01*
X142094486Y-80820677D01*
X142086213Y-80817250D01*
X142083590Y-80813239D01*
X141934390Y-80431848D01*
X141934567Y-80422895D01*
X141941024Y-80416690D01*
X141942944Y-80416123D01*
X142147670Y-80374474D01*
X142152330Y-80374474D01*
X142357046Y-80416121D01*
G37*
%TD.AperFunction*%
%TD*%
%TA.AperFunction,Conductor*%
%TO.N,/HK-ADC0*%
G36*
X107049750Y-87406087D02*
G01*
X107412965Y-87582086D01*
X107418916Y-87588777D01*
X107418392Y-87597717D01*
X107417619Y-87599073D01*
X107303412Y-87771619D01*
X107295989Y-87776626D01*
X107295896Y-87776645D01*
X107088926Y-87817021D01*
X107080150Y-87815241D01*
X107075780Y-87809773D01*
X107060961Y-87771619D01*
X106955220Y-87499372D01*
X106955419Y-87490421D01*
X106957850Y-87486868D01*
X107036376Y-87408342D01*
X107044648Y-87404916D01*
X107049750Y-87406087D01*
G37*
%TD.AperFunction*%
%TD*%
%TA.AperFunction,Conductor*%
%TO.N,/HK-ADC0*%
G36*
X106722752Y-82931712D02*
G01*
X106724519Y-82932675D01*
X106898722Y-83047979D01*
X106902020Y-83051277D01*
X107017324Y-83225480D01*
X107019033Y-83234271D01*
X107014026Y-83241694D01*
X107012259Y-83242657D01*
X106637077Y-83406840D01*
X106628124Y-83407017D01*
X106624113Y-83404394D01*
X106545605Y-83325886D01*
X106542178Y-83317613D01*
X106543158Y-83312926D01*
X106707342Y-82937739D01*
X106713799Y-82931535D01*
X106722752Y-82931712D01*
G37*
%TD.AperFunction*%
%TD*%
%TA.AperFunction,Conductor*%
%TO.N,/P0.19*%
G36*
X140395656Y-91814750D02*
G01*
X140398342Y-91818927D01*
X140540881Y-92200274D01*
X140540568Y-92209223D01*
X140534018Y-92215329D01*
X140532255Y-92215835D01*
X140327333Y-92257525D01*
X140322667Y-92257525D01*
X140118163Y-92215920D01*
X140110740Y-92210913D01*
X140109031Y-92202122D01*
X140109661Y-92200039D01*
X140265528Y-91818597D01*
X140271830Y-91812235D01*
X140276359Y-91811323D01*
X140387383Y-91811323D01*
X140395656Y-91814750D01*
G37*
%TD.AperFunction*%
%TD*%
%TA.AperFunction,Conductor*%
%TO.N,/P0.19*%
G36*
X140083911Y-82391762D02*
G01*
X140093645Y-82395963D01*
X140419281Y-82536477D01*
X140425520Y-82542902D01*
X140425389Y-82551855D01*
X140422919Y-82555493D01*
X140346727Y-82631685D01*
X140343492Y-82633972D01*
X140084135Y-82757723D01*
X140075193Y-82758192D01*
X140069374Y-82753672D01*
X140028200Y-82692167D01*
X139953665Y-82580825D01*
X139951912Y-82572044D01*
X139953687Y-82567778D01*
X140069577Y-82395962D01*
X140077045Y-82391021D01*
X140083911Y-82391762D01*
G37*
%TD.AperFunction*%
%TD*%
M02*
