%TF.GenerationSoftware,KiCad,Pcbnew,9.0.4*%
%TF.CreationDate,2025-09-08T17:38:28-04:00*%
%TF.ProjectId,CPU1-NRF5340-uBlox-NORA,43505531-2d4e-4524-9635-3334302d7542,A*%
%TF.SameCoordinates,Original*%
%TF.FileFunction,Copper,L6,Bot*%
%TF.FilePolarity,Positive*%
%FSLAX46Y46*%
G04 Gerber Fmt 4.6, Leading zero omitted, Abs format (unit mm)*
G04 Created by KiCad (PCBNEW 9.0.4) date 2025-09-08 17:38:28*
%MOMM*%
%LPD*%
G01*
G04 APERTURE LIST*
%TA.AperFunction,HeatsinkPad*%
%ADD10O,2.100000X1.000000*%
%TD*%
%TA.AperFunction,HeatsinkPad*%
%ADD11O,1.800000X1.000000*%
%TD*%
%TA.AperFunction,ComponentPad*%
%ADD12R,1.000000X1.000000*%
%TD*%
%TA.AperFunction,ViaPad*%
%ADD13C,0.450000*%
%TD*%
%TA.AperFunction,Conductor*%
%ADD14C,0.127000*%
%TD*%
%TA.AperFunction,Conductor*%
%ADD15C,0.381000*%
%TD*%
%TA.AperFunction,Conductor*%
%ADD16C,0.500000*%
%TD*%
G04 APERTURE END LIST*
D10*
%TO.P,J1,S1,SHIELD*%
%TO.N,GND*%
X148720000Y-90280000D03*
D11*
X152900000Y-90280000D03*
D10*
X148720000Y-81640000D03*
D11*
X152900000Y-81640000D03*
%TD*%
D12*
%TO.P,TP1,1,1*%
%TO.N,Net-(U2-IO7)*%
X112360000Y-75621000D03*
%TD*%
%TO.P,TP2,1,1*%
%TO.N,/P0.31*%
X114360000Y-75621000D03*
%TD*%
D13*
%TO.N,/VBUS*%
X132000000Y-88050000D03*
%TO.N,unconnected-(U4-VBUS-PadB9)*%
X132000000Y-87100000D03*
%TO.N,/VBUSMON*%
X117950000Y-77400000D03*
X113188105Y-78812000D03*
%TO.N,/PGOOD*%
X117396000Y-83057426D03*
%TO.N,/PSEN*%
X117300000Y-96250000D03*
X116747009Y-83203802D03*
%TO.N,/AIN7*%
X125323600Y-79349600D03*
X122021600Y-91998800D03*
%TO.N,/PSMODE*%
X118250000Y-79300000D03*
%TO.N,GND*%
X107425000Y-85800000D03*
X142150000Y-75175000D03*
X127000000Y-85775000D03*
X144450000Y-86850000D03*
X153225000Y-97200000D03*
X138150000Y-97900000D03*
X147675000Y-79200000D03*
X141050000Y-75175000D03*
X138875000Y-91725000D03*
X138150000Y-96550000D03*
X142150000Y-76675000D03*
X113195000Y-77600000D03*
X146275000Y-93575000D03*
X138300000Y-83675000D03*
X112150000Y-82550000D03*
X123200000Y-93275000D03*
X107300000Y-86775000D03*
X127000000Y-93275000D03*
X127975000Y-101250000D03*
X114025000Y-93275000D03*
X141725000Y-90400000D03*
X128400000Y-81250000D03*
X146275000Y-92500000D03*
X134450000Y-75175000D03*
X110125000Y-85800000D03*
X131100000Y-97700000D03*
X137025000Y-92700000D03*
X141050000Y-86975000D03*
X133325000Y-93400000D03*
X126850000Y-86775000D03*
X143625000Y-90382500D03*
X142925000Y-93550000D03*
X153225000Y-93650000D03*
X146800000Y-80150000D03*
X142500000Y-96150000D03*
X137750000Y-78169000D03*
X129700000Y-93275000D03*
X107450000Y-93275000D03*
X135550000Y-78169000D03*
X148700000Y-75425000D03*
X123200000Y-85775000D03*
X120700000Y-101250000D03*
X106900000Y-82000000D03*
X138300000Y-82575000D03*
X122650000Y-82100000D03*
X113875000Y-86800000D03*
X116100000Y-77425000D03*
X148275000Y-102250000D03*
X112150000Y-82000000D03*
X133725000Y-89550000D03*
X123650002Y-80520000D03*
X129725000Y-85800000D03*
X142925000Y-92450000D03*
X148025000Y-98425000D03*
X146625000Y-97225000D03*
X137075000Y-93650000D03*
X144675000Y-102275000D03*
X108825000Y-82000000D03*
X113975000Y-85775000D03*
X134450000Y-78169000D03*
X137200000Y-82575000D03*
X139925000Y-92900000D03*
X113821537Y-83600000D03*
X120475000Y-85775000D03*
X143400000Y-95800000D03*
X133350000Y-75175000D03*
X139875000Y-90425000D03*
X120500000Y-93275000D03*
X134450000Y-86975000D03*
X110175000Y-93275000D03*
X116675000Y-93275000D03*
X116700000Y-85775000D03*
X144700000Y-82575000D03*
X142525000Y-98125000D03*
X141025000Y-78169000D03*
X109775000Y-82014998D03*
X148700000Y-77300000D03*
X126450000Y-81900000D03*
X133350000Y-76675000D03*
X148026284Y-89176284D03*
X148025000Y-82775000D03*
X120375000Y-86800000D03*
X147675000Y-80175000D03*
X107850000Y-82000000D03*
X142925000Y-92975000D03*
X128400000Y-81850000D03*
X146275000Y-93100000D03*
X127000000Y-98000000D03*
X146825000Y-77325000D03*
X120275002Y-78350000D03*
X131125000Y-81600000D03*
X141375000Y-93550000D03*
X137200000Y-83675000D03*
X138150000Y-95375000D03*
X144600000Y-93000000D03*
X142150000Y-88075000D03*
X139950000Y-78169000D03*
X122650000Y-80750000D03*
X136100000Y-92700000D03*
X122650000Y-81425000D03*
X137950000Y-92700000D03*
X133325000Y-88075000D03*
X144250000Y-84275000D03*
%TO.N,+3.3V*%
X121775000Y-97465500D03*
X131125000Y-82525000D03*
X144700000Y-100550000D03*
%TO.N,Net-(U1-X)*%
X113131197Y-84281197D03*
%TO.N,+3.3V*%
X145850000Y-76400000D03*
X128400000Y-82550000D03*
X119649256Y-83659499D03*
%TO.N,Net-(U1-X)*%
X112000000Y-80150000D03*
%TO.N,+3.3V*%
X135549999Y-86975001D03*
X123650002Y-81480000D03*
X134700000Y-89550000D03*
X146625000Y-96250000D03*
X144425000Y-98125000D03*
X114150000Y-77550000D03*
X116825000Y-87300000D03*
X110275000Y-87275000D03*
X144625000Y-94500000D03*
X123350000Y-87325000D03*
X112050000Y-101475000D03*
X114300000Y-78900000D03*
X134450000Y-88075000D03*
X145525000Y-95325000D03*
X130150000Y-97725000D03*
X146850000Y-78250000D03*
X135550000Y-88050000D03*
X144400000Y-96150000D03*
X150325000Y-96375000D03*
X129849999Y-87274999D03*
%TO.N,/AIN5*%
X140098327Y-99461500D03*
X141050000Y-81475000D03*
X107625000Y-95350000D03*
%TO.N,/AIN2*%
X134483767Y-96322082D03*
X135550000Y-83675000D03*
X109014634Y-94694240D03*
%TO.N,/P1.13*%
X133350000Y-81475000D03*
X111850000Y-91776000D03*
X114898399Y-83927062D03*
%TO.N,/AIN6*%
X139950000Y-80375000D03*
X110300000Y-91275000D03*
X111650000Y-84725000D03*
%TO.N,/HK-ADC3*%
X115120619Y-87075095D03*
X109786304Y-83081000D03*
X115930517Y-81562774D03*
X125627722Y-88700500D03*
%TO.N,/AIN7*%
X134450000Y-79275000D03*
X107300000Y-91775000D03*
%TO.N,/AIN1*%
X106150000Y-95275000D03*
X132065500Y-96527549D03*
X134450000Y-83675000D03*
%TO.N,/AIN0*%
X112675000Y-86075000D03*
X134450000Y-84775000D03*
%TO.N,/AIN3*%
X139950000Y-84775000D03*
X138875906Y-100629007D03*
X106950000Y-96250000D03*
%TO.N,/AIN4*%
X111525000Y-86275000D03*
X139950000Y-81475000D03*
%TO.N,/P1.06*%
X117585478Y-84294426D03*
X142150000Y-81475000D03*
%TO.N,/P1.04*%
X117607358Y-84947062D03*
X132170821Y-83132997D03*
%TO.N,/P1.01*%
X138850000Y-85875000D03*
X115119000Y-89705604D03*
X115011092Y-86509012D03*
%TO.N,/P1.08*%
X132165532Y-82524000D03*
X118590358Y-84827036D03*
%TO.N,/P1.07*%
X135550000Y-82575000D03*
X135250000Y-100075000D03*
X116971203Y-99584500D03*
X113850000Y-91775000D03*
%TO.N,/SCL*%
X116850000Y-88275000D03*
X139950000Y-88075000D03*
X139719000Y-96650000D03*
X117796613Y-99259500D03*
%TO.N,/SDA*%
X138148687Y-89161999D03*
X115119000Y-88705257D03*
X138850000Y-86975000D03*
%TO.N,/P1.05*%
X133350000Y-83675000D03*
X116200000Y-84400000D03*
X115084614Y-90865257D03*
%TO.N,/HK-ADC2*%
X114966729Y-87631197D03*
X115950000Y-79750000D03*
X119025000Y-87900000D03*
X108825000Y-83050000D03*
%TO.N,/P0.30*%
X134111500Y-95039449D03*
X134450000Y-80375000D03*
%TO.N,/SPI-MISO*%
X142150000Y-85875000D03*
X124916453Y-86503500D03*
%TO.N,/SPI-CS*%
X139950000Y-86975000D03*
X121550000Y-86775000D03*
%TO.N,/SPI-DCX*%
X125180703Y-88285000D03*
X141050000Y-88075000D03*
%TO.N,/P0.21*%
X124113500Y-84522881D03*
X139950000Y-83675000D03*
%TO.N,/P0.29*%
X134678999Y-95723253D03*
X135550000Y-80375000D03*
%TO.N,/HK-ADC1*%
X113850000Y-87775000D03*
X107850000Y-83025000D03*
X108525000Y-87600000D03*
X116024416Y-80407760D03*
%TO.N,/SPI-MOSI*%
X121923976Y-85699127D03*
X141050000Y-85875000D03*
%TO.N,/P0.24*%
X141778553Y-94885253D03*
X127878661Y-97235983D03*
X142150000Y-80375000D03*
%TO.N,/SPI-SCK*%
X142150000Y-86975000D03*
X124450727Y-87607000D03*
%TO.N,/QSPI-IO3*%
X141175000Y-92675000D03*
X141050000Y-82575000D03*
%TO.N,/QSPI-SCK*%
X129850000Y-88275000D03*
X143303434Y-86525000D03*
X142150002Y-82575000D03*
%TO.N,/QSPI-IO1*%
X139743000Y-89148379D03*
X141050000Y-83675000D03*
X126850000Y-89775000D03*
%TO.N,/QSPI-IO2*%
X141000000Y-94950000D03*
X131234500Y-95337656D03*
X131052175Y-90935219D03*
X142150000Y-84775000D03*
%TO.N,/HK-ADC0*%
X115882027Y-80973493D03*
X110650000Y-83575000D03*
X110650000Y-82619500D03*
X106900000Y-83050000D03*
X107300000Y-87775000D03*
%TO.N,/P0.02-NFC1*%
X137750000Y-85875000D03*
X138737055Y-94189135D03*
%TO.N,/P0.19*%
X139950000Y-82575000D03*
X140325000Y-92257000D03*
%TO.N,/QSPI-CSN*%
X128294669Y-84461000D03*
X142150000Y-83675000D03*
%TO.N,/P0.03-NFC2*%
X128507000Y-93869222D03*
X137800000Y-93350000D03*
X137750000Y-86975000D03*
%TO.N,/DP*%
X149075000Y-86250000D03*
X149075000Y-85250000D03*
%TO.N,/VBUS*%
X143725000Y-88310000D03*
X130252500Y-103372500D03*
X146250000Y-82575000D03*
X134287500Y-91112500D03*
X148025000Y-88375000D03*
X147000000Y-89000000D03*
X148025000Y-83575000D03*
X137975000Y-91725000D03*
%TO.N,/VBAT*%
X134287499Y-93387499D03*
X147000000Y-88375000D03*
X115501503Y-93861560D03*
X116085000Y-78400000D03*
X136125000Y-96525000D03*
X138900000Y-92700000D03*
%TO.N,/DISPON*%
X119074691Y-78375309D03*
X119106000Y-97300000D03*
%TO.N,/CC2*%
X147665000Y-78250000D03*
X112114958Y-80812561D03*
%TO.N,/CC1*%
X147665000Y-76350000D03*
X112300000Y-79500000D03*
%TO.N,/PSEN*%
X146460000Y-90400000D03*
X129800000Y-97025000D03*
%TO.N,/PSMODE*%
X118100000Y-95250000D03*
X142760000Y-90400000D03*
X140750000Y-95525000D03*
%TO.N,/P1.15*%
X133350000Y-82575000D03*
X132319500Y-100380372D03*
%TO.N,/P1.14*%
X132775000Y-99750000D03*
X134450000Y-82575000D03*
%TO.N,/P1.12*%
X133874379Y-100137588D03*
X134450000Y-81475000D03*
%TO.N,/PGOOD*%
X143100000Y-91550000D03*
X148485000Y-97200000D03*
X143725000Y-100500000D03*
X118700000Y-98505500D03*
%TO.N,Net-(U5-STAT)*%
X132075000Y-101140000D03*
X132400000Y-93425000D03*
%TO.N,/RESET*%
X118432233Y-82938011D03*
X142900000Y-99325000D03*
X154510000Y-93621000D03*
X119425000Y-97800000D03*
X145815000Y-78250000D03*
%TO.N,/USER*%
X135550000Y-84775000D03*
X137065500Y-99790500D03*
%TO.N,/P1.09*%
X126596856Y-80784462D03*
X135550000Y-81475000D03*
%TO.N,/SYS*%
X145100000Y-91550000D03*
X145450000Y-90400000D03*
X141375000Y-91650000D03*
X145600000Y-87912500D03*
X144575000Y-90425000D03*
X144675000Y-91506105D03*
%TO.N,/P1.00*%
X116850000Y-89275000D03*
X118171539Y-98794000D03*
X138850000Y-88075000D03*
X139681532Y-98074266D03*
%TO.N,/QSPI-IO0*%
X131444540Y-84535000D03*
X141050000Y-84775000D03*
%TO.N,/SWDCLK*%
X141504444Y-99226643D03*
X141025000Y-79275000D03*
%TO.N,/RxD*%
X136150000Y-100225000D03*
X134450000Y-85875000D03*
%TO.N,/TxD*%
X137250000Y-100900000D03*
X137750000Y-88075000D03*
%TO.N,/SWDIO*%
X141050000Y-80375000D03*
X140900000Y-99019901D03*
%TO.N,/P1.10*%
X135550000Y-79275000D03*
X120950000Y-82939298D03*
X129475000Y-79379000D03*
%TO.N,/P1.11*%
X133350000Y-80375000D03*
X127175000Y-79650000D03*
%TD*%
D14*
%TO.N,/PGOOD*%
X145125000Y-93800000D02*
X148050000Y-96725000D01*
X144800000Y-93800000D02*
X145125000Y-93800000D01*
X143804999Y-92804999D02*
X144800000Y-93800000D01*
X143804999Y-92254999D02*
X143804999Y-92804999D01*
%TO.N,/P1.12*%
X134035521Y-99976446D02*
X133874379Y-100137588D01*
X134035522Y-99165038D02*
X134035521Y-99976446D01*
X134668499Y-98532061D02*
X134035522Y-99165038D01*
X134668499Y-97099000D02*
X134668499Y-98532061D01*
X133976000Y-96406501D02*
X134668499Y-97099000D01*
X133976000Y-95825000D02*
X133976000Y-96406501D01*
X134703999Y-95097001D02*
X133976000Y-95825000D01*
X134703999Y-93214979D02*
X134703999Y-95097001D01*
X133871000Y-92381980D02*
X134703999Y-93214979D01*
X133871000Y-90939980D02*
X133871000Y-92381980D01*
X134283500Y-90527480D02*
X133871000Y-90939980D01*
X134033500Y-85702480D02*
X134033500Y-89133500D01*
X134277480Y-85458500D02*
X134033500Y-85702480D01*
X134283500Y-89383500D02*
X134283500Y-90527480D01*
X134679374Y-85458500D02*
X134277480Y-85458500D01*
X134033500Y-89133500D02*
X134283500Y-89383500D01*
X135133500Y-85004374D02*
X134679374Y-85458500D01*
X135133500Y-84602480D02*
X135133500Y-85004374D01*
X135555490Y-84180490D02*
X135133500Y-84602480D01*
%TO.N,/HK-ADC3*%
X115836187Y-81562774D02*
X115930517Y-81562774D01*
X115120619Y-87075095D02*
X115439688Y-86756026D01*
X115761713Y-81570554D02*
X115828407Y-81570554D01*
%TO.N,/HK-ADC2*%
X116061742Y-79750000D02*
X115950000Y-79750000D01*
X116750000Y-80438258D02*
X116061742Y-79750000D01*
X116750000Y-82505725D02*
X116750000Y-80438258D01*
X116255509Y-83215766D02*
X116255509Y-83000216D01*
X115763383Y-83707892D02*
X116255509Y-83215766D01*
X115763383Y-84890586D02*
X115763383Y-83707892D01*
X115875000Y-85002203D02*
X115763383Y-84890586D01*
%TO.N,/HK-ADC3*%
X115439688Y-86756026D02*
X115439688Y-81892579D01*
%TO.N,/HK-ADC2*%
X115875000Y-86793542D02*
X115875000Y-85002203D01*
X115536119Y-87247201D02*
X115536119Y-87132423D01*
X115177948Y-87490595D02*
X115292725Y-87490595D01*
X115164413Y-87504130D02*
X115177948Y-87490595D01*
X115093796Y-87504130D02*
X115164413Y-87504130D01*
X115536119Y-87132423D02*
X115875000Y-86793542D01*
X115292725Y-87490595D02*
X115536119Y-87247201D01*
%TO.N,/HK-ADC3*%
X115828407Y-81570554D02*
X115836187Y-81562774D01*
%TO.N,/HK-ADC2*%
X114966729Y-87631197D02*
X115093796Y-87504130D01*
%TO.N,/HK-ADC3*%
X115439688Y-81892579D02*
X115761713Y-81570554D01*
%TO.N,/HK-ADC2*%
X116255509Y-83000216D02*
X116750000Y-82505725D01*
%TO.N,/DISPON*%
X118975002Y-83800877D02*
X118975002Y-78474998D01*
X119532000Y-84357875D02*
X118975002Y-83800877D01*
X119532000Y-96874000D02*
X119532000Y-84357875D01*
X119106000Y-97300000D02*
X119532000Y-96874000D01*
X118975002Y-78474998D02*
X119074691Y-78375309D01*
%TO.N,/P1.05*%
X116200000Y-84623606D02*
X116200000Y-84400000D01*
X116129000Y-84694606D02*
X116200000Y-84623606D01*
X116129000Y-86977100D02*
X116129000Y-84694606D01*
X115790119Y-87352411D02*
X115790119Y-87315981D01*
X115581000Y-89884790D02*
X115581000Y-87561530D01*
X115790119Y-87315981D02*
X116129000Y-86977100D01*
X115581000Y-87561530D02*
X115790119Y-87352411D01*
X115084614Y-90381176D02*
X115581000Y-89884790D01*
X115084614Y-90865257D02*
X115084614Y-90381176D01*
%TO.N,/RESET*%
X118432233Y-83973825D02*
X118432233Y-82938011D01*
X119081858Y-85030622D02*
X119081858Y-84623450D01*
X118609500Y-85502980D02*
X119081858Y-85030622D01*
X118609500Y-95826270D02*
X118609500Y-85502980D01*
X118824500Y-96041270D02*
X118609500Y-95826270D01*
X118824500Y-96448442D02*
X118824500Y-96041270D01*
X118609500Y-96663442D02*
X118824500Y-96448442D01*
X118609500Y-97659500D02*
X118609500Y-96663442D01*
X118750000Y-97800000D02*
X118609500Y-97659500D01*
X119425000Y-97800000D02*
X118750000Y-97800000D01*
X119081858Y-84623450D02*
X118432233Y-83973825D01*
%TO.N,/PGOOD*%
X118098858Y-83760284D02*
X117396000Y-83057426D01*
X117865390Y-85384116D02*
X118098858Y-85150648D01*
X117865390Y-94243820D02*
X117865390Y-85384116D01*
X117654000Y-94455210D02*
X117865390Y-94243820D01*
X117654000Y-95758914D02*
X117654000Y-94455210D01*
X117841500Y-97647000D02*
X117841500Y-95946414D01*
X118700000Y-98505500D02*
X117841500Y-97647000D01*
X118098858Y-85150648D02*
X118098858Y-83760284D01*
X117841500Y-95946414D02*
X117654000Y-95758914D01*
%TO.N,/PSEN*%
X117346499Y-96203501D02*
X117346499Y-85832479D01*
X117300000Y-96250000D02*
X117346499Y-96203501D01*
X117346499Y-85832479D02*
X116747009Y-85232989D01*
X116747009Y-85232989D02*
X116747009Y-83203802D01*
%TO.N,/P1.00*%
X117091500Y-93447520D02*
X117091500Y-90491500D01*
X116858500Y-93680520D02*
X117091500Y-93447520D01*
X116858500Y-96503586D02*
X116858500Y-93680520D01*
X117091500Y-96736586D02*
X116858500Y-96503586D01*
X117091500Y-97408500D02*
X117091500Y-96736586D01*
X116775000Y-97725000D02*
X117091500Y-97408500D01*
X118171539Y-98794000D02*
X117844000Y-98794000D01*
X117844000Y-98794000D02*
X116775000Y-97725000D01*
X117091500Y-90491500D02*
X116217062Y-89617062D01*
D15*
%TO.N,/VBUS*%
X143725000Y-88582184D02*
X144022000Y-88879184D01*
X144142816Y-89000000D02*
X144022000Y-88879184D01*
X147000000Y-89000000D02*
X144142816Y-89000000D01*
X143725000Y-88310000D02*
X143725000Y-88582184D01*
D14*
%TO.N,/RESET*%
X145815000Y-78275000D02*
X145790000Y-78250000D01*
X145815000Y-84960000D02*
X145815000Y-78275000D01*
X144416500Y-86358500D02*
X145815000Y-84960000D01*
X143958500Y-86816500D02*
X143958500Y-86646414D01*
X143958500Y-86646414D02*
X144246414Y-86358500D01*
X143125000Y-87650000D02*
X143958500Y-86816500D01*
X143125000Y-88975000D02*
X143125000Y-87650000D01*
X143151500Y-89001500D02*
X143125000Y-88975000D01*
X143176500Y-90227480D02*
X143151500Y-90202480D01*
X144246414Y-86358500D02*
X144416500Y-86358500D01*
X142555500Y-91899293D02*
X142555500Y-91193520D01*
X142555500Y-91193520D02*
X143176500Y-90572520D01*
X143151500Y-90202480D02*
X143151500Y-89001500D01*
X143176500Y-90572520D02*
X143176500Y-90227480D01*
D16*
%TO.N,/VBUS*%
X147349797Y-89000000D02*
X147000000Y-89000000D01*
X147974797Y-88375000D02*
X147349797Y-89000000D01*
X148025000Y-88375000D02*
X147974797Y-88375000D01*
D14*
%TO.N,/PGOOD*%
X143100000Y-91550000D02*
X143804999Y-92254999D01*
X148050000Y-96725000D02*
X148485000Y-97200000D01*
%TO.N,/P1.13*%
X114898399Y-84149627D02*
X114898399Y-83927062D01*
X113286513Y-85761513D02*
X114898399Y-84149627D01*
X112004000Y-87550000D02*
X113286513Y-86267487D01*
X111850000Y-90084210D02*
X112004000Y-89930210D01*
X111850000Y-91776000D02*
X111850000Y-90084210D01*
X112004000Y-89930210D02*
X112004000Y-87550000D01*
X113286513Y-86267487D02*
X113286513Y-85761513D01*
%TO.N,/AIN6*%
X112025000Y-86663816D02*
X112025000Y-84925000D01*
X110300000Y-88388816D02*
X112025000Y-86663816D01*
X110300000Y-91275000D02*
X110300000Y-88388816D01*
X111850000Y-84925000D02*
X111650000Y-84725000D01*
X112025000Y-84925000D02*
X111850000Y-84925000D01*
%TO.N,/P1.01*%
X115119000Y-89705604D02*
X115119000Y-89594000D01*
X114469921Y-88944921D02*
X114469921Y-87050183D01*
X115119000Y-89594000D02*
X114469921Y-88944921D01*
X114469921Y-87050183D02*
X115011092Y-86509012D01*
%TO.N,/P1.07*%
X116884500Y-99584500D02*
X116971203Y-99584500D01*
X115050000Y-92525000D02*
X115050000Y-97750000D01*
X114300000Y-91775000D02*
X115050000Y-92525000D01*
X115050000Y-97750000D02*
X116884500Y-99584500D01*
X113850000Y-91775000D02*
X114300000Y-91775000D01*
%TO.N,/SCL*%
X115835000Y-88963026D02*
X115835000Y-90075000D01*
X116150000Y-90390000D02*
X116150000Y-97900000D01*
X117509500Y-99259500D02*
X117796613Y-99259500D01*
X116150000Y-97900000D02*
X117509500Y-99259500D01*
X116850000Y-88275000D02*
X116400000Y-88275000D01*
X115835000Y-90075000D02*
X116150000Y-90390000D01*
X116400000Y-88275000D02*
X115885000Y-88790000D01*
X115885000Y-88913026D02*
X115835000Y-88963026D01*
X115885000Y-88790000D02*
X115885000Y-88913026D01*
%TO.N,/P0.30*%
X134866500Y-82402480D02*
X134355520Y-81891500D01*
X133802500Y-85574270D02*
X133779500Y-85597270D01*
X134033500Y-81647520D02*
X134033500Y-80791500D01*
X134622520Y-82991500D02*
X134866500Y-82747520D01*
X134277480Y-81891500D02*
X134033500Y-81647520D01*
X133870999Y-94798948D02*
X134111500Y-95039449D01*
X133308500Y-88721000D02*
X133308500Y-92794480D01*
X133779500Y-85597270D02*
X133779500Y-88250000D01*
X134355520Y-81891500D02*
X134277480Y-81891500D01*
X133779500Y-88250000D02*
X133308500Y-88721000D01*
X133802500Y-83733480D02*
X134544480Y-82991500D01*
X134544480Y-82991500D02*
X134622520Y-82991500D01*
X133870999Y-93356979D02*
X133870999Y-94798948D01*
X134866500Y-82747520D02*
X134866500Y-82402480D01*
X134033500Y-80791500D02*
X134450000Y-80375000D01*
X133802500Y-85574270D02*
X133802500Y-83733480D01*
X133308500Y-92794480D02*
X133870999Y-93356979D01*
%TO.N,/QSPI-IO3*%
X141050000Y-83085980D02*
X141050000Y-82575000D01*
X141039500Y-91903520D02*
X140891770Y-91755790D01*
X140891770Y-91755790D02*
X140891770Y-90772170D01*
X141175000Y-92675000D02*
X141039500Y-92539500D01*
X139327500Y-89429307D02*
X139327500Y-88866358D01*
X140891770Y-90772170D02*
X139695267Y-89575667D01*
X139695267Y-89575667D02*
X139473860Y-89575667D01*
X139327500Y-88866358D02*
X139506968Y-88686890D01*
X139506968Y-88686890D02*
X140111890Y-88686890D01*
X140366500Y-83769480D02*
X140366500Y-88432280D01*
X140302317Y-88496462D02*
X140111890Y-88686890D01*
X140366500Y-83769480D02*
X141050000Y-83085980D01*
X139473860Y-89575667D02*
X139327500Y-89429307D01*
X141039500Y-92539500D02*
X141039500Y-91903520D01*
X140366500Y-88432280D02*
X140111890Y-88686890D01*
%TO.N,/QSPI-SCK*%
X143303434Y-85569224D02*
X142775000Y-85040790D01*
X142775000Y-82625000D02*
X142725000Y-82575000D01*
X142725000Y-82575000D02*
X142150002Y-82575000D01*
X142775000Y-85040790D02*
X142775000Y-82625000D01*
X143303434Y-86525000D02*
X143303434Y-85569224D01*
%TO.N,/QSPI-IO1*%
X141050000Y-83675000D02*
X141050000Y-84125000D01*
X140633500Y-84541500D02*
X140633500Y-88900659D01*
X140633500Y-88900659D02*
X140373992Y-89160167D01*
X139754788Y-89160167D02*
X139743000Y-89148379D01*
X141050000Y-84125000D02*
X140633500Y-84541500D01*
X140373992Y-89160167D02*
X139754788Y-89160167D01*
%TO.N,/QSPI-IO2*%
X142846000Y-89513210D02*
X142846000Y-89019790D01*
X142846000Y-89019790D02*
X142867105Y-88998685D01*
X131052175Y-90935219D02*
X131091689Y-90974733D01*
X142150000Y-84890790D02*
X142150000Y-84775000D01*
X131091689Y-95194845D02*
X131234500Y-95337656D01*
X141000000Y-94950000D02*
X142045500Y-93904500D01*
X142141500Y-90572520D02*
X142141500Y-90227480D01*
X131091689Y-90974733D02*
X131091689Y-95194845D01*
X142045500Y-90668520D02*
X142141500Y-90572520D01*
X142854000Y-85594790D02*
X142150000Y-84890790D01*
X142136615Y-90222595D02*
X142846000Y-89513210D01*
X142141500Y-90227480D02*
X142136615Y-90222595D01*
X142045500Y-93904500D02*
X142045500Y-90668520D01*
X142867105Y-87963105D02*
X142854000Y-87950000D01*
X142854000Y-87950000D02*
X142854000Y-85594790D01*
X142867105Y-88998685D02*
X142867105Y-87963105D01*
%TO.N,/P0.02-NFC1*%
X138565500Y-88977894D02*
X138468466Y-88880860D01*
X138565500Y-89332166D02*
X138565500Y-88977894D01*
X138468466Y-88880860D02*
X138468466Y-88282486D01*
X138737055Y-94189135D02*
X138441502Y-93893582D01*
X138441502Y-93893582D02*
X138441502Y-89456164D01*
X138468466Y-88282486D02*
X138433500Y-88247520D01*
X138441502Y-89456164D02*
X138565500Y-89332166D01*
X138433500Y-88247520D02*
X138433500Y-86558500D01*
X138433500Y-86558500D02*
X137750000Y-85875000D01*
%TO.N,/P0.03-NFC2*%
X138166500Y-88432755D02*
X138166500Y-87391500D01*
X138166500Y-87391500D02*
X137750000Y-86975000D01*
X137800000Y-93350000D02*
X137533500Y-93083500D01*
X137533500Y-90109500D02*
X137593000Y-90050000D01*
X137593000Y-90050000D02*
X137593000Y-89006255D01*
X137533500Y-93083500D02*
X137533500Y-90109500D01*
X137593000Y-89006255D02*
X138166500Y-88432755D01*
%TO.N,/DP*%
X149075000Y-86250000D02*
X149075000Y-85250000D01*
D16*
%TO.N,/VBUS*%
X148025000Y-88375000D02*
X148025000Y-83575000D01*
D14*
X134287500Y-92405920D02*
X135142000Y-93260420D01*
X134923499Y-96465317D02*
X134923499Y-98637685D01*
X134315521Y-100357663D02*
X131300684Y-103372500D01*
X134923499Y-98637685D02*
X134290521Y-99270663D01*
X134287500Y-91112500D02*
X134287500Y-92405920D01*
X134290521Y-99586295D02*
X134315521Y-99611295D01*
X135142000Y-96246816D02*
X134923499Y-96465317D01*
X131300684Y-103372500D02*
X130252500Y-103372500D01*
X135142000Y-93260420D02*
X135142000Y-96246816D01*
X134315521Y-99611295D02*
X134315521Y-100357663D01*
X134290521Y-99270663D02*
X134290521Y-99586295D01*
%TO.N,/PSMODE*%
X142299500Y-90860500D02*
X142760000Y-90400000D01*
X142299500Y-92031080D02*
X142299500Y-90860500D01*
X141699875Y-95551538D02*
X142448569Y-94802844D01*
X140776538Y-95551538D02*
X141699875Y-95551538D01*
X142448569Y-94802844D02*
X142448569Y-92180149D01*
X142448569Y-92180149D02*
X142299500Y-92031080D01*
X140750000Y-95525000D02*
X140776538Y-95551538D01*
%TO.N,/P1.15*%
X131902480Y-101556500D02*
X132247520Y-101556500D01*
X132500000Y-101304020D02*
X132500000Y-100560872D01*
X133350000Y-82575000D02*
X132496000Y-83429000D01*
X132247520Y-101556500D02*
X132500000Y-101304020D01*
X132496000Y-89800000D02*
X131650000Y-90646000D01*
X132496000Y-83429000D02*
X132496000Y-89800000D01*
X131650000Y-101304020D02*
X131902480Y-101556500D01*
X131650000Y-90646000D02*
X131650000Y-101304020D01*
X132500000Y-100560872D02*
X132319500Y-100380372D01*
%TO.N,/P1.14*%
X134000000Y-83025000D02*
X133400000Y-83025000D01*
X133400000Y-83025000D02*
X132775000Y-83650000D01*
X132896499Y-89721499D02*
X132896499Y-99628501D01*
X132775000Y-89600000D02*
X132896499Y-89721499D01*
X132775000Y-83650000D02*
X132775000Y-89600000D01*
X134450000Y-82575000D02*
X134000000Y-83025000D01*
X132896499Y-99628501D02*
X132775000Y-99750000D01*
%TO.N,/P1.12*%
X136100000Y-83714020D02*
X136100000Y-81435980D01*
X136100000Y-81435980D02*
X135722520Y-81058500D01*
X134716144Y-85458500D02*
X134328538Y-85458500D01*
X135555490Y-84180490D02*
X135121500Y-84614480D01*
X135644480Y-84091500D02*
X135722520Y-84091500D01*
X135722520Y-81058500D02*
X134866500Y-81058500D01*
X135555490Y-84180490D02*
X135644480Y-84091500D01*
X135722520Y-84091500D02*
X136100000Y-83714020D01*
X135121499Y-85053145D02*
X134716144Y-85458500D01*
X134866500Y-81058500D02*
X134450000Y-81475000D01*
X135121500Y-84614480D02*
X135121499Y-85053145D01*
%TO.N,/PGOOD*%
X147660000Y-98025000D02*
X148485000Y-97200000D01*
X146200000Y-98025000D02*
X147660000Y-98025000D01*
X143725000Y-100500000D02*
X146200000Y-98025000D01*
%TO.N,Net-(U5-STAT)*%
X132481000Y-96355443D02*
X132481000Y-99428210D01*
X132400000Y-93425000D02*
X132409014Y-93434014D01*
X132409014Y-96283457D02*
X132481000Y-96355443D01*
X131904000Y-100005210D02*
X131904000Y-100969000D01*
X132481000Y-99428210D02*
X131904000Y-100005210D01*
X132409014Y-93434014D02*
X132409014Y-96283457D01*
X131904000Y-100969000D02*
X132075000Y-101140000D01*
%TO.N,/RESET*%
X142907000Y-99318000D02*
X142907000Y-99025000D01*
X142907000Y-99025000D02*
X143175000Y-98757000D01*
X142907000Y-95967980D02*
X142907000Y-94157020D01*
X143175000Y-97268000D02*
X142907000Y-97000000D01*
X142907000Y-96332020D02*
X142916500Y-96322520D01*
X142689000Y-92033500D02*
X142555500Y-91900000D01*
X143341500Y-93722520D02*
X143341500Y-92277480D01*
X142900000Y-99325000D02*
X142907000Y-99318000D01*
X142907000Y-94157020D02*
X143341500Y-93722520D01*
X142916500Y-96322520D02*
X142916500Y-95977480D01*
X142916500Y-95977480D02*
X142907000Y-95967980D01*
X142907000Y-97000000D02*
X142907000Y-96332020D01*
X143097520Y-92033500D02*
X142689000Y-92033500D01*
X143341500Y-92277480D02*
X143097520Y-92033500D01*
X143175000Y-98757000D02*
X143175000Y-97268000D01*
%TO.N,/USER*%
X135650000Y-98000000D02*
X136525000Y-98875000D01*
X137056000Y-99781000D02*
X137065500Y-99790500D01*
X136375000Y-85600000D02*
X136375000Y-90825000D01*
X136525000Y-98875000D02*
X136525000Y-99781000D01*
X135550000Y-84775000D02*
X136375000Y-85600000D01*
X136375000Y-90825000D02*
X135650000Y-91550000D01*
X136525000Y-99781000D02*
X137056000Y-99781000D01*
X135650000Y-91550000D02*
X135650000Y-98000000D01*
%TO.N,/P1.00*%
X139282000Y-97674734D02*
X139681532Y-98074266D01*
X138850000Y-88502000D02*
X138819500Y-88532500D01*
X138722466Y-90272466D02*
X139400000Y-90950000D01*
X116217062Y-89617062D02*
X116381000Y-89453124D01*
X138819500Y-89437376D02*
X138722466Y-89534410D01*
X116559124Y-89275000D02*
X116850000Y-89275000D01*
X139400000Y-90950000D02*
X139400000Y-93332000D01*
X138722466Y-89534410D02*
X138722466Y-90272466D01*
X138819500Y-88532500D02*
X138819500Y-89437376D01*
X116217062Y-89617062D02*
X116559124Y-89275000D01*
X139400000Y-93332000D02*
X139282000Y-93450000D01*
X116381000Y-89453124D02*
X116466000Y-89453124D01*
X139282000Y-93450000D02*
X139282000Y-97674734D01*
X138850000Y-88075000D02*
X138850000Y-88502000D01*
%TO.N,/SWDCLK*%
X141440500Y-98798498D02*
X141481543Y-98839541D01*
X142599000Y-88474242D02*
X141148242Y-89925000D01*
X141196316Y-98554314D02*
X141211165Y-98554314D01*
X141574013Y-81225987D02*
X141686000Y-81337974D01*
X141025000Y-79275000D02*
X141574013Y-79824013D01*
X141071208Y-94442812D02*
X140717812Y-94442812D01*
X141791500Y-91318258D02*
X141791500Y-93722520D01*
X141686000Y-81337974D02*
X141686000Y-84900020D01*
X142599000Y-85734980D02*
X142599000Y-88474242D01*
X141481543Y-99203742D02*
X141504444Y-99226643D01*
X141481543Y-98839541D02*
X141481543Y-99203742D01*
X142055520Y-85191500D02*
X142599000Y-85734980D01*
X140994000Y-98351998D02*
X141196316Y-98554314D01*
X141791500Y-93722520D02*
X141071208Y-94442812D01*
X141440500Y-98783649D02*
X141440500Y-98798498D01*
X140994000Y-96394000D02*
X140994000Y-98351998D01*
X141686000Y-84900020D02*
X141977480Y-85191500D01*
X141148242Y-89925000D02*
X141148242Y-90675000D01*
X141574013Y-79824013D02*
X141574013Y-81225987D01*
X140275000Y-95675000D02*
X140994000Y-96394000D01*
X141211165Y-98554314D02*
X141440500Y-98783649D01*
X140275000Y-94975000D02*
X140275000Y-95675000D01*
X141977480Y-85191500D02*
X142055520Y-85191500D01*
X140717812Y-94442812D02*
X140230312Y-94930312D01*
X140230312Y-94930312D02*
X140275000Y-94975000D01*
X141148242Y-90675000D02*
X141791500Y-91318258D01*
%TO.N,/RxD*%
X135283000Y-99358000D02*
X136150000Y-100225000D01*
X135396000Y-93155210D02*
X135396000Y-96352026D01*
X135283000Y-96465026D02*
X135283000Y-99358000D01*
X135200000Y-91225000D02*
X135200000Y-92959210D01*
X135133499Y-86558499D02*
X135133499Y-91158499D01*
X135200000Y-92959210D02*
X135396000Y-93155210D01*
X135133499Y-91158499D02*
X135200000Y-91225000D01*
X134450000Y-85875000D02*
X135133499Y-86558499D01*
X135396000Y-96352026D02*
X135283000Y-96465026D01*
%TO.N,/TxD*%
X136643000Y-88755000D02*
X137323000Y-88075000D01*
X137593000Y-95875000D02*
X136525000Y-94807000D01*
X137593000Y-99783000D02*
X137593000Y-95875000D01*
X137323000Y-88075000D02*
X137750000Y-88075000D01*
X137740500Y-99930500D02*
X137593000Y-99783000D01*
X136525000Y-94807000D02*
X136525000Y-91035624D01*
X136643000Y-90917624D02*
X136643000Y-88755000D01*
X136525000Y-91035624D02*
X136643000Y-90917624D01*
X137250000Y-100900000D02*
X137740500Y-100409500D01*
X137740500Y-100409500D02*
X137740500Y-99930500D01*
%TO.N,/SWDIO*%
X140754193Y-92034480D02*
X140754193Y-94045807D01*
X139073500Y-89542586D02*
X138976466Y-89639620D01*
X139883530Y-82130490D02*
X139805490Y-82130490D01*
X140619000Y-91899287D02*
X140754193Y-92034480D01*
X140619000Y-91758020D02*
X140619000Y-91899287D01*
X139398000Y-88408078D02*
X139073500Y-88732578D01*
X139875000Y-94925000D02*
X139875000Y-95825000D01*
X139073500Y-88732578D02*
X139073500Y-89542586D01*
X138976466Y-90115486D02*
X140619000Y-91758020D01*
X140633500Y-81380520D02*
X139883530Y-82130490D01*
X139875000Y-95825000D02*
X140619000Y-96569000D01*
X140619000Y-98738901D02*
X140900000Y-99019901D01*
X139805490Y-82130490D02*
X139398000Y-82537980D01*
X140754193Y-94045807D02*
X139875000Y-94925000D01*
X139398000Y-82537980D02*
X139398000Y-88408078D01*
X140633500Y-80791500D02*
X140633500Y-81380520D01*
X141050000Y-80375000D02*
X140633500Y-80791500D01*
X140619000Y-96569000D02*
X140619000Y-98738901D01*
X138976466Y-89639620D02*
X138976466Y-90115486D01*
%TD*%
%TA.AperFunction,Conductor*%
%TO.N,/P1.12*%
G36*
X134095484Y-99762085D02*
G01*
X134098911Y-99770358D01*
X134098910Y-99770468D01*
X134095187Y-100167425D01*
X134091683Y-100175665D01*
X134083378Y-100179014D01*
X134081255Y-100178800D01*
X133879181Y-100139520D01*
X133871714Y-100134578D01*
X133871670Y-100134511D01*
X133755091Y-99959105D01*
X133753365Y-99950318D01*
X133757196Y-99943767D01*
X133968730Y-99761494D01*
X133976365Y-99758658D01*
X134087213Y-99758658D01*
X134095484Y-99762085D01*
G37*
%TD.AperFunction*%
%TD*%
%TA.AperFunction,Conductor*%
%TO.N,/HK-ADC3*%
G36*
X115396505Y-86720700D02*
G01*
X115475013Y-86799208D01*
X115478440Y-86807481D01*
X115477459Y-86812172D01*
X115393686Y-87003603D01*
X115391241Y-87007185D01*
X115374196Y-87024231D01*
X115345119Y-87094428D01*
X115345119Y-87112139D01*
X115344138Y-87116830D01*
X115313276Y-87187354D01*
X115306819Y-87193559D01*
X115297866Y-87193382D01*
X115296099Y-87192419D01*
X115121896Y-87077115D01*
X115118598Y-87073817D01*
X115085777Y-87024231D01*
X115004976Y-86902156D01*
X115003268Y-86893368D01*
X115008275Y-86885944D01*
X115008827Y-86885602D01*
X115032401Y-86871991D01*
X115033507Y-86871432D01*
X115037181Y-86869824D01*
X115038818Y-86869250D01*
X115098472Y-86853267D01*
X115109266Y-86850376D01*
X115109969Y-86850210D01*
X115110030Y-86850198D01*
X115113188Y-86849318D01*
X115130741Y-86843067D01*
X115137694Y-86840024D01*
X115147152Y-86837490D01*
X115158634Y-86830860D01*
X115176471Y-86823055D01*
X115186757Y-86818013D01*
X115188524Y-86817050D01*
X115197962Y-86808462D01*
X115199977Y-86806990D01*
X115227532Y-86791082D01*
X115234077Y-86784536D01*
X115237648Y-86782098D01*
X115383543Y-86718253D01*
X115392495Y-86718077D01*
X115396505Y-86720700D01*
G37*
%TD.AperFunction*%
%TD*%
%TA.AperFunction,Conductor*%
%TO.N,/HK-ADC2*%
G36*
X116143543Y-79634728D02*
G01*
X116350330Y-79946106D01*
X116352052Y-79954894D01*
X116348856Y-79960852D01*
X116270269Y-80039439D01*
X116261996Y-80042866D01*
X116259663Y-80042631D01*
X115917478Y-79972991D01*
X115910054Y-79967983D01*
X115908327Y-79959286D01*
X115910898Y-79946106D01*
X115948354Y-79754101D01*
X115953301Y-79746639D01*
X116127339Y-79631444D01*
X116136129Y-79629736D01*
X116143543Y-79634728D01*
G37*
%TD.AperFunction*%
%TD*%
%TA.AperFunction,Conductor*%
%TO.N,/HK-ADC2*%
G36*
X115022805Y-87414020D02*
G01*
X115130143Y-87444859D01*
X115135184Y-87447831D01*
X115218144Y-87530791D01*
X115221571Y-87539064D01*
X115221211Y-87541943D01*
X115190128Y-87664368D01*
X115184771Y-87671544D01*
X115176548Y-87672973D01*
X114977577Y-87634158D01*
X114970113Y-87629210D01*
X114968333Y-87620434D01*
X114968347Y-87620363D01*
X114985445Y-87535496D01*
X115008118Y-87422954D01*
X115013111Y-87415524D01*
X115021898Y-87413798D01*
X115022805Y-87414020D01*
G37*
%TD.AperFunction*%
%TD*%
%TA.AperFunction,Conductor*%
%TO.N,/HK-ADC3*%
G36*
X115752396Y-81443702D02*
G01*
X115927136Y-81559361D01*
X115932143Y-81566784D01*
X115932162Y-81566877D01*
X115971959Y-81770878D01*
X115970179Y-81779654D01*
X115962715Y-81784602D01*
X115961668Y-81784757D01*
X115605790Y-81821244D01*
X115597211Y-81818679D01*
X115596324Y-81817878D01*
X115517822Y-81739376D01*
X115514395Y-81731103D01*
X115516920Y-81723842D01*
X115736766Y-81446194D01*
X115744588Y-81441836D01*
X115752396Y-81443702D01*
G37*
%TD.AperFunction*%
%TD*%
%TA.AperFunction,Conductor*%
%TO.N,/DISPON*%
G36*
X119078678Y-78376995D02*
G01*
X119078756Y-78377047D01*
X119251559Y-78493433D01*
X119256507Y-78500897D01*
X119254727Y-78509673D01*
X119254382Y-78510159D01*
X119042012Y-78793197D01*
X119034305Y-78797758D01*
X119032653Y-78797875D01*
X118921559Y-78797875D01*
X118913286Y-78794448D01*
X118909992Y-78787931D01*
X118867748Y-78509673D01*
X118855684Y-78430205D01*
X118857830Y-78421512D01*
X118864917Y-78416985D01*
X119069888Y-78375286D01*
X119078678Y-78376995D01*
G37*
%TD.AperFunction*%
%TD*%
%TA.AperFunction,Conductor*%
%TO.N,/DISPON*%
G36*
X119381886Y-96945605D02*
G01*
X119460394Y-97024113D01*
X119463821Y-97032386D01*
X119462840Y-97037077D01*
X119298657Y-97412259D01*
X119292200Y-97418464D01*
X119283247Y-97418287D01*
X119281480Y-97417324D01*
X119107277Y-97302020D01*
X119103979Y-97298722D01*
X118988675Y-97124519D01*
X118986966Y-97115728D01*
X118991973Y-97108305D01*
X118993734Y-97107344D01*
X119368924Y-96943158D01*
X119377875Y-96942982D01*
X119381886Y-96945605D01*
G37*
%TD.AperFunction*%
%TD*%
%TA.AperFunction,Conductor*%
%TO.N,/P1.05*%
G36*
X115148401Y-90423007D02*
G01*
X115151024Y-90427018D01*
X115300223Y-90808408D01*
X115300046Y-90817361D01*
X115293589Y-90823566D01*
X115291659Y-90824135D01*
X115086946Y-90865782D01*
X115082282Y-90865782D01*
X114877568Y-90824135D01*
X114870144Y-90819128D01*
X114868435Y-90810338D01*
X114869002Y-90808414D01*
X115018204Y-90427017D01*
X115024409Y-90420561D01*
X115029100Y-90419580D01*
X115140128Y-90419580D01*
X115148401Y-90423007D01*
G37*
%TD.AperFunction*%
%TD*%
%TA.AperFunction,Conductor*%
%TO.N,/RESET*%
G36*
X118639279Y-82979132D02*
G01*
X118646702Y-82984139D01*
X118648411Y-82992929D01*
X118647842Y-82994859D01*
X118498643Y-83376250D01*
X118492438Y-83382707D01*
X118487747Y-83383688D01*
X118376719Y-83383688D01*
X118368446Y-83380261D01*
X118365823Y-83376250D01*
X118216623Y-82994859D01*
X118216800Y-82985906D01*
X118223257Y-82979701D01*
X118225177Y-82979134D01*
X118429903Y-82937485D01*
X118434563Y-82937485D01*
X118639279Y-82979132D01*
G37*
%TD.AperFunction*%
%TD*%
%TA.AperFunction,Conductor*%
%TO.N,/RESET*%
G36*
X119377104Y-97584567D02*
G01*
X119383309Y-97591024D01*
X119383878Y-97592954D01*
X119425525Y-97797668D01*
X119425525Y-97802332D01*
X119383878Y-98007045D01*
X119378871Y-98014469D01*
X119370081Y-98016178D01*
X119368151Y-98015609D01*
X118986761Y-97866409D01*
X118980304Y-97860204D01*
X118979323Y-97855513D01*
X118979323Y-97744486D01*
X118982750Y-97736213D01*
X118986760Y-97733590D01*
X119368152Y-97584390D01*
X119377104Y-97584567D01*
G37*
%TD.AperFunction*%
%TD*%
%TA.AperFunction,Conductor*%
%TO.N,/PGOOD*%
G36*
X118437074Y-98148658D02*
G01*
X118651693Y-98242577D01*
X118812259Y-98312842D01*
X118818464Y-98319299D01*
X118818287Y-98328252D01*
X118817324Y-98330019D01*
X118702020Y-98504222D01*
X118698722Y-98507520D01*
X118524519Y-98622824D01*
X118515728Y-98624533D01*
X118508305Y-98619526D01*
X118507342Y-98617759D01*
X118343158Y-98242575D01*
X118342982Y-98233624D01*
X118345603Y-98229615D01*
X118424114Y-98151104D01*
X118432386Y-98147678D01*
X118437074Y-98148658D01*
G37*
%TD.AperFunction*%
%TD*%
%TA.AperFunction,Conductor*%
%TO.N,/P1.00*%
G36*
X118124354Y-98577828D02*
G01*
X118129925Y-98584839D01*
X118130147Y-98585747D01*
X118171279Y-98789909D01*
X118169553Y-98798696D01*
X118169509Y-98798763D01*
X118053111Y-98971331D01*
X118045643Y-98976273D01*
X118036868Y-98974488D01*
X118036819Y-98974454D01*
X117779099Y-98798696D01*
X117727226Y-98763320D01*
X117722323Y-98755829D01*
X117724153Y-98747063D01*
X117725541Y-98745387D01*
X117803226Y-98667702D01*
X117808276Y-98664730D01*
X118115459Y-98576810D01*
X118124354Y-98577828D01*
G37*
%TD.AperFunction*%
%TD*%
%TA.AperFunction,Conductor*%
%TO.N,/VBUS*%
G36*
X146954326Y-88782892D02*
G01*
X146958161Y-88789430D01*
X147000525Y-88997668D01*
X147000525Y-89002332D01*
X146958161Y-89210569D01*
X146953154Y-89217993D01*
X146945820Y-89219904D01*
X146565147Y-89191312D01*
X146557153Y-89187275D01*
X146554323Y-89179645D01*
X146554323Y-88820354D01*
X146557750Y-88812081D01*
X146565147Y-88808687D01*
X146945821Y-88780095D01*
X146954326Y-88782892D01*
G37*
%TD.AperFunction*%
%TD*%
%TA.AperFunction,Conductor*%
%TO.N,/VBUS*%
G36*
X143942104Y-88270293D02*
G01*
X143947052Y-88277757D01*
X143947184Y-88278595D01*
X143981698Y-88564509D01*
X143979287Y-88573133D01*
X143978355Y-88574184D01*
X143725148Y-88827391D01*
X143716875Y-88830818D01*
X143708602Y-88827391D01*
X143706139Y-88823767D01*
X143541775Y-88443916D01*
X143541636Y-88434964D01*
X143545969Y-88429572D01*
X143722327Y-88310618D01*
X143726620Y-88308839D01*
X143933330Y-88268513D01*
X143942104Y-88270293D01*
G37*
%TD.AperFunction*%
%TD*%
%TA.AperFunction,Conductor*%
%TO.N,/RESET*%
G36*
X146022046Y-78291121D02*
G01*
X146029469Y-78296128D01*
X146031178Y-78304918D01*
X146030609Y-78306848D01*
X145881410Y-78688239D01*
X145875205Y-78694696D01*
X145870514Y-78695677D01*
X145759486Y-78695677D01*
X145751213Y-78692250D01*
X145748590Y-78688239D01*
X145599390Y-78306848D01*
X145599567Y-78297895D01*
X145606024Y-78291690D01*
X145607944Y-78291123D01*
X145812670Y-78249474D01*
X145817330Y-78249474D01*
X146022046Y-78291121D01*
G37*
%TD.AperFunction*%
%TD*%
%TA.AperFunction,Conductor*%
%TO.N,/PGOOD*%
G36*
X143291694Y-91435973D02*
G01*
X143292657Y-91437740D01*
X143456840Y-91812922D01*
X143457017Y-91821875D01*
X143454394Y-91825886D01*
X143375886Y-91904394D01*
X143367613Y-91907821D01*
X143362922Y-91906840D01*
X142987740Y-91742657D01*
X142981535Y-91736200D01*
X142981712Y-91727247D01*
X142982671Y-91725485D01*
X143097981Y-91551274D01*
X143101274Y-91547981D01*
X143275481Y-91432674D01*
X143284271Y-91430966D01*
X143291694Y-91435973D01*
G37*
%TD.AperFunction*%
%TD*%
%TA.AperFunction,Conductor*%
%TO.N,/PGOOD*%
G36*
X148237840Y-96831762D02*
G01*
X148403806Y-96912549D01*
X148597997Y-97007075D01*
X148603936Y-97013777D01*
X148603396Y-97022716D01*
X148602632Y-97024053D01*
X148488381Y-97196649D01*
X148480957Y-97201656D01*
X148480864Y-97201675D01*
X148273946Y-97242018D01*
X148265170Y-97240237D01*
X148260793Y-97234748D01*
X148139903Y-96921501D01*
X148140121Y-96912549D01*
X148142912Y-96908665D01*
X148224820Y-96833654D01*
X148233235Y-96830594D01*
X148237840Y-96831762D01*
G37*
%TD.AperFunction*%
%TD*%
%TA.AperFunction,Conductor*%
%TO.N,/P1.13*%
G36*
X111913787Y-91333750D02*
G01*
X111916410Y-91337761D01*
X112065609Y-91719151D01*
X112065432Y-91728104D01*
X112058975Y-91734309D01*
X112057045Y-91734878D01*
X111852332Y-91776525D01*
X111847668Y-91776525D01*
X111642954Y-91734878D01*
X111635530Y-91729871D01*
X111633821Y-91721081D01*
X111634388Y-91719157D01*
X111783590Y-91337760D01*
X111789795Y-91331304D01*
X111794486Y-91330323D01*
X111905514Y-91330323D01*
X111913787Y-91333750D01*
G37*
%TD.AperFunction*%
%TD*%
%TA.AperFunction,Conductor*%
%TO.N,/AIN6*%
G36*
X110363787Y-90832750D02*
G01*
X110366410Y-90836761D01*
X110515609Y-91218151D01*
X110515432Y-91227104D01*
X110508975Y-91233309D01*
X110507045Y-91233878D01*
X110302332Y-91275525D01*
X110297668Y-91275525D01*
X110092954Y-91233878D01*
X110085530Y-91228871D01*
X110083821Y-91220081D01*
X110084388Y-91218157D01*
X110233590Y-90836760D01*
X110239795Y-90830304D01*
X110244486Y-90829323D01*
X110355514Y-90829323D01*
X110363787Y-90832750D01*
G37*
%TD.AperFunction*%
%TD*%
%TA.AperFunction,Conductor*%
%TO.N,/AIN6*%
G36*
X111843573Y-84609657D02*
G01*
X112010845Y-84858540D01*
X112012834Y-84865066D01*
X112012834Y-84975503D01*
X112009407Y-84983776D01*
X112001134Y-84987203D01*
X111999909Y-84987139D01*
X111618800Y-84947013D01*
X111610931Y-84942738D01*
X111608389Y-84934152D01*
X111608536Y-84933166D01*
X111648066Y-84729802D01*
X111653006Y-84722337D01*
X111827389Y-84606438D01*
X111836173Y-84604713D01*
X111843573Y-84609657D01*
G37*
%TD.AperFunction*%
%TD*%
%TA.AperFunction,Conductor*%
%TO.N,/P1.01*%
G36*
X114922793Y-89305309D02*
G01*
X115234268Y-89512061D01*
X115239265Y-89519492D01*
X115237553Y-89528267D01*
X115122412Y-89702223D01*
X115114989Y-89707230D01*
X115114896Y-89707249D01*
X114909710Y-89747277D01*
X114900934Y-89745497D01*
X114896006Y-89738130D01*
X114826273Y-89395982D01*
X114827978Y-89387191D01*
X114829459Y-89385377D01*
X114908052Y-89306784D01*
X114916324Y-89303358D01*
X114922793Y-89305309D01*
G37*
%TD.AperFunction*%
%TD*%
%TA.AperFunction,Conductor*%
%TO.N,/P1.01*%
G36*
X114833844Y-86390724D02*
G01*
X114835611Y-86391687D01*
X115009814Y-86506991D01*
X115013112Y-86510289D01*
X115128416Y-86684492D01*
X115130125Y-86693283D01*
X115125118Y-86700706D01*
X115123351Y-86701669D01*
X115077621Y-86721681D01*
X115074463Y-86722561D01*
X115074212Y-86722594D01*
X114984560Y-86746615D01*
X114984556Y-86746617D01*
X114904179Y-86793024D01*
X114897635Y-86799566D01*
X114894055Y-86802010D01*
X114748169Y-86865852D01*
X114739216Y-86866029D01*
X114735205Y-86863406D01*
X114656697Y-86784898D01*
X114653270Y-86776625D01*
X114654250Y-86771938D01*
X114818434Y-86396751D01*
X114824891Y-86390547D01*
X114833844Y-86390724D01*
G37*
%TD.AperFunction*%
%TD*%
%TA.AperFunction,Conductor*%
%TO.N,/P1.07*%
G36*
X116669181Y-99274578D02*
G01*
X117004428Y-99361070D01*
X117011582Y-99366454D01*
X117012988Y-99374638D01*
X116972848Y-99580396D01*
X116967900Y-99587860D01*
X116967822Y-99587912D01*
X116794253Y-99702797D01*
X116785462Y-99704506D01*
X116778039Y-99699499D01*
X116777813Y-99699145D01*
X116580173Y-99374638D01*
X116577694Y-99370567D01*
X116576318Y-99361719D01*
X116579412Y-99356210D01*
X116657988Y-99277634D01*
X116666260Y-99274208D01*
X116669181Y-99274578D01*
G37*
%TD.AperFunction*%
%TD*%
%TA.AperFunction,Conductor*%
%TO.N,/P1.07*%
G36*
X113906845Y-91559389D02*
G01*
X114288239Y-91708590D01*
X114294696Y-91714795D01*
X114295677Y-91719486D01*
X114295677Y-91830513D01*
X114292250Y-91838786D01*
X114288239Y-91841409D01*
X113906848Y-91990609D01*
X113897895Y-91990432D01*
X113891690Y-91983975D01*
X113891123Y-91982052D01*
X113849474Y-91777329D01*
X113849474Y-91772668D01*
X113891122Y-91567952D01*
X113896128Y-91560530D01*
X113904918Y-91558821D01*
X113906845Y-91559389D01*
G37*
%TD.AperFunction*%
%TD*%
%TA.AperFunction,Conductor*%
%TO.N,/SCL*%
G36*
X117750009Y-99042877D02*
G01*
X117755028Y-99050293D01*
X117755036Y-99050332D01*
X117796353Y-99255409D01*
X117794627Y-99264196D01*
X117794583Y-99264263D01*
X117678693Y-99436079D01*
X117671226Y-99441021D01*
X117662450Y-99439236D01*
X117661702Y-99438686D01*
X117362719Y-99200440D01*
X117358385Y-99192606D01*
X117360861Y-99184001D01*
X117361729Y-99183028D01*
X117439798Y-99104959D01*
X117445716Y-99101773D01*
X117741217Y-99041181D01*
X117750009Y-99042877D01*
G37*
%TD.AperFunction*%
%TD*%
%TA.AperFunction,Conductor*%
%TO.N,/SCL*%
G36*
X116802104Y-88059567D02*
G01*
X116808309Y-88066024D01*
X116808878Y-88067954D01*
X116850525Y-88272668D01*
X116850525Y-88277332D01*
X116808878Y-88482045D01*
X116803871Y-88489469D01*
X116795081Y-88491178D01*
X116793151Y-88490609D01*
X116411761Y-88341409D01*
X116405304Y-88335204D01*
X116404323Y-88330513D01*
X116404323Y-88219486D01*
X116407750Y-88211213D01*
X116411760Y-88208590D01*
X116793152Y-88059390D01*
X116802104Y-88059567D01*
G37*
%TD.AperFunction*%
%TD*%
%TA.AperFunction,Conductor*%
%TO.N,/P0.30*%
G36*
X133937057Y-94694737D02*
G01*
X133944639Y-94698729D01*
X134225035Y-94846331D01*
X134230759Y-94853217D01*
X134229938Y-94862134D01*
X134229329Y-94863160D01*
X134114208Y-95036373D01*
X134106775Y-95041367D01*
X134106696Y-95041382D01*
X133902097Y-95081152D01*
X133893322Y-95079367D01*
X133888423Y-95072112D01*
X133880786Y-95036373D01*
X133810521Y-94707534D01*
X133812144Y-94698729D01*
X133819518Y-94693649D01*
X133821963Y-94693391D01*
X133931608Y-94693391D01*
X133937057Y-94694737D01*
G37*
%TD.AperFunction*%
%TD*%
%TA.AperFunction,Conductor*%
%TO.N,/P0.30*%
G36*
X134272752Y-80256712D02*
G01*
X134274519Y-80257675D01*
X134448722Y-80372979D01*
X134452020Y-80376277D01*
X134567324Y-80550480D01*
X134569033Y-80559271D01*
X134564026Y-80566694D01*
X134562259Y-80567657D01*
X134187077Y-80731840D01*
X134178124Y-80732017D01*
X134174113Y-80729394D01*
X134095605Y-80650886D01*
X134092178Y-80642613D01*
X134093158Y-80637926D01*
X134257342Y-80262739D01*
X134263799Y-80256535D01*
X134272752Y-80256712D01*
G37*
%TD.AperFunction*%
%TD*%
%TA.AperFunction,Conductor*%
%TO.N,/QSPI-IO3*%
G36*
X141257046Y-82616121D02*
G01*
X141264469Y-82621128D01*
X141266178Y-82629918D01*
X141265609Y-82631848D01*
X141116410Y-83013239D01*
X141110205Y-83019696D01*
X141105514Y-83020677D01*
X140994486Y-83020677D01*
X140986213Y-83017250D01*
X140983590Y-83013239D01*
X140834390Y-82631848D01*
X140834567Y-82622895D01*
X140841024Y-82616690D01*
X140842944Y-82616123D01*
X141047670Y-82574474D01*
X141052330Y-82574474D01*
X141257046Y-82616121D01*
G37*
%TD.AperFunction*%
%TD*%
%TA.AperFunction,Conductor*%
%TO.N,/QSPI-IO3*%
G36*
X141106201Y-92276843D02*
G01*
X141106467Y-92277117D01*
X141352687Y-92539969D01*
X141355842Y-92548350D01*
X141352147Y-92556507D01*
X141350684Y-92557672D01*
X141179065Y-92673261D01*
X141170289Y-92675041D01*
X141170197Y-92675022D01*
X140964284Y-92633131D01*
X140956860Y-92628124D01*
X140954937Y-92620960D01*
X140975334Y-92284408D01*
X140979255Y-92276358D01*
X140987013Y-92273416D01*
X141097928Y-92273416D01*
X141106201Y-92276843D01*
G37*
%TD.AperFunction*%
%TD*%
%TA.AperFunction,Conductor*%
%TO.N,/QSPI-SCK*%
G36*
X142206847Y-82359389D02*
G01*
X142588241Y-82508590D01*
X142594698Y-82514795D01*
X142595679Y-82519486D01*
X142595679Y-82630513D01*
X142592252Y-82638786D01*
X142588241Y-82641409D01*
X142206850Y-82790609D01*
X142197897Y-82790432D01*
X142191692Y-82783975D01*
X142191125Y-82782052D01*
X142149476Y-82577329D01*
X142149476Y-82572668D01*
X142191124Y-82367952D01*
X142196130Y-82360530D01*
X142204920Y-82358821D01*
X142206847Y-82359389D01*
G37*
%TD.AperFunction*%
%TD*%
%TA.AperFunction,Conductor*%
%TO.N,/QSPI-SCK*%
G36*
X143367221Y-86082750D02*
G01*
X143369844Y-86086761D01*
X143519043Y-86468151D01*
X143518866Y-86477104D01*
X143512409Y-86483309D01*
X143510479Y-86483878D01*
X143305766Y-86525525D01*
X143301102Y-86525525D01*
X143096388Y-86483878D01*
X143088964Y-86478871D01*
X143087255Y-86470081D01*
X143087822Y-86468157D01*
X143237024Y-86086760D01*
X143243229Y-86080304D01*
X143247920Y-86079323D01*
X143358948Y-86079323D01*
X143367221Y-86082750D01*
G37*
%TD.AperFunction*%
%TD*%
%TA.AperFunction,Conductor*%
%TO.N,/QSPI-IO1*%
G36*
X141257046Y-83716121D02*
G01*
X141264469Y-83721128D01*
X141266178Y-83729918D01*
X141265609Y-83731848D01*
X141116410Y-84113239D01*
X141110205Y-84119696D01*
X141105514Y-84120677D01*
X140994486Y-84120677D01*
X140986213Y-84117250D01*
X140983590Y-84113239D01*
X140834390Y-83731848D01*
X140834567Y-83722895D01*
X140841024Y-83716690D01*
X140842944Y-83716123D01*
X141047670Y-83674474D01*
X141052330Y-83674474D01*
X141257046Y-83716121D01*
G37*
%TD.AperFunction*%
%TD*%
%TA.AperFunction,Conductor*%
%TO.N,/QSPI-IO1*%
G36*
X139876873Y-88965042D02*
G01*
X140181528Y-89093649D01*
X140187816Y-89100023D01*
X140188677Y-89104427D01*
X140188677Y-89215458D01*
X140185250Y-89223731D01*
X140180958Y-89226460D01*
X139799638Y-89364444D01*
X139790693Y-89364037D01*
X139784655Y-89357423D01*
X139784195Y-89355785D01*
X139742977Y-89153181D01*
X139744686Y-89144391D01*
X139744685Y-89144391D01*
X139862623Y-88969284D01*
X139870086Y-88964338D01*
X139876873Y-88965042D01*
G37*
%TD.AperFunction*%
%TD*%
%TA.AperFunction,Conductor*%
%TO.N,/QSPI-IO2*%
G36*
X141275886Y-94595605D02*
G01*
X141354394Y-94674113D01*
X141357821Y-94682386D01*
X141356840Y-94687077D01*
X141192657Y-95062259D01*
X141186200Y-95068464D01*
X141177247Y-95068287D01*
X141175480Y-95067324D01*
X141001277Y-94952020D01*
X140997979Y-94948722D01*
X140882675Y-94774519D01*
X140880966Y-94765728D01*
X140885973Y-94758305D01*
X140887734Y-94757344D01*
X141262924Y-94593158D01*
X141271875Y-94592982D01*
X141275886Y-94595605D01*
G37*
%TD.AperFunction*%
%TD*%
%TA.AperFunction,Conductor*%
%TO.N,/QSPI-IO2*%
G36*
X131158579Y-94946810D02*
G01*
X131411646Y-95202611D01*
X131415029Y-95210902D01*
X131411558Y-95219156D01*
X131409865Y-95220543D01*
X131238565Y-95335917D01*
X131229789Y-95337697D01*
X131229697Y-95337678D01*
X131023589Y-95295747D01*
X131016165Y-95290740D01*
X131014231Y-95283803D01*
X131017149Y-95212653D01*
X131027729Y-94954604D01*
X131031492Y-94946478D01*
X131039419Y-94943383D01*
X131150306Y-94943383D01*
X131158579Y-94946810D01*
G37*
%TD.AperFunction*%
%TD*%
%TA.AperFunction,Conductor*%
%TO.N,/QSPI-IO2*%
G36*
X131260378Y-90976576D02*
G01*
X131267802Y-90981583D01*
X131269511Y-90990373D01*
X131269274Y-90991329D01*
X131157652Y-91372484D01*
X131152039Y-91379461D01*
X131146424Y-91380896D01*
X131035365Y-91380896D01*
X131027092Y-91377469D01*
X131024936Y-91374500D01*
X130869786Y-91069447D01*
X130869090Y-91060519D01*
X130873677Y-91054440D01*
X131048110Y-90936956D01*
X131056884Y-90935177D01*
X131260378Y-90976576D01*
G37*
%TD.AperFunction*%
%TD*%
%TA.AperFunction,Conductor*%
%TO.N,/QSPI-IO2*%
G36*
X142367967Y-84735125D02*
G01*
X142372915Y-84742589D01*
X142372915Y-84742591D01*
X142439832Y-85085900D01*
X142438051Y-85094676D01*
X142436621Y-85096411D01*
X142358035Y-85174997D01*
X142349762Y-85178424D01*
X142343226Y-85176428D01*
X142244105Y-85109664D01*
X142242368Y-85108233D01*
X142163714Y-85029579D01*
X142163713Y-85029578D01*
X142163711Y-85029577D01*
X142093514Y-85000500D01*
X142093512Y-85000500D01*
X142085608Y-85000500D01*
X142079072Y-84998504D01*
X142034622Y-84968564D01*
X142029674Y-84961100D01*
X142031401Y-84952405D01*
X142146588Y-84778378D01*
X142154011Y-84773373D01*
X142154045Y-84773365D01*
X142359192Y-84733345D01*
X142367967Y-84735125D01*
G37*
%TD.AperFunction*%
%TD*%
%TA.AperFunction,Conductor*%
%TO.N,/P0.02-NFC1*%
G36*
X138506974Y-93866613D02*
G01*
X138771615Y-93964988D01*
X138778175Y-93971083D01*
X138779015Y-93978228D01*
X138738582Y-94182423D01*
X138733614Y-94189873D01*
X138729337Y-94191635D01*
X138526074Y-94231145D01*
X138517299Y-94229360D01*
X138512894Y-94223786D01*
X138383967Y-93881706D01*
X138384256Y-93872756D01*
X138390789Y-93866632D01*
X138394915Y-93865880D01*
X138502897Y-93865880D01*
X138506974Y-93866613D01*
G37*
%TD.AperFunction*%
%TD*%
%TA.AperFunction,Conductor*%
%TO.N,/P0.02-NFC1*%
G36*
X137941694Y-85760973D02*
G01*
X137942657Y-85762740D01*
X138106840Y-86137922D01*
X138107017Y-86146875D01*
X138104394Y-86150886D01*
X138025886Y-86229394D01*
X138017613Y-86232821D01*
X138012922Y-86231840D01*
X137637740Y-86067657D01*
X137631535Y-86061200D01*
X137631712Y-86052247D01*
X137632671Y-86050485D01*
X137747981Y-85876274D01*
X137751274Y-85872981D01*
X137925481Y-85757674D01*
X137934271Y-85755966D01*
X137941694Y-85760973D01*
G37*
%TD.AperFunction*%
%TD*%
%TA.AperFunction,Conductor*%
%TO.N,/P0.03-NFC2*%
G36*
X137941694Y-86860973D02*
G01*
X137942657Y-86862740D01*
X138106840Y-87237922D01*
X138107017Y-87246875D01*
X138104394Y-87250886D01*
X138025886Y-87329394D01*
X138017613Y-87332821D01*
X138012922Y-87331840D01*
X137637740Y-87167657D01*
X137631535Y-87161200D01*
X137631712Y-87152247D01*
X137632671Y-87150485D01*
X137747981Y-86976274D01*
X137751274Y-86972981D01*
X137925481Y-86857674D01*
X137934271Y-86855966D01*
X137941694Y-86860973D01*
G37*
%TD.AperFunction*%
%TD*%
%TA.AperFunction,Conductor*%
%TO.N,/P0.03-NFC2*%
G36*
X137599297Y-93015749D02*
G01*
X137912454Y-93157249D01*
X137918582Y-93163778D01*
X137918298Y-93172729D01*
X137917380Y-93174387D01*
X137802708Y-93346924D01*
X137795275Y-93351918D01*
X137795196Y-93351933D01*
X137589831Y-93391852D01*
X137581056Y-93390067D01*
X137576357Y-93383608D01*
X137567220Y-93351918D01*
X137546346Y-93279517D01*
X137474308Y-93029652D01*
X137475309Y-93020754D01*
X137482309Y-93015169D01*
X137485550Y-93014711D01*
X137594479Y-93014711D01*
X137599297Y-93015749D01*
G37*
%TD.AperFunction*%
%TD*%
%TA.AperFunction,Conductor*%
%TO.N,/DP*%
G36*
X149282046Y-85291121D02*
G01*
X149289469Y-85296128D01*
X149291178Y-85304918D01*
X149290609Y-85306848D01*
X149141410Y-85688239D01*
X149135205Y-85694696D01*
X149130514Y-85695677D01*
X149019486Y-85695677D01*
X149011213Y-85692250D01*
X149008590Y-85688239D01*
X148859390Y-85306848D01*
X148859567Y-85297895D01*
X148866024Y-85291690D01*
X148867944Y-85291123D01*
X149072670Y-85249474D01*
X149077330Y-85249474D01*
X149282046Y-85291121D01*
G37*
%TD.AperFunction*%
%TD*%
%TA.AperFunction,Conductor*%
%TO.N,/DP*%
G36*
X149138787Y-85807750D02*
G01*
X149141410Y-85811761D01*
X149290609Y-86193151D01*
X149290432Y-86202104D01*
X149283975Y-86208309D01*
X149282045Y-86208878D01*
X149077332Y-86250525D01*
X149072668Y-86250525D01*
X148867954Y-86208878D01*
X148860530Y-86203871D01*
X148858821Y-86195081D01*
X148859388Y-86193157D01*
X149008590Y-85811760D01*
X149014795Y-85805304D01*
X149019486Y-85804323D01*
X149130514Y-85804323D01*
X149138787Y-85807750D01*
G37*
%TD.AperFunction*%
%TD*%
%TA.AperFunction,Conductor*%
%TO.N,/VBUS*%
G36*
X134494546Y-91153621D02*
G01*
X134501969Y-91158628D01*
X134503678Y-91167418D01*
X134503109Y-91169348D01*
X134353910Y-91550739D01*
X134347705Y-91557196D01*
X134343014Y-91558177D01*
X134231986Y-91558177D01*
X134223713Y-91554750D01*
X134221090Y-91550739D01*
X134071890Y-91169348D01*
X134072067Y-91160395D01*
X134078524Y-91154190D01*
X134080444Y-91153623D01*
X134285170Y-91111974D01*
X134289830Y-91111974D01*
X134494546Y-91153621D01*
G37*
%TD.AperFunction*%
%TD*%
%TA.AperFunction,Conductor*%
%TO.N,/VBUS*%
G36*
X130309345Y-103156889D02*
G01*
X130690739Y-103306090D01*
X130697196Y-103312295D01*
X130698177Y-103316986D01*
X130698177Y-103428013D01*
X130694750Y-103436286D01*
X130690739Y-103438909D01*
X130309348Y-103588109D01*
X130300395Y-103587932D01*
X130294190Y-103581475D01*
X130293623Y-103579552D01*
X130251974Y-103374829D01*
X130251974Y-103370168D01*
X130293622Y-103165452D01*
X130298628Y-103158030D01*
X130307418Y-103156321D01*
X130309345Y-103156889D01*
G37*
%TD.AperFunction*%
%TD*%
%TA.AperFunction,Conductor*%
%TO.N,/PSMODE*%
G36*
X142582752Y-90281712D02*
G01*
X142584519Y-90282675D01*
X142758722Y-90397979D01*
X142762020Y-90401277D01*
X142877324Y-90575480D01*
X142879033Y-90584271D01*
X142874026Y-90591694D01*
X142872259Y-90592657D01*
X142497077Y-90756840D01*
X142488124Y-90757017D01*
X142484113Y-90754394D01*
X142405605Y-90675886D01*
X142402178Y-90667613D01*
X142403158Y-90662926D01*
X142567342Y-90287739D01*
X142573799Y-90281535D01*
X142582752Y-90281712D01*
G37*
%TD.AperFunction*%
%TD*%
%TA.AperFunction,Conductor*%
%TO.N,/PSMODE*%
G36*
X140884073Y-95342165D02*
G01*
X141188938Y-95484883D01*
X141194977Y-95491494D01*
X141195677Y-95495479D01*
X141195677Y-95606538D01*
X141192250Y-95614811D01*
X141187595Y-95617665D01*
X140806363Y-95741622D01*
X140797435Y-95740921D01*
X140791618Y-95734113D01*
X140791283Y-95732839D01*
X140749977Y-95529802D01*
X140751686Y-95521012D01*
X140751685Y-95521012D01*
X140869409Y-95346224D01*
X140876872Y-95341277D01*
X140884073Y-95342165D01*
G37*
%TD.AperFunction*%
%TD*%
%TA.AperFunction,Conductor*%
%TO.N,/P1.15*%
G36*
X133172752Y-82456712D02*
G01*
X133174519Y-82457675D01*
X133348722Y-82572979D01*
X133352020Y-82576277D01*
X133467324Y-82750480D01*
X133469033Y-82759271D01*
X133464026Y-82766694D01*
X133462259Y-82767657D01*
X133087077Y-82931840D01*
X133078124Y-82932017D01*
X133074113Y-82929394D01*
X132995605Y-82850886D01*
X132992178Y-82842613D01*
X132993158Y-82837926D01*
X133157342Y-82462739D01*
X133163799Y-82456535D01*
X133172752Y-82456712D01*
G37*
%TD.AperFunction*%
%TD*%
%TA.AperFunction,Conductor*%
%TO.N,/P1.15*%
G36*
X132535790Y-100340820D02*
G01*
X132540732Y-100348288D01*
X132540929Y-100349863D01*
X132562805Y-100738926D01*
X132559848Y-100747379D01*
X132551780Y-100751265D01*
X132551123Y-100751283D01*
X132440440Y-100751283D01*
X132433363Y-100748900D01*
X132203244Y-100574097D01*
X132198729Y-100566364D01*
X132200576Y-100558305D01*
X132316792Y-100383446D01*
X132324222Y-100378454D01*
X132527016Y-100339035D01*
X132535790Y-100340820D01*
G37*
%TD.AperFunction*%
%TD*%
%TA.AperFunction,Conductor*%
%TO.N,/P1.14*%
G36*
X132957647Y-99339895D02*
G01*
X132961020Y-99347044D01*
X132994664Y-99695616D01*
X132992048Y-99704180D01*
X132985350Y-99708205D01*
X132779802Y-99750022D01*
X132771012Y-99748313D01*
X132770934Y-99748261D01*
X132598768Y-99632304D01*
X132593820Y-99624840D01*
X132595600Y-99616064D01*
X132596374Y-99615042D01*
X132829494Y-99340593D01*
X132837462Y-99336507D01*
X132838411Y-99336468D01*
X132949374Y-99336468D01*
X132957647Y-99339895D01*
G37*
%TD.AperFunction*%
%TD*%
%TA.AperFunction,Conductor*%
%TO.N,/P1.14*%
G36*
X134272752Y-82456712D02*
G01*
X134274519Y-82457675D01*
X134448722Y-82572979D01*
X134452020Y-82576277D01*
X134567324Y-82750480D01*
X134569033Y-82759271D01*
X134564026Y-82766694D01*
X134562259Y-82767657D01*
X134187077Y-82931840D01*
X134178124Y-82932017D01*
X134174113Y-82929394D01*
X134095605Y-82850886D01*
X134092178Y-82842613D01*
X134093158Y-82837926D01*
X134257342Y-82462739D01*
X134263799Y-82456535D01*
X134272752Y-82456712D01*
G37*
%TD.AperFunction*%
%TD*%
%TA.AperFunction,Conductor*%
%TO.N,/P1.12*%
G36*
X134725886Y-81120605D02*
G01*
X134804394Y-81199113D01*
X134807821Y-81207386D01*
X134806840Y-81212077D01*
X134642657Y-81587259D01*
X134636200Y-81593464D01*
X134627247Y-81593287D01*
X134625480Y-81592324D01*
X134451277Y-81477020D01*
X134447979Y-81473722D01*
X134332675Y-81299519D01*
X134330966Y-81290728D01*
X134335973Y-81283305D01*
X134337734Y-81282344D01*
X134712924Y-81118158D01*
X134721875Y-81117982D01*
X134725886Y-81120605D01*
G37*
%TD.AperFunction*%
%TD*%
%TA.AperFunction,Conductor*%
%TO.N,/PGOOD*%
G36*
X148307752Y-97081712D02*
G01*
X148309519Y-97082675D01*
X148483722Y-97197979D01*
X148487020Y-97201277D01*
X148602324Y-97375480D01*
X148604033Y-97384271D01*
X148599026Y-97391694D01*
X148597259Y-97392657D01*
X148222077Y-97556840D01*
X148213124Y-97557017D01*
X148209113Y-97554394D01*
X148130605Y-97475886D01*
X148127178Y-97467613D01*
X148128158Y-97462926D01*
X148292342Y-97087739D01*
X148298799Y-97081535D01*
X148307752Y-97081712D01*
G37*
%TD.AperFunction*%
%TD*%
%TA.AperFunction,Conductor*%
%TO.N,/PGOOD*%
G36*
X144000886Y-100145605D02*
G01*
X144079394Y-100224113D01*
X144082821Y-100232386D01*
X144081840Y-100237077D01*
X143917657Y-100612259D01*
X143911200Y-100618464D01*
X143902247Y-100618287D01*
X143900480Y-100617324D01*
X143726277Y-100502020D01*
X143722979Y-100498722D01*
X143607675Y-100324519D01*
X143605966Y-100315728D01*
X143610973Y-100308305D01*
X143612734Y-100307344D01*
X143987924Y-100143158D01*
X143996875Y-100142982D01*
X144000886Y-100145605D01*
G37*
%TD.AperFunction*%
%TD*%
%TA.AperFunction,Conductor*%
%TO.N,Net-(U5-STAT)*%
G36*
X132607314Y-93466176D02*
G01*
X132614737Y-93471183D01*
X132616446Y-93479974D01*
X132615958Y-93481689D01*
X132475336Y-93863025D01*
X132469259Y-93869602D01*
X132464359Y-93870677D01*
X132353336Y-93870677D01*
X132345063Y-93867250D01*
X132342524Y-93863449D01*
X132184745Y-93482003D01*
X132184750Y-93473048D01*
X132191085Y-93466719D01*
X132193217Y-93466068D01*
X132397670Y-93424474D01*
X132402330Y-93424474D01*
X132607314Y-93466176D01*
G37*
%TD.AperFunction*%
%TD*%
%TA.AperFunction,Conductor*%
%TO.N,Net-(U5-STAT)*%
G36*
X131970717Y-100767752D02*
G01*
X132191708Y-100946220D01*
X132195991Y-100954084D01*
X132194101Y-100961798D01*
X132077708Y-101136924D01*
X132070275Y-101141918D01*
X132070196Y-101141933D01*
X131867796Y-101181276D01*
X131859021Y-101179491D01*
X131854079Y-101172023D01*
X131853870Y-101170177D01*
X131841006Y-100780481D01*
X131841000Y-100780095D01*
X131841000Y-100776854D01*
X131844427Y-100768581D01*
X131852700Y-100765154D01*
X131963366Y-100765154D01*
X131970717Y-100767752D01*
G37*
%TD.AperFunction*%
%TD*%
%TA.AperFunction,Conductor*%
%TO.N,/RESET*%
G36*
X142973388Y-98885494D02*
G01*
X142974459Y-98886442D01*
X143052444Y-98964427D01*
X143055623Y-98970303D01*
X143118261Y-99269566D01*
X143116602Y-99278366D01*
X143109206Y-99283415D01*
X143109120Y-99283433D01*
X142904090Y-99324740D01*
X142895303Y-99323014D01*
X142895236Y-99322970D01*
X142723318Y-99207011D01*
X142718376Y-99199544D01*
X142720161Y-99190768D01*
X142720620Y-99190135D01*
X142956968Y-98887511D01*
X142964758Y-98883102D01*
X142973388Y-98885494D01*
G37*
%TD.AperFunction*%
%TD*%
%TA.AperFunction,Conductor*%
%TO.N,/USER*%
G36*
X135741694Y-84660973D02*
G01*
X135742657Y-84662740D01*
X135906840Y-85037922D01*
X135907017Y-85046875D01*
X135904394Y-85050886D01*
X135825886Y-85129394D01*
X135817613Y-85132821D01*
X135812922Y-85131840D01*
X135437740Y-84967657D01*
X135431535Y-84961200D01*
X135431712Y-84952247D01*
X135432671Y-84950485D01*
X135547981Y-84776274D01*
X135551274Y-84772981D01*
X135725481Y-84657674D01*
X135734271Y-84655966D01*
X135741694Y-84660973D01*
G37*
%TD.AperFunction*%
%TD*%
%TA.AperFunction,Conductor*%
%TO.N,/USER*%
G36*
X137017766Y-99574885D02*
G01*
X137023837Y-99581468D01*
X137024320Y-99583172D01*
X137065522Y-99785697D01*
X137063813Y-99794487D01*
X137063761Y-99794565D01*
X136945844Y-99969641D01*
X136938380Y-99974589D01*
X136931655Y-99973911D01*
X136627038Y-99847494D01*
X136620711Y-99841158D01*
X136619823Y-99836688D01*
X136619823Y-99725665D01*
X136623250Y-99717392D01*
X136627487Y-99714683D01*
X137008820Y-99574522D01*
X137017766Y-99574885D01*
G37*
%TD.AperFunction*%
%TD*%
%TA.AperFunction,Conductor*%
%TO.N,/P1.00*%
G36*
X139418606Y-97717424D02*
G01*
X139633225Y-97811343D01*
X139793791Y-97881608D01*
X139799996Y-97888065D01*
X139799819Y-97897018D01*
X139798856Y-97898785D01*
X139683552Y-98072988D01*
X139680254Y-98076286D01*
X139506051Y-98191590D01*
X139497260Y-98193299D01*
X139489837Y-98188292D01*
X139488874Y-98186525D01*
X139324690Y-97811341D01*
X139324514Y-97802390D01*
X139327135Y-97798381D01*
X139405646Y-97719870D01*
X139413918Y-97716444D01*
X139418606Y-97717424D01*
G37*
%TD.AperFunction*%
%TD*%
%TA.AperFunction,Conductor*%
%TO.N,/P1.00*%
G36*
X116731532Y-89097664D02*
G01*
X116732032Y-89098350D01*
X116847970Y-89270236D01*
X116849755Y-89279011D01*
X116849740Y-89279090D01*
X116808441Y-89484081D01*
X116803447Y-89491514D01*
X116794660Y-89493240D01*
X116794535Y-89493214D01*
X116497951Y-89430082D01*
X116492114Y-89426911D01*
X116414087Y-89348884D01*
X116410660Y-89340611D01*
X116414087Y-89332338D01*
X116415131Y-89331411D01*
X116492982Y-89270236D01*
X116715104Y-89095692D01*
X116723725Y-89093276D01*
X116731532Y-89097664D01*
G37*
%TD.AperFunction*%
%TD*%
%TA.AperFunction,Conductor*%
%TO.N,/P1.00*%
G36*
X138857223Y-88078688D02*
G01*
X138946611Y-88138981D01*
X139029036Y-88194577D01*
X139033978Y-88202045D01*
X139033236Y-88208912D01*
X138888522Y-88544281D01*
X138882097Y-88550520D01*
X138873144Y-88550389D01*
X138869506Y-88547919D01*
X138793314Y-88471727D01*
X138791027Y-88468492D01*
X138667276Y-88209135D01*
X138666807Y-88200193D01*
X138671326Y-88194374D01*
X138844175Y-88078665D01*
X138852955Y-88076912D01*
X138857223Y-88078688D01*
G37*
%TD.AperFunction*%
%TD*%
%TA.AperFunction,Conductor*%
%TO.N,/SWDCLK*%
G36*
X141216694Y-79160973D02*
G01*
X141217657Y-79162740D01*
X141381840Y-79537922D01*
X141382017Y-79546875D01*
X141379394Y-79550886D01*
X141300886Y-79629394D01*
X141292613Y-79632821D01*
X141287922Y-79631840D01*
X140912740Y-79467657D01*
X140906535Y-79461200D01*
X140906712Y-79452247D01*
X140907671Y-79450485D01*
X141022981Y-79276274D01*
X141026274Y-79272981D01*
X141200481Y-79157674D01*
X141209271Y-79155966D01*
X141216694Y-79160973D01*
G37*
%TD.AperFunction*%
%TD*%
%TA.AperFunction,Conductor*%
%TO.N,/SWDCLK*%
G36*
X141491288Y-98764256D02*
G01*
X141493082Y-98766567D01*
X141685902Y-99092147D01*
X141687169Y-99101012D01*
X141682378Y-99107809D01*
X141509207Y-99224613D01*
X141500431Y-99226398D01*
X141500353Y-99226383D01*
X141296696Y-99185352D01*
X141289263Y-99180358D01*
X141287537Y-99171571D01*
X141287892Y-99170229D01*
X141394730Y-98846038D01*
X141397565Y-98841433D01*
X141474743Y-98764255D01*
X141483015Y-98760829D01*
X141491288Y-98764256D01*
G37*
%TD.AperFunction*%
%TD*%
%TA.AperFunction,Conductor*%
%TO.N,/RxD*%
G36*
X135887074Y-99868158D02*
G01*
X136101693Y-99962077D01*
X136262259Y-100032342D01*
X136268464Y-100038799D01*
X136268287Y-100047752D01*
X136267324Y-100049519D01*
X136152020Y-100223722D01*
X136148722Y-100227020D01*
X135974519Y-100342324D01*
X135965728Y-100344033D01*
X135958305Y-100339026D01*
X135957342Y-100337259D01*
X135793158Y-99962075D01*
X135792982Y-99953124D01*
X135795603Y-99949115D01*
X135874114Y-99870604D01*
X135882386Y-99867178D01*
X135887074Y-99868158D01*
G37*
%TD.AperFunction*%
%TD*%
%TA.AperFunction,Conductor*%
%TO.N,/RxD*%
G36*
X134641694Y-85760973D02*
G01*
X134642657Y-85762740D01*
X134806840Y-86137922D01*
X134807017Y-86146875D01*
X134804394Y-86150886D01*
X134725886Y-86229394D01*
X134717613Y-86232821D01*
X134712922Y-86231840D01*
X134337740Y-86067657D01*
X134331535Y-86061200D01*
X134331712Y-86052247D01*
X134332671Y-86050485D01*
X134447981Y-85876274D01*
X134451274Y-85872981D01*
X134625481Y-85757674D01*
X134634271Y-85755966D01*
X134641694Y-85760973D01*
G37*
%TD.AperFunction*%
%TD*%
%TA.AperFunction,Conductor*%
%TO.N,/TxD*%
G36*
X137630422Y-87895963D02*
G01*
X137746310Y-88067774D01*
X137748095Y-88076549D01*
X137746333Y-88080826D01*
X137630625Y-88253672D01*
X137623175Y-88258640D01*
X137615864Y-88257723D01*
X137356507Y-88133972D01*
X137353272Y-88131685D01*
X137277080Y-88055493D01*
X137273653Y-88047220D01*
X137277080Y-88038947D01*
X137280716Y-88036478D01*
X137616088Y-87891762D01*
X137625040Y-87891632D01*
X137630422Y-87895963D01*
G37*
%TD.AperFunction*%
%TD*%
%TA.AperFunction,Conductor*%
%TO.N,/TxD*%
G36*
X137525886Y-100545605D02*
G01*
X137604394Y-100624113D01*
X137607821Y-100632386D01*
X137606840Y-100637077D01*
X137442657Y-101012259D01*
X137436200Y-101018464D01*
X137427247Y-101018287D01*
X137425480Y-101017324D01*
X137251277Y-100902020D01*
X137247979Y-100898722D01*
X137132675Y-100724519D01*
X137130966Y-100715728D01*
X137135973Y-100708305D01*
X137137734Y-100707344D01*
X137512924Y-100543158D01*
X137521875Y-100542982D01*
X137525886Y-100545605D01*
G37*
%TD.AperFunction*%
%TD*%
%TA.AperFunction,Conductor*%
%TO.N,/SWDIO*%
G36*
X140684653Y-98691512D02*
G01*
X141011880Y-98827371D01*
X141018207Y-98833709D01*
X141018200Y-98842663D01*
X141017138Y-98844653D01*
X140902708Y-99016825D01*
X140895275Y-99021819D01*
X140895196Y-99021834D01*
X140689420Y-99061833D01*
X140680645Y-99060048D01*
X140676084Y-99054034D01*
X140560605Y-98706003D01*
X140561252Y-98697071D01*
X140568025Y-98691213D01*
X140571710Y-98690618D01*
X140680167Y-98690618D01*
X140684653Y-98691512D01*
G37*
%TD.AperFunction*%
%TD*%
%TA.AperFunction,Conductor*%
%TO.N,/SWDIO*%
G36*
X140872752Y-80256712D02*
G01*
X140874519Y-80257675D01*
X141048722Y-80372979D01*
X141052020Y-80376277D01*
X141167324Y-80550480D01*
X141169033Y-80559271D01*
X141164026Y-80566694D01*
X141162259Y-80567657D01*
X140787077Y-80731840D01*
X140778124Y-80732017D01*
X140774113Y-80729394D01*
X140695605Y-80650886D01*
X140692178Y-80642613D01*
X140693158Y-80637926D01*
X140857342Y-80262739D01*
X140863799Y-80256535D01*
X140872752Y-80256712D01*
G37*
%TD.AperFunction*%
%TD*%
M02*
