%TF.GenerationSoftware,KiCad,Pcbnew,9.0.4*%
%TF.CreationDate,2025-09-08T17:38:28-04:00*%
%TF.ProjectId,CPU1-NRF5340-uBlox-NORA,43505531-2d4e-4524-9635-3334302d7542,A*%
%TF.SameCoordinates,Original*%
%TF.FileFunction,Legend,Bot*%
%TF.FilePolarity,Positive*%
%FSLAX46Y46*%
G04 Gerber Fmt 4.6, Leading zero omitted, Abs format (unit mm)*
G04 Created by KiCad (PCBNEW 9.0.4) date 2025-09-08 17:38:28*
%MOMM*%
%LPD*%
G01*
G04 APERTURE LIST*
%ADD10C,0.150000*%
%ADD11C,0.120000*%
G04 APERTURE END LIST*
D10*
X137479887Y-103221009D02*
X137337030Y-103268628D01*
X137337030Y-103268628D02*
X137289411Y-103316247D01*
X137289411Y-103316247D02*
X137241792Y-103411485D01*
X137241792Y-103411485D02*
X137241792Y-103554342D01*
X137241792Y-103554342D02*
X137289411Y-103649580D01*
X137289411Y-103649580D02*
X137337030Y-103697200D01*
X137337030Y-103697200D02*
X137432268Y-103744819D01*
X137432268Y-103744819D02*
X137813220Y-103744819D01*
X137813220Y-103744819D02*
X137813220Y-102744819D01*
X137813220Y-102744819D02*
X137479887Y-102744819D01*
X137479887Y-102744819D02*
X137384649Y-102792438D01*
X137384649Y-102792438D02*
X137337030Y-102840057D01*
X137337030Y-102840057D02*
X137289411Y-102935295D01*
X137289411Y-102935295D02*
X137289411Y-103030533D01*
X137289411Y-103030533D02*
X137337030Y-103125771D01*
X137337030Y-103125771D02*
X137384649Y-103173390D01*
X137384649Y-103173390D02*
X137479887Y-103221009D01*
X137479887Y-103221009D02*
X137813220Y-103221009D01*
X136860839Y-103459104D02*
X136384649Y-103459104D01*
X136956077Y-103744819D02*
X136622744Y-102744819D01*
X136622744Y-102744819D02*
X136289411Y-103744819D01*
X136098934Y-102744819D02*
X135527506Y-102744819D01*
X135813220Y-103744819D02*
X135813220Y-102744819D01*
X154379819Y-95129207D02*
X153903628Y-94795874D01*
X154379819Y-94557779D02*
X153379819Y-94557779D01*
X153379819Y-94557779D02*
X153379819Y-94938731D01*
X153379819Y-94938731D02*
X153427438Y-95033969D01*
X153427438Y-95033969D02*
X153475057Y-95081588D01*
X153475057Y-95081588D02*
X153570295Y-95129207D01*
X153570295Y-95129207D02*
X153713152Y-95129207D01*
X153713152Y-95129207D02*
X153808390Y-95081588D01*
X153808390Y-95081588D02*
X153856009Y-95033969D01*
X153856009Y-95033969D02*
X153903628Y-94938731D01*
X153903628Y-94938731D02*
X153903628Y-94557779D01*
X154332200Y-95510160D02*
X154379819Y-95653017D01*
X154379819Y-95653017D02*
X154379819Y-95891112D01*
X154379819Y-95891112D02*
X154332200Y-95986350D01*
X154332200Y-95986350D02*
X154284580Y-96033969D01*
X154284580Y-96033969D02*
X154189342Y-96081588D01*
X154189342Y-96081588D02*
X154094104Y-96081588D01*
X154094104Y-96081588D02*
X153998866Y-96033969D01*
X153998866Y-96033969D02*
X153951247Y-95986350D01*
X153951247Y-95986350D02*
X153903628Y-95891112D01*
X153903628Y-95891112D02*
X153856009Y-95700636D01*
X153856009Y-95700636D02*
X153808390Y-95605398D01*
X153808390Y-95605398D02*
X153760771Y-95557779D01*
X153760771Y-95557779D02*
X153665533Y-95510160D01*
X153665533Y-95510160D02*
X153570295Y-95510160D01*
X153570295Y-95510160D02*
X153475057Y-95557779D01*
X153475057Y-95557779D02*
X153427438Y-95605398D01*
X153427438Y-95605398D02*
X153379819Y-95700636D01*
X153379819Y-95700636D02*
X153379819Y-95938731D01*
X153379819Y-95938731D02*
X153427438Y-96081588D01*
X153379819Y-96367303D02*
X153379819Y-96938731D01*
X154379819Y-96653017D02*
X153379819Y-96653017D01*
X120273848Y-97686779D02*
X120273848Y-98448684D01*
X120578610Y-98067731D02*
X119969086Y-98067731D01*
X119778610Y-98829636D02*
X119778610Y-99448683D01*
X119778610Y-99448683D02*
X120083372Y-99115350D01*
X120083372Y-99115350D02*
X120083372Y-99258207D01*
X120083372Y-99258207D02*
X120121467Y-99353445D01*
X120121467Y-99353445D02*
X120159562Y-99401064D01*
X120159562Y-99401064D02*
X120235753Y-99448683D01*
X120235753Y-99448683D02*
X120426229Y-99448683D01*
X120426229Y-99448683D02*
X120502419Y-99401064D01*
X120502419Y-99401064D02*
X120540515Y-99353445D01*
X120540515Y-99353445D02*
X120578610Y-99258207D01*
X120578610Y-99258207D02*
X120578610Y-98972493D01*
X120578610Y-98972493D02*
X120540515Y-98877255D01*
X120540515Y-98877255D02*
X120502419Y-98829636D01*
X120502419Y-99877255D02*
X120540515Y-99924874D01*
X120540515Y-99924874D02*
X120578610Y-99877255D01*
X120578610Y-99877255D02*
X120540515Y-99829636D01*
X120540515Y-99829636D02*
X120502419Y-99877255D01*
X120502419Y-99877255D02*
X120578610Y-99877255D01*
X119778610Y-100258207D02*
X119778610Y-100877254D01*
X119778610Y-100877254D02*
X120083372Y-100543921D01*
X120083372Y-100543921D02*
X120083372Y-100686778D01*
X120083372Y-100686778D02*
X120121467Y-100782016D01*
X120121467Y-100782016D02*
X120159562Y-100829635D01*
X120159562Y-100829635D02*
X120235753Y-100877254D01*
X120235753Y-100877254D02*
X120426229Y-100877254D01*
X120426229Y-100877254D02*
X120502419Y-100829635D01*
X120502419Y-100829635D02*
X120540515Y-100782016D01*
X120540515Y-100782016D02*
X120578610Y-100686778D01*
X120578610Y-100686778D02*
X120578610Y-100401064D01*
X120578610Y-100401064D02*
X120540515Y-100305826D01*
X120540515Y-100305826D02*
X120502419Y-100258207D01*
X119778610Y-101162969D02*
X120578610Y-101496302D01*
X120578610Y-101496302D02*
X119778610Y-101829635D01*
X121066565Y-97543922D02*
X121066565Y-98115350D01*
X121866565Y-97829636D02*
X121066565Y-97829636D01*
X121866565Y-98353446D02*
X121333231Y-98877255D01*
X121333231Y-98353446D02*
X121866565Y-98877255D01*
X121866565Y-99258208D02*
X121066565Y-99258208D01*
X121066565Y-99258208D02*
X121066565Y-99496303D01*
X121066565Y-99496303D02*
X121104660Y-99639160D01*
X121104660Y-99639160D02*
X121180850Y-99734398D01*
X121180850Y-99734398D02*
X121257041Y-99782017D01*
X121257041Y-99782017D02*
X121409422Y-99829636D01*
X121409422Y-99829636D02*
X121523708Y-99829636D01*
X121523708Y-99829636D02*
X121676089Y-99782017D01*
X121676089Y-99782017D02*
X121752279Y-99734398D01*
X121752279Y-99734398D02*
X121828470Y-99639160D01*
X121828470Y-99639160D02*
X121866565Y-99496303D01*
X121866565Y-99496303D02*
X121866565Y-99258208D01*
X123154520Y-98258207D02*
X122773567Y-97924874D01*
X123154520Y-97686779D02*
X122354520Y-97686779D01*
X122354520Y-97686779D02*
X122354520Y-98067731D01*
X122354520Y-98067731D02*
X122392615Y-98162969D01*
X122392615Y-98162969D02*
X122430710Y-98210588D01*
X122430710Y-98210588D02*
X122506901Y-98258207D01*
X122506901Y-98258207D02*
X122621186Y-98258207D01*
X122621186Y-98258207D02*
X122697377Y-98210588D01*
X122697377Y-98210588D02*
X122735472Y-98162969D01*
X122735472Y-98162969D02*
X122773567Y-98067731D01*
X122773567Y-98067731D02*
X122773567Y-97686779D01*
X123154520Y-98591541D02*
X122621186Y-99115350D01*
X122621186Y-98591541D02*
X123154520Y-99115350D01*
X123154520Y-99496303D02*
X122354520Y-99496303D01*
X122354520Y-99496303D02*
X122354520Y-99734398D01*
X122354520Y-99734398D02*
X122392615Y-99877255D01*
X122392615Y-99877255D02*
X122468805Y-99972493D01*
X122468805Y-99972493D02*
X122544996Y-100020112D01*
X122544996Y-100020112D02*
X122697377Y-100067731D01*
X122697377Y-100067731D02*
X122811663Y-100067731D01*
X122811663Y-100067731D02*
X122964044Y-100020112D01*
X122964044Y-100020112D02*
X123040234Y-99972493D01*
X123040234Y-99972493D02*
X123116425Y-99877255D01*
X123116425Y-99877255D02*
X123154520Y-99734398D01*
X123154520Y-99734398D02*
X123154520Y-99496303D01*
X124442475Y-97591541D02*
X123909141Y-98115350D01*
X123909141Y-97591541D02*
X124442475Y-98115350D01*
X125730430Y-98258207D02*
X125349477Y-97924874D01*
X125730430Y-97686779D02*
X124930430Y-97686779D01*
X124930430Y-97686779D02*
X124930430Y-98067731D01*
X124930430Y-98067731D02*
X124968525Y-98162969D01*
X124968525Y-98162969D02*
X125006620Y-98210588D01*
X125006620Y-98210588D02*
X125082811Y-98258207D01*
X125082811Y-98258207D02*
X125197096Y-98258207D01*
X125197096Y-98258207D02*
X125273287Y-98210588D01*
X125273287Y-98210588D02*
X125311382Y-98162969D01*
X125311382Y-98162969D02*
X125349477Y-98067731D01*
X125349477Y-98067731D02*
X125349477Y-97686779D01*
X125311382Y-98686779D02*
X125311382Y-99020112D01*
X125730430Y-99162969D02*
X125730430Y-98686779D01*
X125730430Y-98686779D02*
X124930430Y-98686779D01*
X124930430Y-98686779D02*
X124930430Y-99162969D01*
X125692335Y-99543922D02*
X125730430Y-99686779D01*
X125730430Y-99686779D02*
X125730430Y-99924874D01*
X125730430Y-99924874D02*
X125692335Y-100020112D01*
X125692335Y-100020112D02*
X125654239Y-100067731D01*
X125654239Y-100067731D02*
X125578049Y-100115350D01*
X125578049Y-100115350D02*
X125501858Y-100115350D01*
X125501858Y-100115350D02*
X125425668Y-100067731D01*
X125425668Y-100067731D02*
X125387573Y-100020112D01*
X125387573Y-100020112D02*
X125349477Y-99924874D01*
X125349477Y-99924874D02*
X125311382Y-99734398D01*
X125311382Y-99734398D02*
X125273287Y-99639160D01*
X125273287Y-99639160D02*
X125235192Y-99591541D01*
X125235192Y-99591541D02*
X125159001Y-99543922D01*
X125159001Y-99543922D02*
X125082811Y-99543922D01*
X125082811Y-99543922D02*
X125006620Y-99591541D01*
X125006620Y-99591541D02*
X124968525Y-99639160D01*
X124968525Y-99639160D02*
X124930430Y-99734398D01*
X124930430Y-99734398D02*
X124930430Y-99972493D01*
X124930430Y-99972493D02*
X124968525Y-100115350D01*
X125311382Y-100543922D02*
X125311382Y-100877255D01*
X125730430Y-101020112D02*
X125730430Y-100543922D01*
X125730430Y-100543922D02*
X124930430Y-100543922D01*
X124930430Y-100543922D02*
X124930430Y-101020112D01*
X124930430Y-101305827D02*
X124930430Y-101877255D01*
X125730430Y-101591541D02*
X124930430Y-101591541D01*
X126980290Y-97639160D02*
X127018385Y-97782017D01*
X127018385Y-97782017D02*
X127018385Y-98020112D01*
X127018385Y-98020112D02*
X126980290Y-98115350D01*
X126980290Y-98115350D02*
X126942194Y-98162969D01*
X126942194Y-98162969D02*
X126866004Y-98210588D01*
X126866004Y-98210588D02*
X126789813Y-98210588D01*
X126789813Y-98210588D02*
X126713623Y-98162969D01*
X126713623Y-98162969D02*
X126675528Y-98115350D01*
X126675528Y-98115350D02*
X126637432Y-98020112D01*
X126637432Y-98020112D02*
X126599337Y-97829636D01*
X126599337Y-97829636D02*
X126561242Y-97734398D01*
X126561242Y-97734398D02*
X126523147Y-97686779D01*
X126523147Y-97686779D02*
X126446956Y-97639160D01*
X126446956Y-97639160D02*
X126370766Y-97639160D01*
X126370766Y-97639160D02*
X126294575Y-97686779D01*
X126294575Y-97686779D02*
X126256480Y-97734398D01*
X126256480Y-97734398D02*
X126218385Y-97829636D01*
X126218385Y-97829636D02*
X126218385Y-98067731D01*
X126218385Y-98067731D02*
X126256480Y-98210588D01*
X126218385Y-98543922D02*
X127018385Y-98782017D01*
X127018385Y-98782017D02*
X126446956Y-98972493D01*
X126446956Y-98972493D02*
X127018385Y-99162969D01*
X127018385Y-99162969D02*
X126218385Y-99401065D01*
X126942194Y-100353445D02*
X126980290Y-100305826D01*
X126980290Y-100305826D02*
X127018385Y-100162969D01*
X127018385Y-100162969D02*
X127018385Y-100067731D01*
X127018385Y-100067731D02*
X126980290Y-99924874D01*
X126980290Y-99924874D02*
X126904099Y-99829636D01*
X126904099Y-99829636D02*
X126827909Y-99782017D01*
X126827909Y-99782017D02*
X126675528Y-99734398D01*
X126675528Y-99734398D02*
X126561242Y-99734398D01*
X126561242Y-99734398D02*
X126408861Y-99782017D01*
X126408861Y-99782017D02*
X126332670Y-99829636D01*
X126332670Y-99829636D02*
X126256480Y-99924874D01*
X126256480Y-99924874D02*
X126218385Y-100067731D01*
X126218385Y-100067731D02*
X126218385Y-100162969D01*
X126218385Y-100162969D02*
X126256480Y-100305826D01*
X126256480Y-100305826D02*
X126294575Y-100353445D01*
X127018385Y-101258207D02*
X127018385Y-100782017D01*
X127018385Y-100782017D02*
X126218385Y-100782017D01*
X127018385Y-101591541D02*
X126218385Y-101591541D01*
X127018385Y-102162969D02*
X126561242Y-101734398D01*
X126218385Y-102162969D02*
X126675528Y-101591541D01*
X128268245Y-97639160D02*
X128306340Y-97782017D01*
X128306340Y-97782017D02*
X128306340Y-98020112D01*
X128306340Y-98020112D02*
X128268245Y-98115350D01*
X128268245Y-98115350D02*
X128230149Y-98162969D01*
X128230149Y-98162969D02*
X128153959Y-98210588D01*
X128153959Y-98210588D02*
X128077768Y-98210588D01*
X128077768Y-98210588D02*
X128001578Y-98162969D01*
X128001578Y-98162969D02*
X127963483Y-98115350D01*
X127963483Y-98115350D02*
X127925387Y-98020112D01*
X127925387Y-98020112D02*
X127887292Y-97829636D01*
X127887292Y-97829636D02*
X127849197Y-97734398D01*
X127849197Y-97734398D02*
X127811102Y-97686779D01*
X127811102Y-97686779D02*
X127734911Y-97639160D01*
X127734911Y-97639160D02*
X127658721Y-97639160D01*
X127658721Y-97639160D02*
X127582530Y-97686779D01*
X127582530Y-97686779D02*
X127544435Y-97734398D01*
X127544435Y-97734398D02*
X127506340Y-97829636D01*
X127506340Y-97829636D02*
X127506340Y-98067731D01*
X127506340Y-98067731D02*
X127544435Y-98210588D01*
X127506340Y-98543922D02*
X128306340Y-98782017D01*
X128306340Y-98782017D02*
X127734911Y-98972493D01*
X127734911Y-98972493D02*
X128306340Y-99162969D01*
X128306340Y-99162969D02*
X127506340Y-99401065D01*
X128306340Y-99782017D02*
X127506340Y-99782017D01*
X127506340Y-99782017D02*
X127506340Y-100020112D01*
X127506340Y-100020112D02*
X127544435Y-100162969D01*
X127544435Y-100162969D02*
X127620625Y-100258207D01*
X127620625Y-100258207D02*
X127696816Y-100305826D01*
X127696816Y-100305826D02*
X127849197Y-100353445D01*
X127849197Y-100353445D02*
X127963483Y-100353445D01*
X127963483Y-100353445D02*
X128115864Y-100305826D01*
X128115864Y-100305826D02*
X128192054Y-100258207D01*
X128192054Y-100258207D02*
X128268245Y-100162969D01*
X128268245Y-100162969D02*
X128306340Y-100020112D01*
X128306340Y-100020112D02*
X128306340Y-99782017D01*
X128306340Y-100782017D02*
X127506340Y-100782017D01*
X127506340Y-101448683D02*
X127506340Y-101639159D01*
X127506340Y-101639159D02*
X127544435Y-101734397D01*
X127544435Y-101734397D02*
X127620625Y-101829635D01*
X127620625Y-101829635D02*
X127773006Y-101877254D01*
X127773006Y-101877254D02*
X128039673Y-101877254D01*
X128039673Y-101877254D02*
X128192054Y-101829635D01*
X128192054Y-101829635D02*
X128268245Y-101734397D01*
X128268245Y-101734397D02*
X128306340Y-101639159D01*
X128306340Y-101639159D02*
X128306340Y-101448683D01*
X128306340Y-101448683D02*
X128268245Y-101353445D01*
X128268245Y-101353445D02*
X128192054Y-101258207D01*
X128192054Y-101258207D02*
X128039673Y-101210588D01*
X128039673Y-101210588D02*
X127773006Y-101210588D01*
X127773006Y-101210588D02*
X127620625Y-101258207D01*
X127620625Y-101258207D02*
X127544435Y-101353445D01*
X127544435Y-101353445D02*
X127506340Y-101448683D01*
X128832390Y-98210588D02*
X128794295Y-98115350D01*
X128794295Y-98115350D02*
X128794295Y-97972493D01*
X128794295Y-97972493D02*
X128832390Y-97829636D01*
X128832390Y-97829636D02*
X128908580Y-97734398D01*
X128908580Y-97734398D02*
X128984771Y-97686779D01*
X128984771Y-97686779D02*
X129137152Y-97639160D01*
X129137152Y-97639160D02*
X129251438Y-97639160D01*
X129251438Y-97639160D02*
X129403819Y-97686779D01*
X129403819Y-97686779D02*
X129480009Y-97734398D01*
X129480009Y-97734398D02*
X129556200Y-97829636D01*
X129556200Y-97829636D02*
X129594295Y-97972493D01*
X129594295Y-97972493D02*
X129594295Y-98067731D01*
X129594295Y-98067731D02*
X129556200Y-98210588D01*
X129556200Y-98210588D02*
X129518104Y-98258207D01*
X129518104Y-98258207D02*
X129251438Y-98258207D01*
X129251438Y-98258207D02*
X129251438Y-98067731D01*
X129594295Y-98686779D02*
X128794295Y-98686779D01*
X128794295Y-98686779D02*
X129594295Y-99258207D01*
X129594295Y-99258207D02*
X128794295Y-99258207D01*
X129594295Y-99734398D02*
X128794295Y-99734398D01*
X128794295Y-99734398D02*
X128794295Y-99972493D01*
X128794295Y-99972493D02*
X128832390Y-100115350D01*
X128832390Y-100115350D02*
X128908580Y-100210588D01*
X128908580Y-100210588D02*
X128984771Y-100258207D01*
X128984771Y-100258207D02*
X129137152Y-100305826D01*
X129137152Y-100305826D02*
X129251438Y-100305826D01*
X129251438Y-100305826D02*
X129403819Y-100258207D01*
X129403819Y-100258207D02*
X129480009Y-100210588D01*
X129480009Y-100210588D02*
X129556200Y-100115350D01*
X129556200Y-100115350D02*
X129594295Y-99972493D01*
X129594295Y-99972493D02*
X129594295Y-99734398D01*
X147898220Y-102365819D02*
X147898220Y-103175342D01*
X147898220Y-103175342D02*
X147850601Y-103270580D01*
X147850601Y-103270580D02*
X147802982Y-103318200D01*
X147802982Y-103318200D02*
X147707744Y-103365819D01*
X147707744Y-103365819D02*
X147517268Y-103365819D01*
X147517268Y-103365819D02*
X147422030Y-103318200D01*
X147422030Y-103318200D02*
X147374411Y-103270580D01*
X147374411Y-103270580D02*
X147326792Y-103175342D01*
X147326792Y-103175342D02*
X147326792Y-102365819D01*
X146898220Y-103318200D02*
X146755363Y-103365819D01*
X146755363Y-103365819D02*
X146517268Y-103365819D01*
X146517268Y-103365819D02*
X146422030Y-103318200D01*
X146422030Y-103318200D02*
X146374411Y-103270580D01*
X146374411Y-103270580D02*
X146326792Y-103175342D01*
X146326792Y-103175342D02*
X146326792Y-103080104D01*
X146326792Y-103080104D02*
X146374411Y-102984866D01*
X146374411Y-102984866D02*
X146422030Y-102937247D01*
X146422030Y-102937247D02*
X146517268Y-102889628D01*
X146517268Y-102889628D02*
X146707744Y-102842009D01*
X146707744Y-102842009D02*
X146802982Y-102794390D01*
X146802982Y-102794390D02*
X146850601Y-102746771D01*
X146850601Y-102746771D02*
X146898220Y-102651533D01*
X146898220Y-102651533D02*
X146898220Y-102556295D01*
X146898220Y-102556295D02*
X146850601Y-102461057D01*
X146850601Y-102461057D02*
X146802982Y-102413438D01*
X146802982Y-102413438D02*
X146707744Y-102365819D01*
X146707744Y-102365819D02*
X146469649Y-102365819D01*
X146469649Y-102365819D02*
X146326792Y-102413438D01*
X145898220Y-102842009D02*
X145564887Y-102842009D01*
X145422030Y-103365819D02*
X145898220Y-103365819D01*
X145898220Y-103365819D02*
X145898220Y-102365819D01*
X145898220Y-102365819D02*
X145422030Y-102365819D01*
X144422030Y-103365819D02*
X144755363Y-102889628D01*
X144993458Y-103365819D02*
X144993458Y-102365819D01*
X144993458Y-102365819D02*
X144612506Y-102365819D01*
X144612506Y-102365819D02*
X144517268Y-102413438D01*
X144517268Y-102413438D02*
X144469649Y-102461057D01*
X144469649Y-102461057D02*
X144422030Y-102556295D01*
X144422030Y-102556295D02*
X144422030Y-102699152D01*
X144422030Y-102699152D02*
X144469649Y-102794390D01*
X144469649Y-102794390D02*
X144517268Y-102842009D01*
X144517268Y-102842009D02*
X144612506Y-102889628D01*
X144612506Y-102889628D02*
X144993458Y-102889628D01*
X136236065Y-98995112D02*
X136283684Y-99137969D01*
X136283684Y-99137969D02*
X136331303Y-99185588D01*
X136331303Y-99185588D02*
X136426541Y-99233207D01*
X136426541Y-99233207D02*
X136569398Y-99233207D01*
X136569398Y-99233207D02*
X136664636Y-99185588D01*
X136664636Y-99185588D02*
X136712256Y-99137969D01*
X136712256Y-99137969D02*
X136759875Y-99042731D01*
X136759875Y-99042731D02*
X136759875Y-98661779D01*
X136759875Y-98661779D02*
X135759875Y-98661779D01*
X135759875Y-98661779D02*
X135759875Y-98995112D01*
X135759875Y-98995112D02*
X135807494Y-99090350D01*
X135807494Y-99090350D02*
X135855113Y-99137969D01*
X135855113Y-99137969D02*
X135950351Y-99185588D01*
X135950351Y-99185588D02*
X136045589Y-99185588D01*
X136045589Y-99185588D02*
X136140827Y-99137969D01*
X136140827Y-99137969D02*
X136188446Y-99090350D01*
X136188446Y-99090350D02*
X136236065Y-98995112D01*
X136236065Y-98995112D02*
X136236065Y-98661779D01*
X136474160Y-99614160D02*
X136474160Y-100090350D01*
X136759875Y-99518922D02*
X135759875Y-99852255D01*
X135759875Y-99852255D02*
X136759875Y-100185588D01*
X135759875Y-100376065D02*
X135759875Y-100947493D01*
X136759875Y-100661779D02*
X135759875Y-100661779D01*
X136378922Y-101280827D02*
X136378922Y-102042732D01*
X136759875Y-101661779D02*
X135997970Y-101661779D01*
X137417438Y-99185588D02*
X137369819Y-99090350D01*
X137369819Y-99090350D02*
X137369819Y-98947493D01*
X137369819Y-98947493D02*
X137417438Y-98804636D01*
X137417438Y-98804636D02*
X137512676Y-98709398D01*
X137512676Y-98709398D02*
X137607914Y-98661779D01*
X137607914Y-98661779D02*
X137798390Y-98614160D01*
X137798390Y-98614160D02*
X137941247Y-98614160D01*
X137941247Y-98614160D02*
X138131723Y-98661779D01*
X138131723Y-98661779D02*
X138226961Y-98709398D01*
X138226961Y-98709398D02*
X138322200Y-98804636D01*
X138322200Y-98804636D02*
X138369819Y-98947493D01*
X138369819Y-98947493D02*
X138369819Y-99042731D01*
X138369819Y-99042731D02*
X138322200Y-99185588D01*
X138322200Y-99185588D02*
X138274580Y-99233207D01*
X138274580Y-99233207D02*
X137941247Y-99233207D01*
X137941247Y-99233207D02*
X137941247Y-99042731D01*
X138369819Y-99661779D02*
X137369819Y-99661779D01*
X137369819Y-99661779D02*
X138369819Y-100233207D01*
X138369819Y-100233207D02*
X137369819Y-100233207D01*
X138369819Y-100709398D02*
X137369819Y-100709398D01*
X137369819Y-100709398D02*
X137369819Y-100947493D01*
X137369819Y-100947493D02*
X137417438Y-101090350D01*
X137417438Y-101090350D02*
X137512676Y-101185588D01*
X137512676Y-101185588D02*
X137607914Y-101233207D01*
X137607914Y-101233207D02*
X137798390Y-101280826D01*
X137798390Y-101280826D02*
X137941247Y-101280826D01*
X137941247Y-101280826D02*
X138131723Y-101233207D01*
X138131723Y-101233207D02*
X138226961Y-101185588D01*
X138226961Y-101185588D02*
X138322200Y-101090350D01*
X138322200Y-101090350D02*
X138369819Y-100947493D01*
X138369819Y-100947493D02*
X138369819Y-100709398D01*
X126638220Y-104144819D02*
X126638220Y-103144819D01*
X126638220Y-103144819D02*
X126400125Y-103144819D01*
X126400125Y-103144819D02*
X126257268Y-103192438D01*
X126257268Y-103192438D02*
X126162030Y-103287676D01*
X126162030Y-103287676D02*
X126114411Y-103382914D01*
X126114411Y-103382914D02*
X126066792Y-103573390D01*
X126066792Y-103573390D02*
X126066792Y-103716247D01*
X126066792Y-103716247D02*
X126114411Y-103906723D01*
X126114411Y-103906723D02*
X126162030Y-104001961D01*
X126162030Y-104001961D02*
X126257268Y-104097200D01*
X126257268Y-104097200D02*
X126400125Y-104144819D01*
X126400125Y-104144819D02*
X126638220Y-104144819D01*
X125638220Y-103621009D02*
X125304887Y-103621009D01*
X125162030Y-104144819D02*
X125638220Y-104144819D01*
X125638220Y-104144819D02*
X125638220Y-103144819D01*
X125638220Y-103144819D02*
X125162030Y-103144819D01*
X124400125Y-103621009D02*
X124257268Y-103668628D01*
X124257268Y-103668628D02*
X124209649Y-103716247D01*
X124209649Y-103716247D02*
X124162030Y-103811485D01*
X124162030Y-103811485D02*
X124162030Y-103954342D01*
X124162030Y-103954342D02*
X124209649Y-104049580D01*
X124209649Y-104049580D02*
X124257268Y-104097200D01*
X124257268Y-104097200D02*
X124352506Y-104144819D01*
X124352506Y-104144819D02*
X124733458Y-104144819D01*
X124733458Y-104144819D02*
X124733458Y-103144819D01*
X124733458Y-103144819D02*
X124400125Y-103144819D01*
X124400125Y-103144819D02*
X124304887Y-103192438D01*
X124304887Y-103192438D02*
X124257268Y-103240057D01*
X124257268Y-103240057D02*
X124209649Y-103335295D01*
X124209649Y-103335295D02*
X124209649Y-103430533D01*
X124209649Y-103430533D02*
X124257268Y-103525771D01*
X124257268Y-103525771D02*
X124304887Y-103573390D01*
X124304887Y-103573390D02*
X124400125Y-103621009D01*
X124400125Y-103621009D02*
X124733458Y-103621009D01*
X123733458Y-103144819D02*
X123733458Y-103954342D01*
X123733458Y-103954342D02*
X123685839Y-104049580D01*
X123685839Y-104049580D02*
X123638220Y-104097200D01*
X123638220Y-104097200D02*
X123542982Y-104144819D01*
X123542982Y-104144819D02*
X123352506Y-104144819D01*
X123352506Y-104144819D02*
X123257268Y-104097200D01*
X123257268Y-104097200D02*
X123209649Y-104049580D01*
X123209649Y-104049580D02*
X123162030Y-103954342D01*
X123162030Y-103954342D02*
X123162030Y-103144819D01*
X122162030Y-103192438D02*
X122257268Y-103144819D01*
X122257268Y-103144819D02*
X122400125Y-103144819D01*
X122400125Y-103144819D02*
X122542982Y-103192438D01*
X122542982Y-103192438D02*
X122638220Y-103287676D01*
X122638220Y-103287676D02*
X122685839Y-103382914D01*
X122685839Y-103382914D02*
X122733458Y-103573390D01*
X122733458Y-103573390D02*
X122733458Y-103716247D01*
X122733458Y-103716247D02*
X122685839Y-103906723D01*
X122685839Y-103906723D02*
X122638220Y-104001961D01*
X122638220Y-104001961D02*
X122542982Y-104097200D01*
X122542982Y-104097200D02*
X122400125Y-104144819D01*
X122400125Y-104144819D02*
X122304887Y-104144819D01*
X122304887Y-104144819D02*
X122162030Y-104097200D01*
X122162030Y-104097200D02*
X122114411Y-104049580D01*
X122114411Y-104049580D02*
X122114411Y-103716247D01*
X122114411Y-103716247D02*
X122304887Y-103716247D01*
X137373333Y-94574819D02*
X137373333Y-95289104D01*
X137373333Y-95289104D02*
X137420952Y-95431961D01*
X137420952Y-95431961D02*
X137516190Y-95527200D01*
X137516190Y-95527200D02*
X137659047Y-95574819D01*
X137659047Y-95574819D02*
X137754285Y-95574819D01*
X136992380Y-94574819D02*
X136373333Y-94574819D01*
X136373333Y-94574819D02*
X136706666Y-94955771D01*
X136706666Y-94955771D02*
X136563809Y-94955771D01*
X136563809Y-94955771D02*
X136468571Y-95003390D01*
X136468571Y-95003390D02*
X136420952Y-95051009D01*
X136420952Y-95051009D02*
X136373333Y-95146247D01*
X136373333Y-95146247D02*
X136373333Y-95384342D01*
X136373333Y-95384342D02*
X136420952Y-95479580D01*
X136420952Y-95479580D02*
X136468571Y-95527200D01*
X136468571Y-95527200D02*
X136563809Y-95574819D01*
X136563809Y-95574819D02*
X136849523Y-95574819D01*
X136849523Y-95574819D02*
X136944761Y-95527200D01*
X136944761Y-95527200D02*
X136992380Y-95479580D01*
X145292857Y-101004819D02*
X145626190Y-100528628D01*
X145864285Y-101004819D02*
X145864285Y-100004819D01*
X145864285Y-100004819D02*
X145483333Y-100004819D01*
X145483333Y-100004819D02*
X145388095Y-100052438D01*
X145388095Y-100052438D02*
X145340476Y-100100057D01*
X145340476Y-100100057D02*
X145292857Y-100195295D01*
X145292857Y-100195295D02*
X145292857Y-100338152D01*
X145292857Y-100338152D02*
X145340476Y-100433390D01*
X145340476Y-100433390D02*
X145388095Y-100481009D01*
X145388095Y-100481009D02*
X145483333Y-100528628D01*
X145483333Y-100528628D02*
X145864285Y-100528628D01*
X144911904Y-100100057D02*
X144864285Y-100052438D01*
X144864285Y-100052438D02*
X144769047Y-100004819D01*
X144769047Y-100004819D02*
X144530952Y-100004819D01*
X144530952Y-100004819D02*
X144435714Y-100052438D01*
X144435714Y-100052438D02*
X144388095Y-100100057D01*
X144388095Y-100100057D02*
X144340476Y-100195295D01*
X144340476Y-100195295D02*
X144340476Y-100290533D01*
X144340476Y-100290533D02*
X144388095Y-100433390D01*
X144388095Y-100433390D02*
X144959523Y-101004819D01*
X144959523Y-101004819D02*
X144340476Y-101004819D01*
X143864285Y-101004819D02*
X143673809Y-101004819D01*
X143673809Y-101004819D02*
X143578571Y-100957200D01*
X143578571Y-100957200D02*
X143530952Y-100909580D01*
X143530952Y-100909580D02*
X143435714Y-100766723D01*
X143435714Y-100766723D02*
X143388095Y-100576247D01*
X143388095Y-100576247D02*
X143388095Y-100195295D01*
X143388095Y-100195295D02*
X143435714Y-100100057D01*
X143435714Y-100100057D02*
X143483333Y-100052438D01*
X143483333Y-100052438D02*
X143578571Y-100004819D01*
X143578571Y-100004819D02*
X143769047Y-100004819D01*
X143769047Y-100004819D02*
X143864285Y-100052438D01*
X143864285Y-100052438D02*
X143911904Y-100100057D01*
X143911904Y-100100057D02*
X143959523Y-100195295D01*
X143959523Y-100195295D02*
X143959523Y-100433390D01*
X143959523Y-100433390D02*
X143911904Y-100528628D01*
X143911904Y-100528628D02*
X143864285Y-100576247D01*
X143864285Y-100576247D02*
X143769047Y-100623866D01*
X143769047Y-100623866D02*
X143578571Y-100623866D01*
X143578571Y-100623866D02*
X143483333Y-100576247D01*
X143483333Y-100576247D02*
X143435714Y-100528628D01*
X143435714Y-100528628D02*
X143388095Y-100433390D01*
X137034580Y-92008333D02*
X137082200Y-91960714D01*
X137082200Y-91960714D02*
X137129819Y-91817857D01*
X137129819Y-91817857D02*
X137129819Y-91722619D01*
X137129819Y-91722619D02*
X137082200Y-91579762D01*
X137082200Y-91579762D02*
X136986961Y-91484524D01*
X136986961Y-91484524D02*
X136891723Y-91436905D01*
X136891723Y-91436905D02*
X136701247Y-91389286D01*
X136701247Y-91389286D02*
X136558390Y-91389286D01*
X136558390Y-91389286D02*
X136367914Y-91436905D01*
X136367914Y-91436905D02*
X136272676Y-91484524D01*
X136272676Y-91484524D02*
X136177438Y-91579762D01*
X136177438Y-91579762D02*
X136129819Y-91722619D01*
X136129819Y-91722619D02*
X136129819Y-91817857D01*
X136129819Y-91817857D02*
X136177438Y-91960714D01*
X136177438Y-91960714D02*
X136225057Y-92008333D01*
X136129819Y-92341667D02*
X136129819Y-93008333D01*
X136129819Y-93008333D02*
X137129819Y-92579762D01*
X146638094Y-76737295D02*
X146638094Y-75937295D01*
X146638094Y-75937295D02*
X146399999Y-75937295D01*
X146399999Y-75937295D02*
X146257142Y-75975390D01*
X146257142Y-75975390D02*
X146161904Y-76051580D01*
X146161904Y-76051580D02*
X146114285Y-76127771D01*
X146114285Y-76127771D02*
X146066666Y-76280152D01*
X146066666Y-76280152D02*
X146066666Y-76394438D01*
X146066666Y-76394438D02*
X146114285Y-76546819D01*
X146114285Y-76546819D02*
X146161904Y-76623009D01*
X146161904Y-76623009D02*
X146257142Y-76699200D01*
X146257142Y-76699200D02*
X146399999Y-76737295D01*
X146399999Y-76737295D02*
X146638094Y-76737295D01*
X145114285Y-76737295D02*
X145685713Y-76737295D01*
X145399999Y-76737295D02*
X145399999Y-75937295D01*
X145399999Y-75937295D02*
X145495237Y-76051580D01*
X145495237Y-76051580D02*
X145590475Y-76127771D01*
X145590475Y-76127771D02*
X145685713Y-76165866D01*
X139409580Y-91982142D02*
X139457200Y-91934523D01*
X139457200Y-91934523D02*
X139504819Y-91791666D01*
X139504819Y-91791666D02*
X139504819Y-91696428D01*
X139504819Y-91696428D02*
X139457200Y-91553571D01*
X139457200Y-91553571D02*
X139361961Y-91458333D01*
X139361961Y-91458333D02*
X139266723Y-91410714D01*
X139266723Y-91410714D02*
X139076247Y-91363095D01*
X139076247Y-91363095D02*
X138933390Y-91363095D01*
X138933390Y-91363095D02*
X138742914Y-91410714D01*
X138742914Y-91410714D02*
X138647676Y-91458333D01*
X138647676Y-91458333D02*
X138552438Y-91553571D01*
X138552438Y-91553571D02*
X138504819Y-91696428D01*
X138504819Y-91696428D02*
X138504819Y-91791666D01*
X138504819Y-91791666D02*
X138552438Y-91934523D01*
X138552438Y-91934523D02*
X138600057Y-91982142D01*
X139504819Y-92934523D02*
X139504819Y-92363095D01*
X139504819Y-92648809D02*
X138504819Y-92648809D01*
X138504819Y-92648809D02*
X138647676Y-92553571D01*
X138647676Y-92553571D02*
X138742914Y-92458333D01*
X138742914Y-92458333D02*
X138790533Y-92363095D01*
X138504819Y-93553571D02*
X138504819Y-93648809D01*
X138504819Y-93648809D02*
X138552438Y-93744047D01*
X138552438Y-93744047D02*
X138600057Y-93791666D01*
X138600057Y-93791666D02*
X138695295Y-93839285D01*
X138695295Y-93839285D02*
X138885771Y-93886904D01*
X138885771Y-93886904D02*
X139123866Y-93886904D01*
X139123866Y-93886904D02*
X139314342Y-93839285D01*
X139314342Y-93839285D02*
X139409580Y-93791666D01*
X139409580Y-93791666D02*
X139457200Y-93744047D01*
X139457200Y-93744047D02*
X139504819Y-93648809D01*
X139504819Y-93648809D02*
X139504819Y-93553571D01*
X139504819Y-93553571D02*
X139457200Y-93458333D01*
X139457200Y-93458333D02*
X139409580Y-93410714D01*
X139409580Y-93410714D02*
X139314342Y-93363095D01*
X139314342Y-93363095D02*
X139123866Y-93315476D01*
X139123866Y-93315476D02*
X138885771Y-93315476D01*
X138885771Y-93315476D02*
X138695295Y-93363095D01*
X138695295Y-93363095D02*
X138600057Y-93410714D01*
X138600057Y-93410714D02*
X138552438Y-93458333D01*
X138552438Y-93458333D02*
X138504819Y-93553571D01*
X143092857Y-90804819D02*
X143426190Y-90328628D01*
X143664285Y-90804819D02*
X143664285Y-89804819D01*
X143664285Y-89804819D02*
X143283333Y-89804819D01*
X143283333Y-89804819D02*
X143188095Y-89852438D01*
X143188095Y-89852438D02*
X143140476Y-89900057D01*
X143140476Y-89900057D02*
X143092857Y-89995295D01*
X143092857Y-89995295D02*
X143092857Y-90138152D01*
X143092857Y-90138152D02*
X143140476Y-90233390D01*
X143140476Y-90233390D02*
X143188095Y-90281009D01*
X143188095Y-90281009D02*
X143283333Y-90328628D01*
X143283333Y-90328628D02*
X143664285Y-90328628D01*
X142140476Y-90804819D02*
X142711904Y-90804819D01*
X142426190Y-90804819D02*
X142426190Y-89804819D01*
X142426190Y-89804819D02*
X142521428Y-89947676D01*
X142521428Y-89947676D02*
X142616666Y-90042914D01*
X142616666Y-90042914D02*
X142711904Y-90090533D01*
X141807142Y-89804819D02*
X141140476Y-89804819D01*
X141140476Y-89804819D02*
X141569047Y-90804819D01*
X133325819Y-92099695D02*
X134135342Y-92099695D01*
X134135342Y-92099695D02*
X134230580Y-92147314D01*
X134230580Y-92147314D02*
X134278200Y-92194933D01*
X134278200Y-92194933D02*
X134325819Y-92290171D01*
X134325819Y-92290171D02*
X134325819Y-92480647D01*
X134325819Y-92480647D02*
X134278200Y-92575885D01*
X134278200Y-92575885D02*
X134230580Y-92623504D01*
X134230580Y-92623504D02*
X134135342Y-92671123D01*
X134135342Y-92671123D02*
X133325819Y-92671123D01*
X133325819Y-93623504D02*
X133325819Y-93147314D01*
X133325819Y-93147314D02*
X133802009Y-93099695D01*
X133802009Y-93099695D02*
X133754390Y-93147314D01*
X133754390Y-93147314D02*
X133706771Y-93242552D01*
X133706771Y-93242552D02*
X133706771Y-93480647D01*
X133706771Y-93480647D02*
X133754390Y-93575885D01*
X133754390Y-93575885D02*
X133802009Y-93623504D01*
X133802009Y-93623504D02*
X133897247Y-93671123D01*
X133897247Y-93671123D02*
X134135342Y-93671123D01*
X134135342Y-93671123D02*
X134230580Y-93623504D01*
X134230580Y-93623504D02*
X134278200Y-93575885D01*
X134278200Y-93575885D02*
X134325819Y-93480647D01*
X134325819Y-93480647D02*
X134325819Y-93242552D01*
X134325819Y-93242552D02*
X134278200Y-93147314D01*
X134278200Y-93147314D02*
X134230580Y-93099695D01*
X151404819Y-85541666D02*
X152119104Y-85541666D01*
X152119104Y-85541666D02*
X152261961Y-85494047D01*
X152261961Y-85494047D02*
X152357200Y-85398809D01*
X152357200Y-85398809D02*
X152404819Y-85255952D01*
X152404819Y-85255952D02*
X152404819Y-85160714D01*
X152404819Y-86541666D02*
X152404819Y-85970238D01*
X152404819Y-86255952D02*
X151404819Y-86255952D01*
X151404819Y-86255952D02*
X151547676Y-86160714D01*
X151547676Y-86160714D02*
X151642914Y-86065476D01*
X151642914Y-86065476D02*
X151690533Y-85970238D01*
X148916666Y-78912295D02*
X149249999Y-78531342D01*
X149488094Y-78912295D02*
X149488094Y-78112295D01*
X149488094Y-78112295D02*
X149107142Y-78112295D01*
X149107142Y-78112295D02*
X149011904Y-78150390D01*
X149011904Y-78150390D02*
X148964285Y-78188485D01*
X148964285Y-78188485D02*
X148916666Y-78264676D01*
X148916666Y-78264676D02*
X148916666Y-78378961D01*
X148916666Y-78378961D02*
X148964285Y-78455152D01*
X148964285Y-78455152D02*
X149011904Y-78493247D01*
X149011904Y-78493247D02*
X149107142Y-78531342D01*
X149107142Y-78531342D02*
X149488094Y-78531342D01*
X148440475Y-78912295D02*
X148249999Y-78912295D01*
X148249999Y-78912295D02*
X148154761Y-78874200D01*
X148154761Y-78874200D02*
X148107142Y-78836104D01*
X148107142Y-78836104D02*
X148011904Y-78721819D01*
X148011904Y-78721819D02*
X147964285Y-78569438D01*
X147964285Y-78569438D02*
X147964285Y-78264676D01*
X147964285Y-78264676D02*
X148011904Y-78188485D01*
X148011904Y-78188485D02*
X148059523Y-78150390D01*
X148059523Y-78150390D02*
X148154761Y-78112295D01*
X148154761Y-78112295D02*
X148345237Y-78112295D01*
X148345237Y-78112295D02*
X148440475Y-78150390D01*
X148440475Y-78150390D02*
X148488094Y-78188485D01*
X148488094Y-78188485D02*
X148535713Y-78264676D01*
X148535713Y-78264676D02*
X148535713Y-78455152D01*
X148535713Y-78455152D02*
X148488094Y-78531342D01*
X148488094Y-78531342D02*
X148440475Y-78569438D01*
X148440475Y-78569438D02*
X148345237Y-78607533D01*
X148345237Y-78607533D02*
X148154761Y-78607533D01*
X148154761Y-78607533D02*
X148059523Y-78569438D01*
X148059523Y-78569438D02*
X148011904Y-78531342D01*
X148011904Y-78531342D02*
X147964285Y-78455152D01*
X151646498Y-96979819D02*
X151979831Y-96503628D01*
X152217926Y-96979819D02*
X152217926Y-95979819D01*
X152217926Y-95979819D02*
X151836974Y-95979819D01*
X151836974Y-95979819D02*
X151741736Y-96027438D01*
X151741736Y-96027438D02*
X151694117Y-96075057D01*
X151694117Y-96075057D02*
X151646498Y-96170295D01*
X151646498Y-96170295D02*
X151646498Y-96313152D01*
X151646498Y-96313152D02*
X151694117Y-96408390D01*
X151694117Y-96408390D02*
X151741736Y-96456009D01*
X151741736Y-96456009D02*
X151836974Y-96503628D01*
X151836974Y-96503628D02*
X152217926Y-96503628D01*
X151265545Y-96075057D02*
X151217926Y-96027438D01*
X151217926Y-96027438D02*
X151122688Y-95979819D01*
X151122688Y-95979819D02*
X150884593Y-95979819D01*
X150884593Y-95979819D02*
X150789355Y-96027438D01*
X150789355Y-96027438D02*
X150741736Y-96075057D01*
X150741736Y-96075057D02*
X150694117Y-96170295D01*
X150694117Y-96170295D02*
X150694117Y-96265533D01*
X150694117Y-96265533D02*
X150741736Y-96408390D01*
X150741736Y-96408390D02*
X151313164Y-96979819D01*
X151313164Y-96979819D02*
X150694117Y-96979819D01*
X150360783Y-95979819D02*
X149741736Y-95979819D01*
X149741736Y-95979819D02*
X150075069Y-96360771D01*
X150075069Y-96360771D02*
X149932212Y-96360771D01*
X149932212Y-96360771D02*
X149836974Y-96408390D01*
X149836974Y-96408390D02*
X149789355Y-96456009D01*
X149789355Y-96456009D02*
X149741736Y-96551247D01*
X149741736Y-96551247D02*
X149741736Y-96789342D01*
X149741736Y-96789342D02*
X149789355Y-96884580D01*
X149789355Y-96884580D02*
X149836974Y-96932200D01*
X149836974Y-96932200D02*
X149932212Y-96979819D01*
X149932212Y-96979819D02*
X150217926Y-96979819D01*
X150217926Y-96979819D02*
X150313164Y-96932200D01*
X150313164Y-96932200D02*
X150360783Y-96884580D01*
X114061904Y-76704819D02*
X113490476Y-76704819D01*
X113776190Y-77704819D02*
X113776190Y-76704819D01*
X113157142Y-77704819D02*
X113157142Y-76704819D01*
X113157142Y-76704819D02*
X112776190Y-76704819D01*
X112776190Y-76704819D02*
X112680952Y-76752438D01*
X112680952Y-76752438D02*
X112633333Y-76800057D01*
X112633333Y-76800057D02*
X112585714Y-76895295D01*
X112585714Y-76895295D02*
X112585714Y-77038152D01*
X112585714Y-77038152D02*
X112633333Y-77133390D01*
X112633333Y-77133390D02*
X112680952Y-77181009D01*
X112680952Y-77181009D02*
X112776190Y-77228628D01*
X112776190Y-77228628D02*
X113157142Y-77228628D01*
X111633333Y-77704819D02*
X112204761Y-77704819D01*
X111919047Y-77704819D02*
X111919047Y-76704819D01*
X111919047Y-76704819D02*
X112014285Y-76847676D01*
X112014285Y-76847676D02*
X112109523Y-76942914D01*
X112109523Y-76942914D02*
X112204761Y-76990533D01*
X142109580Y-91932142D02*
X142157200Y-91884523D01*
X142157200Y-91884523D02*
X142204819Y-91741666D01*
X142204819Y-91741666D02*
X142204819Y-91646428D01*
X142204819Y-91646428D02*
X142157200Y-91503571D01*
X142157200Y-91503571D02*
X142061961Y-91408333D01*
X142061961Y-91408333D02*
X141966723Y-91360714D01*
X141966723Y-91360714D02*
X141776247Y-91313095D01*
X141776247Y-91313095D02*
X141633390Y-91313095D01*
X141633390Y-91313095D02*
X141442914Y-91360714D01*
X141442914Y-91360714D02*
X141347676Y-91408333D01*
X141347676Y-91408333D02*
X141252438Y-91503571D01*
X141252438Y-91503571D02*
X141204819Y-91646428D01*
X141204819Y-91646428D02*
X141204819Y-91741666D01*
X141204819Y-91741666D02*
X141252438Y-91884523D01*
X141252438Y-91884523D02*
X141300057Y-91932142D01*
X142204819Y-92884523D02*
X142204819Y-92313095D01*
X142204819Y-92598809D02*
X141204819Y-92598809D01*
X141204819Y-92598809D02*
X141347676Y-92503571D01*
X141347676Y-92503571D02*
X141442914Y-92408333D01*
X141442914Y-92408333D02*
X141490533Y-92313095D01*
X141204819Y-93217857D02*
X141204819Y-93836904D01*
X141204819Y-93836904D02*
X141585771Y-93503571D01*
X141585771Y-93503571D02*
X141585771Y-93646428D01*
X141585771Y-93646428D02*
X141633390Y-93741666D01*
X141633390Y-93741666D02*
X141681009Y-93789285D01*
X141681009Y-93789285D02*
X141776247Y-93836904D01*
X141776247Y-93836904D02*
X142014342Y-93836904D01*
X142014342Y-93836904D02*
X142109580Y-93789285D01*
X142109580Y-93789285D02*
X142157200Y-93741666D01*
X142157200Y-93741666D02*
X142204819Y-93646428D01*
X142204819Y-93646428D02*
X142204819Y-93360714D01*
X142204819Y-93360714D02*
X142157200Y-93265476D01*
X142157200Y-93265476D02*
X142109580Y-93217857D01*
X143842857Y-96434580D02*
X143890476Y-96482200D01*
X143890476Y-96482200D02*
X144033333Y-96529819D01*
X144033333Y-96529819D02*
X144128571Y-96529819D01*
X144128571Y-96529819D02*
X144271428Y-96482200D01*
X144271428Y-96482200D02*
X144366666Y-96386961D01*
X144366666Y-96386961D02*
X144414285Y-96291723D01*
X144414285Y-96291723D02*
X144461904Y-96101247D01*
X144461904Y-96101247D02*
X144461904Y-95958390D01*
X144461904Y-95958390D02*
X144414285Y-95767914D01*
X144414285Y-95767914D02*
X144366666Y-95672676D01*
X144366666Y-95672676D02*
X144271428Y-95577438D01*
X144271428Y-95577438D02*
X144128571Y-95529819D01*
X144128571Y-95529819D02*
X144033333Y-95529819D01*
X144033333Y-95529819D02*
X143890476Y-95577438D01*
X143890476Y-95577438D02*
X143842857Y-95625057D01*
X142890476Y-96529819D02*
X143461904Y-96529819D01*
X143176190Y-96529819D02*
X143176190Y-95529819D01*
X143176190Y-95529819D02*
X143271428Y-95672676D01*
X143271428Y-95672676D02*
X143366666Y-95767914D01*
X143366666Y-95767914D02*
X143461904Y-95815533D01*
X142033333Y-95863152D02*
X142033333Y-96529819D01*
X142271428Y-95482200D02*
X142509523Y-96196485D01*
X142509523Y-96196485D02*
X141890476Y-96196485D01*
X131434580Y-81800497D02*
X131482200Y-81752878D01*
X131482200Y-81752878D02*
X131529819Y-81610021D01*
X131529819Y-81610021D02*
X131529819Y-81514783D01*
X131529819Y-81514783D02*
X131482200Y-81371926D01*
X131482200Y-81371926D02*
X131386961Y-81276688D01*
X131386961Y-81276688D02*
X131291723Y-81229069D01*
X131291723Y-81229069D02*
X131101247Y-81181450D01*
X131101247Y-81181450D02*
X130958390Y-81181450D01*
X130958390Y-81181450D02*
X130767914Y-81229069D01*
X130767914Y-81229069D02*
X130672676Y-81276688D01*
X130672676Y-81276688D02*
X130577438Y-81371926D01*
X130577438Y-81371926D02*
X130529819Y-81514783D01*
X130529819Y-81514783D02*
X130529819Y-81610021D01*
X130529819Y-81610021D02*
X130577438Y-81752878D01*
X130577438Y-81752878D02*
X130625057Y-81800497D01*
X130863152Y-82657640D02*
X131529819Y-82657640D01*
X130482200Y-82419545D02*
X131196485Y-82181450D01*
X131196485Y-82181450D02*
X131196485Y-82800497D01*
X128161904Y-81304819D02*
X128161904Y-82114342D01*
X128161904Y-82114342D02*
X128114285Y-82209580D01*
X128114285Y-82209580D02*
X128066666Y-82257200D01*
X128066666Y-82257200D02*
X127971428Y-82304819D01*
X127971428Y-82304819D02*
X127780952Y-82304819D01*
X127780952Y-82304819D02*
X127685714Y-82257200D01*
X127685714Y-82257200D02*
X127638095Y-82209580D01*
X127638095Y-82209580D02*
X127590476Y-82114342D01*
X127590476Y-82114342D02*
X127590476Y-81304819D01*
X127209523Y-81304819D02*
X126590476Y-81304819D01*
X126590476Y-81304819D02*
X126923809Y-81685771D01*
X126923809Y-81685771D02*
X126780952Y-81685771D01*
X126780952Y-81685771D02*
X126685714Y-81733390D01*
X126685714Y-81733390D02*
X126638095Y-81781009D01*
X126638095Y-81781009D02*
X126590476Y-81876247D01*
X126590476Y-81876247D02*
X126590476Y-82114342D01*
X126590476Y-82114342D02*
X126638095Y-82209580D01*
X126638095Y-82209580D02*
X126685714Y-82257200D01*
X126685714Y-82257200D02*
X126780952Y-82304819D01*
X126780952Y-82304819D02*
X127066666Y-82304819D01*
X127066666Y-82304819D02*
X127161904Y-82257200D01*
X127161904Y-82257200D02*
X127209523Y-82209580D01*
X124658333Y-95579819D02*
X124658333Y-96294104D01*
X124658333Y-96294104D02*
X124705952Y-96436961D01*
X124705952Y-96436961D02*
X124801190Y-96532200D01*
X124801190Y-96532200D02*
X124944047Y-96579819D01*
X124944047Y-96579819D02*
X125039285Y-96579819D01*
X124229761Y-95675057D02*
X124182142Y-95627438D01*
X124182142Y-95627438D02*
X124086904Y-95579819D01*
X124086904Y-95579819D02*
X123848809Y-95579819D01*
X123848809Y-95579819D02*
X123753571Y-95627438D01*
X123753571Y-95627438D02*
X123705952Y-95675057D01*
X123705952Y-95675057D02*
X123658333Y-95770295D01*
X123658333Y-95770295D02*
X123658333Y-95865533D01*
X123658333Y-95865533D02*
X123705952Y-96008390D01*
X123705952Y-96008390D02*
X124277380Y-96579819D01*
X124277380Y-96579819D02*
X123658333Y-96579819D01*
X140634580Y-92682142D02*
X140682200Y-92634523D01*
X140682200Y-92634523D02*
X140729819Y-92491666D01*
X140729819Y-92491666D02*
X140729819Y-92396428D01*
X140729819Y-92396428D02*
X140682200Y-92253571D01*
X140682200Y-92253571D02*
X140586961Y-92158333D01*
X140586961Y-92158333D02*
X140491723Y-92110714D01*
X140491723Y-92110714D02*
X140301247Y-92063095D01*
X140301247Y-92063095D02*
X140158390Y-92063095D01*
X140158390Y-92063095D02*
X139967914Y-92110714D01*
X139967914Y-92110714D02*
X139872676Y-92158333D01*
X139872676Y-92158333D02*
X139777438Y-92253571D01*
X139777438Y-92253571D02*
X139729819Y-92396428D01*
X139729819Y-92396428D02*
X139729819Y-92491666D01*
X139729819Y-92491666D02*
X139777438Y-92634523D01*
X139777438Y-92634523D02*
X139825057Y-92682142D01*
X140729819Y-93634523D02*
X140729819Y-93063095D01*
X140729819Y-93348809D02*
X139729819Y-93348809D01*
X139729819Y-93348809D02*
X139872676Y-93253571D01*
X139872676Y-93253571D02*
X139967914Y-93158333D01*
X139967914Y-93158333D02*
X140015533Y-93063095D01*
X139825057Y-94015476D02*
X139777438Y-94063095D01*
X139777438Y-94063095D02*
X139729819Y-94158333D01*
X139729819Y-94158333D02*
X139729819Y-94396428D01*
X139729819Y-94396428D02*
X139777438Y-94491666D01*
X139777438Y-94491666D02*
X139825057Y-94539285D01*
X139825057Y-94539285D02*
X139920295Y-94586904D01*
X139920295Y-94586904D02*
X140015533Y-94586904D01*
X140015533Y-94586904D02*
X140158390Y-94539285D01*
X140158390Y-94539285D02*
X140729819Y-93967857D01*
X140729819Y-93967857D02*
X140729819Y-94586904D01*
X114811904Y-80629819D02*
X114811904Y-81439342D01*
X114811904Y-81439342D02*
X114764285Y-81534580D01*
X114764285Y-81534580D02*
X114716666Y-81582200D01*
X114716666Y-81582200D02*
X114621428Y-81629819D01*
X114621428Y-81629819D02*
X114430952Y-81629819D01*
X114430952Y-81629819D02*
X114335714Y-81582200D01*
X114335714Y-81582200D02*
X114288095Y-81534580D01*
X114288095Y-81534580D02*
X114240476Y-81439342D01*
X114240476Y-81439342D02*
X114240476Y-80629819D01*
X113240476Y-81629819D02*
X113811904Y-81629819D01*
X113526190Y-81629819D02*
X113526190Y-80629819D01*
X113526190Y-80629819D02*
X113621428Y-80772676D01*
X113621428Y-80772676D02*
X113716666Y-80867914D01*
X113716666Y-80867914D02*
X113811904Y-80915533D01*
X140367857Y-90804819D02*
X140701190Y-90328628D01*
X140939285Y-90804819D02*
X140939285Y-89804819D01*
X140939285Y-89804819D02*
X140558333Y-89804819D01*
X140558333Y-89804819D02*
X140463095Y-89852438D01*
X140463095Y-89852438D02*
X140415476Y-89900057D01*
X140415476Y-89900057D02*
X140367857Y-89995295D01*
X140367857Y-89995295D02*
X140367857Y-90138152D01*
X140367857Y-90138152D02*
X140415476Y-90233390D01*
X140415476Y-90233390D02*
X140463095Y-90281009D01*
X140463095Y-90281009D02*
X140558333Y-90328628D01*
X140558333Y-90328628D02*
X140939285Y-90328628D01*
X139415476Y-90804819D02*
X139986904Y-90804819D01*
X139701190Y-90804819D02*
X139701190Y-89804819D01*
X139701190Y-89804819D02*
X139796428Y-89947676D01*
X139796428Y-89947676D02*
X139891666Y-90042914D01*
X139891666Y-90042914D02*
X139986904Y-90090533D01*
X138558333Y-89804819D02*
X138748809Y-89804819D01*
X138748809Y-89804819D02*
X138844047Y-89852438D01*
X138844047Y-89852438D02*
X138891666Y-89900057D01*
X138891666Y-89900057D02*
X138986904Y-90042914D01*
X138986904Y-90042914D02*
X139034523Y-90233390D01*
X139034523Y-90233390D02*
X139034523Y-90614342D01*
X139034523Y-90614342D02*
X138986904Y-90709580D01*
X138986904Y-90709580D02*
X138939285Y-90757200D01*
X138939285Y-90757200D02*
X138844047Y-90804819D01*
X138844047Y-90804819D02*
X138653571Y-90804819D01*
X138653571Y-90804819D02*
X138558333Y-90757200D01*
X138558333Y-90757200D02*
X138510714Y-90709580D01*
X138510714Y-90709580D02*
X138463095Y-90614342D01*
X138463095Y-90614342D02*
X138463095Y-90376247D01*
X138463095Y-90376247D02*
X138510714Y-90281009D01*
X138510714Y-90281009D02*
X138558333Y-90233390D01*
X138558333Y-90233390D02*
X138653571Y-90185771D01*
X138653571Y-90185771D02*
X138844047Y-90185771D01*
X138844047Y-90185771D02*
X138939285Y-90233390D01*
X138939285Y-90233390D02*
X138986904Y-90281009D01*
X138986904Y-90281009D02*
X139034523Y-90376247D01*
X115564819Y-100018142D02*
X115088628Y-99684809D01*
X115564819Y-99446714D02*
X114564819Y-99446714D01*
X114564819Y-99446714D02*
X114564819Y-99827666D01*
X114564819Y-99827666D02*
X114612438Y-99922904D01*
X114612438Y-99922904D02*
X114660057Y-99970523D01*
X114660057Y-99970523D02*
X114755295Y-100018142D01*
X114755295Y-100018142D02*
X114898152Y-100018142D01*
X114898152Y-100018142D02*
X114993390Y-99970523D01*
X114993390Y-99970523D02*
X115041009Y-99922904D01*
X115041009Y-99922904D02*
X115088628Y-99827666D01*
X115088628Y-99827666D02*
X115088628Y-99446714D01*
X114660057Y-100399095D02*
X114612438Y-100446714D01*
X114612438Y-100446714D02*
X114564819Y-100541952D01*
X114564819Y-100541952D02*
X114564819Y-100780047D01*
X114564819Y-100780047D02*
X114612438Y-100875285D01*
X114612438Y-100875285D02*
X114660057Y-100922904D01*
X114660057Y-100922904D02*
X114755295Y-100970523D01*
X114755295Y-100970523D02*
X114850533Y-100970523D01*
X114850533Y-100970523D02*
X114993390Y-100922904D01*
X114993390Y-100922904D02*
X115564819Y-100351476D01*
X115564819Y-100351476D02*
X115564819Y-100970523D01*
X114564819Y-101827666D02*
X114564819Y-101637190D01*
X114564819Y-101637190D02*
X114612438Y-101541952D01*
X114612438Y-101541952D02*
X114660057Y-101494333D01*
X114660057Y-101494333D02*
X114802914Y-101399095D01*
X114802914Y-101399095D02*
X114993390Y-101351476D01*
X114993390Y-101351476D02*
X115374342Y-101351476D01*
X115374342Y-101351476D02*
X115469580Y-101399095D01*
X115469580Y-101399095D02*
X115517200Y-101446714D01*
X115517200Y-101446714D02*
X115564819Y-101541952D01*
X115564819Y-101541952D02*
X115564819Y-101732428D01*
X115564819Y-101732428D02*
X115517200Y-101827666D01*
X115517200Y-101827666D02*
X115469580Y-101875285D01*
X115469580Y-101875285D02*
X115374342Y-101922904D01*
X115374342Y-101922904D02*
X115136247Y-101922904D01*
X115136247Y-101922904D02*
X115041009Y-101875285D01*
X115041009Y-101875285D02*
X114993390Y-101827666D01*
X114993390Y-101827666D02*
X114945771Y-101732428D01*
X114945771Y-101732428D02*
X114945771Y-101541952D01*
X114945771Y-101541952D02*
X114993390Y-101446714D01*
X114993390Y-101446714D02*
X115041009Y-101399095D01*
X115041009Y-101399095D02*
X115136247Y-101351476D01*
X149417857Y-79912295D02*
X149751190Y-79531342D01*
X149989285Y-79912295D02*
X149989285Y-79112295D01*
X149989285Y-79112295D02*
X149608333Y-79112295D01*
X149608333Y-79112295D02*
X149513095Y-79150390D01*
X149513095Y-79150390D02*
X149465476Y-79188485D01*
X149465476Y-79188485D02*
X149417857Y-79264676D01*
X149417857Y-79264676D02*
X149417857Y-79378961D01*
X149417857Y-79378961D02*
X149465476Y-79455152D01*
X149465476Y-79455152D02*
X149513095Y-79493247D01*
X149513095Y-79493247D02*
X149608333Y-79531342D01*
X149608333Y-79531342D02*
X149989285Y-79531342D01*
X148465476Y-79912295D02*
X149036904Y-79912295D01*
X148751190Y-79912295D02*
X148751190Y-79112295D01*
X148751190Y-79112295D02*
X148846428Y-79226580D01*
X148846428Y-79226580D02*
X148941666Y-79302771D01*
X148941666Y-79302771D02*
X149036904Y-79340866D01*
X147846428Y-79112295D02*
X147751190Y-79112295D01*
X147751190Y-79112295D02*
X147655952Y-79150390D01*
X147655952Y-79150390D02*
X147608333Y-79188485D01*
X147608333Y-79188485D02*
X147560714Y-79264676D01*
X147560714Y-79264676D02*
X147513095Y-79417057D01*
X147513095Y-79417057D02*
X147513095Y-79607533D01*
X147513095Y-79607533D02*
X147560714Y-79759914D01*
X147560714Y-79759914D02*
X147608333Y-79836104D01*
X147608333Y-79836104D02*
X147655952Y-79874200D01*
X147655952Y-79874200D02*
X147751190Y-79912295D01*
X147751190Y-79912295D02*
X147846428Y-79912295D01*
X147846428Y-79912295D02*
X147941666Y-79874200D01*
X147941666Y-79874200D02*
X147989285Y-79836104D01*
X147989285Y-79836104D02*
X148036904Y-79759914D01*
X148036904Y-79759914D02*
X148084523Y-79607533D01*
X148084523Y-79607533D02*
X148084523Y-79417057D01*
X148084523Y-79417057D02*
X148036904Y-79264676D01*
X148036904Y-79264676D02*
X147989285Y-79188485D01*
X147989285Y-79188485D02*
X147941666Y-79150390D01*
X147941666Y-79150390D02*
X147846428Y-79112295D01*
X145941666Y-80712295D02*
X146274999Y-80331342D01*
X146513094Y-80712295D02*
X146513094Y-79912295D01*
X146513094Y-79912295D02*
X146132142Y-79912295D01*
X146132142Y-79912295D02*
X146036904Y-79950390D01*
X146036904Y-79950390D02*
X145989285Y-79988485D01*
X145989285Y-79988485D02*
X145941666Y-80064676D01*
X145941666Y-80064676D02*
X145941666Y-80178961D01*
X145941666Y-80178961D02*
X145989285Y-80255152D01*
X145989285Y-80255152D02*
X146036904Y-80293247D01*
X146036904Y-80293247D02*
X146132142Y-80331342D01*
X146132142Y-80331342D02*
X146513094Y-80331342D01*
X145370237Y-80255152D02*
X145465475Y-80217057D01*
X145465475Y-80217057D02*
X145513094Y-80178961D01*
X145513094Y-80178961D02*
X145560713Y-80102771D01*
X145560713Y-80102771D02*
X145560713Y-80064676D01*
X145560713Y-80064676D02*
X145513094Y-79988485D01*
X145513094Y-79988485D02*
X145465475Y-79950390D01*
X145465475Y-79950390D02*
X145370237Y-79912295D01*
X145370237Y-79912295D02*
X145179761Y-79912295D01*
X145179761Y-79912295D02*
X145084523Y-79950390D01*
X145084523Y-79950390D02*
X145036904Y-79988485D01*
X145036904Y-79988485D02*
X144989285Y-80064676D01*
X144989285Y-80064676D02*
X144989285Y-80102771D01*
X144989285Y-80102771D02*
X145036904Y-80178961D01*
X145036904Y-80178961D02*
X145084523Y-80217057D01*
X145084523Y-80217057D02*
X145179761Y-80255152D01*
X145179761Y-80255152D02*
X145370237Y-80255152D01*
X145370237Y-80255152D02*
X145465475Y-80293247D01*
X145465475Y-80293247D02*
X145513094Y-80331342D01*
X145513094Y-80331342D02*
X145560713Y-80407533D01*
X145560713Y-80407533D02*
X145560713Y-80559914D01*
X145560713Y-80559914D02*
X145513094Y-80636104D01*
X145513094Y-80636104D02*
X145465475Y-80674200D01*
X145465475Y-80674200D02*
X145370237Y-80712295D01*
X145370237Y-80712295D02*
X145179761Y-80712295D01*
X145179761Y-80712295D02*
X145084523Y-80674200D01*
X145084523Y-80674200D02*
X145036904Y-80636104D01*
X145036904Y-80636104D02*
X144989285Y-80559914D01*
X144989285Y-80559914D02*
X144989285Y-80407533D01*
X144989285Y-80407533D02*
X145036904Y-80331342D01*
X145036904Y-80331342D02*
X145084523Y-80293247D01*
X145084523Y-80293247D02*
X145179761Y-80255152D01*
X143567857Y-98609580D02*
X143615476Y-98657200D01*
X143615476Y-98657200D02*
X143758333Y-98704819D01*
X143758333Y-98704819D02*
X143853571Y-98704819D01*
X143853571Y-98704819D02*
X143996428Y-98657200D01*
X143996428Y-98657200D02*
X144091666Y-98561961D01*
X144091666Y-98561961D02*
X144139285Y-98466723D01*
X144139285Y-98466723D02*
X144186904Y-98276247D01*
X144186904Y-98276247D02*
X144186904Y-98133390D01*
X144186904Y-98133390D02*
X144139285Y-97942914D01*
X144139285Y-97942914D02*
X144091666Y-97847676D01*
X144091666Y-97847676D02*
X143996428Y-97752438D01*
X143996428Y-97752438D02*
X143853571Y-97704819D01*
X143853571Y-97704819D02*
X143758333Y-97704819D01*
X143758333Y-97704819D02*
X143615476Y-97752438D01*
X143615476Y-97752438D02*
X143567857Y-97800057D01*
X142615476Y-98704819D02*
X143186904Y-98704819D01*
X142901190Y-98704819D02*
X142901190Y-97704819D01*
X142901190Y-97704819D02*
X142996428Y-97847676D01*
X142996428Y-97847676D02*
X143091666Y-97942914D01*
X143091666Y-97942914D02*
X143186904Y-97990533D01*
X141758333Y-97704819D02*
X141948809Y-97704819D01*
X141948809Y-97704819D02*
X142044047Y-97752438D01*
X142044047Y-97752438D02*
X142091666Y-97800057D01*
X142091666Y-97800057D02*
X142186904Y-97942914D01*
X142186904Y-97942914D02*
X142234523Y-98133390D01*
X142234523Y-98133390D02*
X142234523Y-98514342D01*
X142234523Y-98514342D02*
X142186904Y-98609580D01*
X142186904Y-98609580D02*
X142139285Y-98657200D01*
X142139285Y-98657200D02*
X142044047Y-98704819D01*
X142044047Y-98704819D02*
X141853571Y-98704819D01*
X141853571Y-98704819D02*
X141758333Y-98657200D01*
X141758333Y-98657200D02*
X141710714Y-98609580D01*
X141710714Y-98609580D02*
X141663095Y-98514342D01*
X141663095Y-98514342D02*
X141663095Y-98276247D01*
X141663095Y-98276247D02*
X141710714Y-98181009D01*
X141710714Y-98181009D02*
X141758333Y-98133390D01*
X141758333Y-98133390D02*
X141853571Y-98085771D01*
X141853571Y-98085771D02*
X142044047Y-98085771D01*
X142044047Y-98085771D02*
X142139285Y-98133390D01*
X142139285Y-98133390D02*
X142186904Y-98181009D01*
X142186904Y-98181009D02*
X142234523Y-98276247D01*
X155042200Y-97237667D02*
X155089819Y-97380524D01*
X155089819Y-97380524D02*
X155089819Y-97618619D01*
X155089819Y-97618619D02*
X155042200Y-97713857D01*
X155042200Y-97713857D02*
X154994580Y-97761476D01*
X154994580Y-97761476D02*
X154899342Y-97809095D01*
X154899342Y-97809095D02*
X154804104Y-97809095D01*
X154804104Y-97809095D02*
X154708866Y-97761476D01*
X154708866Y-97761476D02*
X154661247Y-97713857D01*
X154661247Y-97713857D02*
X154613628Y-97618619D01*
X154613628Y-97618619D02*
X154566009Y-97428143D01*
X154566009Y-97428143D02*
X154518390Y-97332905D01*
X154518390Y-97332905D02*
X154470771Y-97285286D01*
X154470771Y-97285286D02*
X154375533Y-97237667D01*
X154375533Y-97237667D02*
X154280295Y-97237667D01*
X154280295Y-97237667D02*
X154185057Y-97285286D01*
X154185057Y-97285286D02*
X154137438Y-97332905D01*
X154137438Y-97332905D02*
X154089819Y-97428143D01*
X154089819Y-97428143D02*
X154089819Y-97666238D01*
X154089819Y-97666238D02*
X154137438Y-97809095D01*
X154089819Y-98142429D02*
X155089819Y-98380524D01*
X155089819Y-98380524D02*
X154375533Y-98571000D01*
X154375533Y-98571000D02*
X155089819Y-98761476D01*
X155089819Y-98761476D02*
X154089819Y-98999572D01*
X155089819Y-99904333D02*
X155089819Y-99332905D01*
X155089819Y-99618619D02*
X154089819Y-99618619D01*
X154089819Y-99618619D02*
X154232676Y-99523381D01*
X154232676Y-99523381D02*
X154327914Y-99428143D01*
X154327914Y-99428143D02*
X154375533Y-99332905D01*
X123934580Y-80883333D02*
X123982200Y-80835714D01*
X123982200Y-80835714D02*
X124029819Y-80692857D01*
X124029819Y-80692857D02*
X124029819Y-80597619D01*
X124029819Y-80597619D02*
X123982200Y-80454762D01*
X123982200Y-80454762D02*
X123886961Y-80359524D01*
X123886961Y-80359524D02*
X123791723Y-80311905D01*
X123791723Y-80311905D02*
X123601247Y-80264286D01*
X123601247Y-80264286D02*
X123458390Y-80264286D01*
X123458390Y-80264286D02*
X123267914Y-80311905D01*
X123267914Y-80311905D02*
X123172676Y-80359524D01*
X123172676Y-80359524D02*
X123077438Y-80454762D01*
X123077438Y-80454762D02*
X123029819Y-80597619D01*
X123029819Y-80597619D02*
X123029819Y-80692857D01*
X123029819Y-80692857D02*
X123077438Y-80835714D01*
X123077438Y-80835714D02*
X123125057Y-80883333D01*
X123029819Y-81216667D02*
X123029819Y-81835714D01*
X123029819Y-81835714D02*
X123410771Y-81502381D01*
X123410771Y-81502381D02*
X123410771Y-81645238D01*
X123410771Y-81645238D02*
X123458390Y-81740476D01*
X123458390Y-81740476D02*
X123506009Y-81788095D01*
X123506009Y-81788095D02*
X123601247Y-81835714D01*
X123601247Y-81835714D02*
X123839342Y-81835714D01*
X123839342Y-81835714D02*
X123934580Y-81788095D01*
X123934580Y-81788095D02*
X123982200Y-81740476D01*
X123982200Y-81740476D02*
X124029819Y-81645238D01*
X124029819Y-81645238D02*
X124029819Y-81359524D01*
X124029819Y-81359524D02*
X123982200Y-81264286D01*
X123982200Y-81264286D02*
X123934580Y-81216667D01*
X145666666Y-82809580D02*
X145714285Y-82857200D01*
X145714285Y-82857200D02*
X145857142Y-82904819D01*
X145857142Y-82904819D02*
X145952380Y-82904819D01*
X145952380Y-82904819D02*
X146095237Y-82857200D01*
X146095237Y-82857200D02*
X146190475Y-82761961D01*
X146190475Y-82761961D02*
X146238094Y-82666723D01*
X146238094Y-82666723D02*
X146285713Y-82476247D01*
X146285713Y-82476247D02*
X146285713Y-82333390D01*
X146285713Y-82333390D02*
X146238094Y-82142914D01*
X146238094Y-82142914D02*
X146190475Y-82047676D01*
X146190475Y-82047676D02*
X146095237Y-81952438D01*
X146095237Y-81952438D02*
X145952380Y-81904819D01*
X145952380Y-81904819D02*
X145857142Y-81904819D01*
X145857142Y-81904819D02*
X145714285Y-81952438D01*
X145714285Y-81952438D02*
X145666666Y-82000057D01*
X144761904Y-81904819D02*
X145238094Y-81904819D01*
X145238094Y-81904819D02*
X145285713Y-82381009D01*
X145285713Y-82381009D02*
X145238094Y-82333390D01*
X145238094Y-82333390D02*
X145142856Y-82285771D01*
X145142856Y-82285771D02*
X144904761Y-82285771D01*
X144904761Y-82285771D02*
X144809523Y-82333390D01*
X144809523Y-82333390D02*
X144761904Y-82381009D01*
X144761904Y-82381009D02*
X144714285Y-82476247D01*
X144714285Y-82476247D02*
X144714285Y-82714342D01*
X144714285Y-82714342D02*
X144761904Y-82809580D01*
X144761904Y-82809580D02*
X144809523Y-82857200D01*
X144809523Y-82857200D02*
X144904761Y-82904819D01*
X144904761Y-82904819D02*
X145142856Y-82904819D01*
X145142856Y-82904819D02*
X145238094Y-82857200D01*
X145238094Y-82857200D02*
X145285713Y-82809580D01*
X146286904Y-87529819D02*
X146286904Y-88339342D01*
X146286904Y-88339342D02*
X146239285Y-88434580D01*
X146239285Y-88434580D02*
X146191666Y-88482200D01*
X146191666Y-88482200D02*
X146096428Y-88529819D01*
X146096428Y-88529819D02*
X145905952Y-88529819D01*
X145905952Y-88529819D02*
X145810714Y-88482200D01*
X145810714Y-88482200D02*
X145763095Y-88434580D01*
X145763095Y-88434580D02*
X145715476Y-88339342D01*
X145715476Y-88339342D02*
X145715476Y-87529819D01*
X144810714Y-87529819D02*
X145001190Y-87529819D01*
X145001190Y-87529819D02*
X145096428Y-87577438D01*
X145096428Y-87577438D02*
X145144047Y-87625057D01*
X145144047Y-87625057D02*
X145239285Y-87767914D01*
X145239285Y-87767914D02*
X145286904Y-87958390D01*
X145286904Y-87958390D02*
X145286904Y-88339342D01*
X145286904Y-88339342D02*
X145239285Y-88434580D01*
X145239285Y-88434580D02*
X145191666Y-88482200D01*
X145191666Y-88482200D02*
X145096428Y-88529819D01*
X145096428Y-88529819D02*
X144905952Y-88529819D01*
X144905952Y-88529819D02*
X144810714Y-88482200D01*
X144810714Y-88482200D02*
X144763095Y-88434580D01*
X144763095Y-88434580D02*
X144715476Y-88339342D01*
X144715476Y-88339342D02*
X144715476Y-88101247D01*
X144715476Y-88101247D02*
X144763095Y-88006009D01*
X144763095Y-88006009D02*
X144810714Y-87958390D01*
X144810714Y-87958390D02*
X144905952Y-87910771D01*
X144905952Y-87910771D02*
X145096428Y-87910771D01*
X145096428Y-87910771D02*
X145191666Y-87958390D01*
X145191666Y-87958390D02*
X145239285Y-88006009D01*
X145239285Y-88006009D02*
X145286904Y-88101247D01*
X146617857Y-90504819D02*
X146951190Y-90028628D01*
X147189285Y-90504819D02*
X147189285Y-89504819D01*
X147189285Y-89504819D02*
X146808333Y-89504819D01*
X146808333Y-89504819D02*
X146713095Y-89552438D01*
X146713095Y-89552438D02*
X146665476Y-89600057D01*
X146665476Y-89600057D02*
X146617857Y-89695295D01*
X146617857Y-89695295D02*
X146617857Y-89838152D01*
X146617857Y-89838152D02*
X146665476Y-89933390D01*
X146665476Y-89933390D02*
X146713095Y-89981009D01*
X146713095Y-89981009D02*
X146808333Y-90028628D01*
X146808333Y-90028628D02*
X147189285Y-90028628D01*
X145665476Y-90504819D02*
X146236904Y-90504819D01*
X145951190Y-90504819D02*
X145951190Y-89504819D01*
X145951190Y-89504819D02*
X146046428Y-89647676D01*
X146046428Y-89647676D02*
X146141666Y-89742914D01*
X146141666Y-89742914D02*
X146236904Y-89790533D01*
X145094047Y-89933390D02*
X145189285Y-89885771D01*
X145189285Y-89885771D02*
X145236904Y-89838152D01*
X145236904Y-89838152D02*
X145284523Y-89742914D01*
X145284523Y-89742914D02*
X145284523Y-89695295D01*
X145284523Y-89695295D02*
X145236904Y-89600057D01*
X145236904Y-89600057D02*
X145189285Y-89552438D01*
X145189285Y-89552438D02*
X145094047Y-89504819D01*
X145094047Y-89504819D02*
X144903571Y-89504819D01*
X144903571Y-89504819D02*
X144808333Y-89552438D01*
X144808333Y-89552438D02*
X144760714Y-89600057D01*
X144760714Y-89600057D02*
X144713095Y-89695295D01*
X144713095Y-89695295D02*
X144713095Y-89742914D01*
X144713095Y-89742914D02*
X144760714Y-89838152D01*
X144760714Y-89838152D02*
X144808333Y-89885771D01*
X144808333Y-89885771D02*
X144903571Y-89933390D01*
X144903571Y-89933390D02*
X145094047Y-89933390D01*
X145094047Y-89933390D02*
X145189285Y-89981009D01*
X145189285Y-89981009D02*
X145236904Y-90028628D01*
X145236904Y-90028628D02*
X145284523Y-90123866D01*
X145284523Y-90123866D02*
X145284523Y-90314342D01*
X145284523Y-90314342D02*
X145236904Y-90409580D01*
X145236904Y-90409580D02*
X145189285Y-90457200D01*
X145189285Y-90457200D02*
X145094047Y-90504819D01*
X145094047Y-90504819D02*
X144903571Y-90504819D01*
X144903571Y-90504819D02*
X144808333Y-90457200D01*
X144808333Y-90457200D02*
X144760714Y-90409580D01*
X144760714Y-90409580D02*
X144713095Y-90314342D01*
X144713095Y-90314342D02*
X144713095Y-90123866D01*
X144713095Y-90123866D02*
X144760714Y-90028628D01*
X144760714Y-90028628D02*
X144808333Y-89981009D01*
X144808333Y-89981009D02*
X144903571Y-89933390D01*
X146317857Y-98034819D02*
X146651190Y-97558628D01*
X146889285Y-98034819D02*
X146889285Y-97034819D01*
X146889285Y-97034819D02*
X146508333Y-97034819D01*
X146508333Y-97034819D02*
X146413095Y-97082438D01*
X146413095Y-97082438D02*
X146365476Y-97130057D01*
X146365476Y-97130057D02*
X146317857Y-97225295D01*
X146317857Y-97225295D02*
X146317857Y-97368152D01*
X146317857Y-97368152D02*
X146365476Y-97463390D01*
X146365476Y-97463390D02*
X146413095Y-97511009D01*
X146413095Y-97511009D02*
X146508333Y-97558628D01*
X146508333Y-97558628D02*
X146889285Y-97558628D01*
X145936904Y-97130057D02*
X145889285Y-97082438D01*
X145889285Y-97082438D02*
X145794047Y-97034819D01*
X145794047Y-97034819D02*
X145555952Y-97034819D01*
X145555952Y-97034819D02*
X145460714Y-97082438D01*
X145460714Y-97082438D02*
X145413095Y-97130057D01*
X145413095Y-97130057D02*
X145365476Y-97225295D01*
X145365476Y-97225295D02*
X145365476Y-97320533D01*
X145365476Y-97320533D02*
X145413095Y-97463390D01*
X145413095Y-97463390D02*
X145984523Y-98034819D01*
X145984523Y-98034819D02*
X145365476Y-98034819D01*
X144413095Y-98034819D02*
X144984523Y-98034819D01*
X144698809Y-98034819D02*
X144698809Y-97034819D01*
X144698809Y-97034819D02*
X144794047Y-97177676D01*
X144794047Y-97177676D02*
X144889285Y-97272914D01*
X144889285Y-97272914D02*
X144984523Y-97320533D01*
X110954819Y-81728501D02*
X110478628Y-81395168D01*
X110954819Y-81157073D02*
X109954819Y-81157073D01*
X109954819Y-81157073D02*
X109954819Y-81538025D01*
X109954819Y-81538025D02*
X110002438Y-81633263D01*
X110002438Y-81633263D02*
X110050057Y-81680882D01*
X110050057Y-81680882D02*
X110145295Y-81728501D01*
X110145295Y-81728501D02*
X110288152Y-81728501D01*
X110288152Y-81728501D02*
X110383390Y-81680882D01*
X110383390Y-81680882D02*
X110431009Y-81633263D01*
X110431009Y-81633263D02*
X110478628Y-81538025D01*
X110478628Y-81538025D02*
X110478628Y-81157073D01*
X110954819Y-82680882D02*
X110954819Y-82109454D01*
X110954819Y-82395168D02*
X109954819Y-82395168D01*
X109954819Y-82395168D02*
X110097676Y-82299930D01*
X110097676Y-82299930D02*
X110192914Y-82204692D01*
X110192914Y-82204692D02*
X110240533Y-82109454D01*
X110288152Y-83538025D02*
X110954819Y-83538025D01*
X109907200Y-83299930D02*
X110621485Y-83061835D01*
X110621485Y-83061835D02*
X110621485Y-83680882D01*
X145480951Y-91934580D02*
X145528570Y-91982200D01*
X145528570Y-91982200D02*
X145671427Y-92029819D01*
X145671427Y-92029819D02*
X145766665Y-92029819D01*
X145766665Y-92029819D02*
X145909522Y-91982200D01*
X145909522Y-91982200D02*
X146004760Y-91886961D01*
X146004760Y-91886961D02*
X146052379Y-91791723D01*
X146052379Y-91791723D02*
X146099998Y-91601247D01*
X146099998Y-91601247D02*
X146099998Y-91458390D01*
X146099998Y-91458390D02*
X146052379Y-91267914D01*
X146052379Y-91267914D02*
X146004760Y-91172676D01*
X146004760Y-91172676D02*
X145909522Y-91077438D01*
X145909522Y-91077438D02*
X145766665Y-91029819D01*
X145766665Y-91029819D02*
X145671427Y-91029819D01*
X145671427Y-91029819D02*
X145528570Y-91077438D01*
X145528570Y-91077438D02*
X145480951Y-91125057D01*
X144528570Y-92029819D02*
X145099998Y-92029819D01*
X144814284Y-92029819D02*
X144814284Y-91029819D01*
X144814284Y-91029819D02*
X144909522Y-91172676D01*
X144909522Y-91172676D02*
X145004760Y-91267914D01*
X145004760Y-91267914D02*
X145099998Y-91315533D01*
X143576189Y-92029819D02*
X144147617Y-92029819D01*
X143861903Y-92029819D02*
X143861903Y-91029819D01*
X143861903Y-91029819D02*
X143957141Y-91172676D01*
X143957141Y-91172676D02*
X144052379Y-91267914D01*
X144052379Y-91267914D02*
X144147617Y-91315533D01*
X137201190Y-90153628D02*
X137201190Y-90629819D01*
X137534523Y-89629819D02*
X137201190Y-90153628D01*
X137201190Y-90153628D02*
X136867857Y-89629819D01*
X136010714Y-90629819D02*
X136582142Y-90629819D01*
X136296428Y-90629819D02*
X136296428Y-89629819D01*
X136296428Y-89629819D02*
X136391666Y-89772676D01*
X136391666Y-89772676D02*
X136486904Y-89867914D01*
X136486904Y-89867914D02*
X136582142Y-89915533D01*
X143929819Y-87357142D02*
X143453628Y-87023809D01*
X143929819Y-86785714D02*
X142929819Y-86785714D01*
X142929819Y-86785714D02*
X142929819Y-87166666D01*
X142929819Y-87166666D02*
X142977438Y-87261904D01*
X142977438Y-87261904D02*
X143025057Y-87309523D01*
X143025057Y-87309523D02*
X143120295Y-87357142D01*
X143120295Y-87357142D02*
X143263152Y-87357142D01*
X143263152Y-87357142D02*
X143358390Y-87309523D01*
X143358390Y-87309523D02*
X143406009Y-87261904D01*
X143406009Y-87261904D02*
X143453628Y-87166666D01*
X143453628Y-87166666D02*
X143453628Y-86785714D01*
X143929819Y-88309523D02*
X143929819Y-87738095D01*
X143929819Y-88023809D02*
X142929819Y-88023809D01*
X142929819Y-88023809D02*
X143072676Y-87928571D01*
X143072676Y-87928571D02*
X143167914Y-87833333D01*
X143167914Y-87833333D02*
X143215533Y-87738095D01*
X143929819Y-88785714D02*
X143929819Y-88976190D01*
X143929819Y-88976190D02*
X143882200Y-89071428D01*
X143882200Y-89071428D02*
X143834580Y-89119047D01*
X143834580Y-89119047D02*
X143691723Y-89214285D01*
X143691723Y-89214285D02*
X143501247Y-89261904D01*
X143501247Y-89261904D02*
X143120295Y-89261904D01*
X143120295Y-89261904D02*
X143025057Y-89214285D01*
X143025057Y-89214285D02*
X142977438Y-89166666D01*
X142977438Y-89166666D02*
X142929819Y-89071428D01*
X142929819Y-89071428D02*
X142929819Y-88880952D01*
X142929819Y-88880952D02*
X142977438Y-88785714D01*
X142977438Y-88785714D02*
X143025057Y-88738095D01*
X143025057Y-88738095D02*
X143120295Y-88690476D01*
X143120295Y-88690476D02*
X143358390Y-88690476D01*
X143358390Y-88690476D02*
X143453628Y-88738095D01*
X143453628Y-88738095D02*
X143501247Y-88785714D01*
X143501247Y-88785714D02*
X143548866Y-88880952D01*
X143548866Y-88880952D02*
X143548866Y-89071428D01*
X143548866Y-89071428D02*
X143501247Y-89166666D01*
X143501247Y-89166666D02*
X143453628Y-89214285D01*
X143453628Y-89214285D02*
X143358390Y-89261904D01*
X149467857Y-80937295D02*
X149801190Y-80556342D01*
X150039285Y-80937295D02*
X150039285Y-80137295D01*
X150039285Y-80137295D02*
X149658333Y-80137295D01*
X149658333Y-80137295D02*
X149563095Y-80175390D01*
X149563095Y-80175390D02*
X149515476Y-80213485D01*
X149515476Y-80213485D02*
X149467857Y-80289676D01*
X149467857Y-80289676D02*
X149467857Y-80403961D01*
X149467857Y-80403961D02*
X149515476Y-80480152D01*
X149515476Y-80480152D02*
X149563095Y-80518247D01*
X149563095Y-80518247D02*
X149658333Y-80556342D01*
X149658333Y-80556342D02*
X150039285Y-80556342D01*
X148515476Y-80937295D02*
X149086904Y-80937295D01*
X148801190Y-80937295D02*
X148801190Y-80137295D01*
X148801190Y-80137295D02*
X148896428Y-80251580D01*
X148896428Y-80251580D02*
X148991666Y-80327771D01*
X148991666Y-80327771D02*
X149086904Y-80365866D01*
X147563095Y-80937295D02*
X148134523Y-80937295D01*
X147848809Y-80937295D02*
X147848809Y-80137295D01*
X147848809Y-80137295D02*
X147944047Y-80251580D01*
X147944047Y-80251580D02*
X148039285Y-80327771D01*
X148039285Y-80327771D02*
X148134523Y-80365866D01*
X138209580Y-92033333D02*
X138257200Y-91985714D01*
X138257200Y-91985714D02*
X138304819Y-91842857D01*
X138304819Y-91842857D02*
X138304819Y-91747619D01*
X138304819Y-91747619D02*
X138257200Y-91604762D01*
X138257200Y-91604762D02*
X138161961Y-91509524D01*
X138161961Y-91509524D02*
X138066723Y-91461905D01*
X138066723Y-91461905D02*
X137876247Y-91414286D01*
X137876247Y-91414286D02*
X137733390Y-91414286D01*
X137733390Y-91414286D02*
X137542914Y-91461905D01*
X137542914Y-91461905D02*
X137447676Y-91509524D01*
X137447676Y-91509524D02*
X137352438Y-91604762D01*
X137352438Y-91604762D02*
X137304819Y-91747619D01*
X137304819Y-91747619D02*
X137304819Y-91842857D01*
X137304819Y-91842857D02*
X137352438Y-91985714D01*
X137352438Y-91985714D02*
X137400057Y-92033333D01*
X138304819Y-92509524D02*
X138304819Y-92700000D01*
X138304819Y-92700000D02*
X138257200Y-92795238D01*
X138257200Y-92795238D02*
X138209580Y-92842857D01*
X138209580Y-92842857D02*
X138066723Y-92938095D01*
X138066723Y-92938095D02*
X137876247Y-92985714D01*
X137876247Y-92985714D02*
X137495295Y-92985714D01*
X137495295Y-92985714D02*
X137400057Y-92938095D01*
X137400057Y-92938095D02*
X137352438Y-92890476D01*
X137352438Y-92890476D02*
X137304819Y-92795238D01*
X137304819Y-92795238D02*
X137304819Y-92604762D01*
X137304819Y-92604762D02*
X137352438Y-92509524D01*
X137352438Y-92509524D02*
X137400057Y-92461905D01*
X137400057Y-92461905D02*
X137495295Y-92414286D01*
X137495295Y-92414286D02*
X137733390Y-92414286D01*
X137733390Y-92414286D02*
X137828628Y-92461905D01*
X137828628Y-92461905D02*
X137876247Y-92509524D01*
X137876247Y-92509524D02*
X137923866Y-92604762D01*
X137923866Y-92604762D02*
X137923866Y-92795238D01*
X137923866Y-92795238D02*
X137876247Y-92890476D01*
X137876247Y-92890476D02*
X137828628Y-92938095D01*
X137828628Y-92938095D02*
X137733390Y-92985714D01*
X106999819Y-81728501D02*
X106523628Y-81395168D01*
X106999819Y-81157073D02*
X105999819Y-81157073D01*
X105999819Y-81157073D02*
X105999819Y-81538025D01*
X105999819Y-81538025D02*
X106047438Y-81633263D01*
X106047438Y-81633263D02*
X106095057Y-81680882D01*
X106095057Y-81680882D02*
X106190295Y-81728501D01*
X106190295Y-81728501D02*
X106333152Y-81728501D01*
X106333152Y-81728501D02*
X106428390Y-81680882D01*
X106428390Y-81680882D02*
X106476009Y-81633263D01*
X106476009Y-81633263D02*
X106523628Y-81538025D01*
X106523628Y-81538025D02*
X106523628Y-81157073D01*
X106999819Y-82680882D02*
X106999819Y-82109454D01*
X106999819Y-82395168D02*
X105999819Y-82395168D01*
X105999819Y-82395168D02*
X106142676Y-82299930D01*
X106142676Y-82299930D02*
X106237914Y-82204692D01*
X106237914Y-82204692D02*
X106285533Y-82109454D01*
X106095057Y-83061835D02*
X106047438Y-83109454D01*
X106047438Y-83109454D02*
X105999819Y-83204692D01*
X105999819Y-83204692D02*
X105999819Y-83442787D01*
X105999819Y-83442787D02*
X106047438Y-83538025D01*
X106047438Y-83538025D02*
X106095057Y-83585644D01*
X106095057Y-83585644D02*
X106190295Y-83633263D01*
X106190295Y-83633263D02*
X106285533Y-83633263D01*
X106285533Y-83633263D02*
X106428390Y-83585644D01*
X106428390Y-83585644D02*
X106999819Y-83014216D01*
X106999819Y-83014216D02*
X106999819Y-83633263D01*
X131765594Y-103877319D02*
X131765594Y-102877319D01*
X131765594Y-102877319D02*
X131527499Y-102877319D01*
X131527499Y-102877319D02*
X131384642Y-102924938D01*
X131384642Y-102924938D02*
X131289404Y-103020176D01*
X131289404Y-103020176D02*
X131241785Y-103115414D01*
X131241785Y-103115414D02*
X131194166Y-103305890D01*
X131194166Y-103305890D02*
X131194166Y-103448747D01*
X131194166Y-103448747D02*
X131241785Y-103639223D01*
X131241785Y-103639223D02*
X131289404Y-103734461D01*
X131289404Y-103734461D02*
X131384642Y-103829700D01*
X131384642Y-103829700D02*
X131527499Y-103877319D01*
X131527499Y-103877319D02*
X131765594Y-103877319D01*
X130289404Y-102877319D02*
X130765594Y-102877319D01*
X130765594Y-102877319D02*
X130813213Y-103353509D01*
X130813213Y-103353509D02*
X130765594Y-103305890D01*
X130765594Y-103305890D02*
X130670356Y-103258271D01*
X130670356Y-103258271D02*
X130432261Y-103258271D01*
X130432261Y-103258271D02*
X130337023Y-103305890D01*
X130337023Y-103305890D02*
X130289404Y-103353509D01*
X130289404Y-103353509D02*
X130241785Y-103448747D01*
X130241785Y-103448747D02*
X130241785Y-103686842D01*
X130241785Y-103686842D02*
X130289404Y-103782080D01*
X130289404Y-103782080D02*
X130337023Y-103829700D01*
X130337023Y-103829700D02*
X130432261Y-103877319D01*
X130432261Y-103877319D02*
X130670356Y-103877319D01*
X130670356Y-103877319D02*
X130765594Y-103829700D01*
X130765594Y-103829700D02*
X130813213Y-103782080D01*
X145866666Y-79762295D02*
X146199999Y-79381342D01*
X146438094Y-79762295D02*
X146438094Y-78962295D01*
X146438094Y-78962295D02*
X146057142Y-78962295D01*
X146057142Y-78962295D02*
X145961904Y-79000390D01*
X145961904Y-79000390D02*
X145914285Y-79038485D01*
X145914285Y-79038485D02*
X145866666Y-79114676D01*
X145866666Y-79114676D02*
X145866666Y-79228961D01*
X145866666Y-79228961D02*
X145914285Y-79305152D01*
X145914285Y-79305152D02*
X145961904Y-79343247D01*
X145961904Y-79343247D02*
X146057142Y-79381342D01*
X146057142Y-79381342D02*
X146438094Y-79381342D01*
X145533332Y-78962295D02*
X144866666Y-78962295D01*
X144866666Y-78962295D02*
X145295237Y-79762295D01*
X150108332Y-102032200D02*
X149965475Y-102079819D01*
X149965475Y-102079819D02*
X149727380Y-102079819D01*
X149727380Y-102079819D02*
X149632142Y-102032200D01*
X149632142Y-102032200D02*
X149584523Y-101984580D01*
X149584523Y-101984580D02*
X149536904Y-101889342D01*
X149536904Y-101889342D02*
X149536904Y-101794104D01*
X149536904Y-101794104D02*
X149584523Y-101698866D01*
X149584523Y-101698866D02*
X149632142Y-101651247D01*
X149632142Y-101651247D02*
X149727380Y-101603628D01*
X149727380Y-101603628D02*
X149917856Y-101556009D01*
X149917856Y-101556009D02*
X150013094Y-101508390D01*
X150013094Y-101508390D02*
X150060713Y-101460771D01*
X150060713Y-101460771D02*
X150108332Y-101365533D01*
X150108332Y-101365533D02*
X150108332Y-101270295D01*
X150108332Y-101270295D02*
X150060713Y-101175057D01*
X150060713Y-101175057D02*
X150013094Y-101127438D01*
X150013094Y-101127438D02*
X149917856Y-101079819D01*
X149917856Y-101079819D02*
X149679761Y-101079819D01*
X149679761Y-101079819D02*
X149536904Y-101127438D01*
X149203570Y-101079819D02*
X148965475Y-102079819D01*
X148965475Y-102079819D02*
X148774999Y-101365533D01*
X148774999Y-101365533D02*
X148584523Y-102079819D01*
X148584523Y-102079819D02*
X148346428Y-101079819D01*
X148013094Y-101175057D02*
X147965475Y-101127438D01*
X147965475Y-101127438D02*
X147870237Y-101079819D01*
X147870237Y-101079819D02*
X147632142Y-101079819D01*
X147632142Y-101079819D02*
X147536904Y-101127438D01*
X147536904Y-101127438D02*
X147489285Y-101175057D01*
X147489285Y-101175057D02*
X147441666Y-101270295D01*
X147441666Y-101270295D02*
X147441666Y-101365533D01*
X147441666Y-101365533D02*
X147489285Y-101508390D01*
X147489285Y-101508390D02*
X148060713Y-102079819D01*
X148060713Y-102079819D02*
X147441666Y-102079819D01*
X116366666Y-79129819D02*
X116699999Y-78653628D01*
X116938094Y-79129819D02*
X116938094Y-78129819D01*
X116938094Y-78129819D02*
X116557142Y-78129819D01*
X116557142Y-78129819D02*
X116461904Y-78177438D01*
X116461904Y-78177438D02*
X116414285Y-78225057D01*
X116414285Y-78225057D02*
X116366666Y-78320295D01*
X116366666Y-78320295D02*
X116366666Y-78463152D01*
X116366666Y-78463152D02*
X116414285Y-78558390D01*
X116414285Y-78558390D02*
X116461904Y-78606009D01*
X116461904Y-78606009D02*
X116557142Y-78653628D01*
X116557142Y-78653628D02*
X116938094Y-78653628D01*
X115461904Y-78129819D02*
X115938094Y-78129819D01*
X115938094Y-78129819D02*
X115985713Y-78606009D01*
X115985713Y-78606009D02*
X115938094Y-78558390D01*
X115938094Y-78558390D02*
X115842856Y-78510771D01*
X115842856Y-78510771D02*
X115604761Y-78510771D01*
X115604761Y-78510771D02*
X115509523Y-78558390D01*
X115509523Y-78558390D02*
X115461904Y-78606009D01*
X115461904Y-78606009D02*
X115414285Y-78701247D01*
X115414285Y-78701247D02*
X115414285Y-78939342D01*
X115414285Y-78939342D02*
X115461904Y-79034580D01*
X115461904Y-79034580D02*
X115509523Y-79082200D01*
X115509523Y-79082200D02*
X115604761Y-79129819D01*
X115604761Y-79129819D02*
X115842856Y-79129819D01*
X115842856Y-79129819D02*
X115938094Y-79082200D01*
X115938094Y-79082200D02*
X115985713Y-79034580D01*
X146896498Y-96324819D02*
X147229831Y-95848628D01*
X147467926Y-96324819D02*
X147467926Y-95324819D01*
X147467926Y-95324819D02*
X147086974Y-95324819D01*
X147086974Y-95324819D02*
X146991736Y-95372438D01*
X146991736Y-95372438D02*
X146944117Y-95420057D01*
X146944117Y-95420057D02*
X146896498Y-95515295D01*
X146896498Y-95515295D02*
X146896498Y-95658152D01*
X146896498Y-95658152D02*
X146944117Y-95753390D01*
X146944117Y-95753390D02*
X146991736Y-95801009D01*
X146991736Y-95801009D02*
X147086974Y-95848628D01*
X147086974Y-95848628D02*
X147467926Y-95848628D01*
X146515545Y-95420057D02*
X146467926Y-95372438D01*
X146467926Y-95372438D02*
X146372688Y-95324819D01*
X146372688Y-95324819D02*
X146134593Y-95324819D01*
X146134593Y-95324819D02*
X146039355Y-95372438D01*
X146039355Y-95372438D02*
X145991736Y-95420057D01*
X145991736Y-95420057D02*
X145944117Y-95515295D01*
X145944117Y-95515295D02*
X145944117Y-95610533D01*
X145944117Y-95610533D02*
X145991736Y-95753390D01*
X145991736Y-95753390D02*
X146563164Y-96324819D01*
X146563164Y-96324819D02*
X145944117Y-96324819D01*
X145563164Y-95420057D02*
X145515545Y-95372438D01*
X145515545Y-95372438D02*
X145420307Y-95324819D01*
X145420307Y-95324819D02*
X145182212Y-95324819D01*
X145182212Y-95324819D02*
X145086974Y-95372438D01*
X145086974Y-95372438D02*
X145039355Y-95420057D01*
X145039355Y-95420057D02*
X144991736Y-95515295D01*
X144991736Y-95515295D02*
X144991736Y-95610533D01*
X144991736Y-95610533D02*
X145039355Y-95753390D01*
X145039355Y-95753390D02*
X145610783Y-96324819D01*
X145610783Y-96324819D02*
X144991736Y-96324819D01*
X113009819Y-100057142D02*
X112533628Y-99723809D01*
X113009819Y-99485714D02*
X112009819Y-99485714D01*
X112009819Y-99485714D02*
X112009819Y-99866666D01*
X112009819Y-99866666D02*
X112057438Y-99961904D01*
X112057438Y-99961904D02*
X112105057Y-100009523D01*
X112105057Y-100009523D02*
X112200295Y-100057142D01*
X112200295Y-100057142D02*
X112343152Y-100057142D01*
X112343152Y-100057142D02*
X112438390Y-100009523D01*
X112438390Y-100009523D02*
X112486009Y-99961904D01*
X112486009Y-99961904D02*
X112533628Y-99866666D01*
X112533628Y-99866666D02*
X112533628Y-99485714D01*
X112105057Y-100438095D02*
X112057438Y-100485714D01*
X112057438Y-100485714D02*
X112009819Y-100580952D01*
X112009819Y-100580952D02*
X112009819Y-100819047D01*
X112009819Y-100819047D02*
X112057438Y-100914285D01*
X112057438Y-100914285D02*
X112105057Y-100961904D01*
X112105057Y-100961904D02*
X112200295Y-101009523D01*
X112200295Y-101009523D02*
X112295533Y-101009523D01*
X112295533Y-101009523D02*
X112438390Y-100961904D01*
X112438390Y-100961904D02*
X113009819Y-100390476D01*
X113009819Y-100390476D02*
X113009819Y-101009523D01*
X112009819Y-101914285D02*
X112009819Y-101438095D01*
X112009819Y-101438095D02*
X112486009Y-101390476D01*
X112486009Y-101390476D02*
X112438390Y-101438095D01*
X112438390Y-101438095D02*
X112390771Y-101533333D01*
X112390771Y-101533333D02*
X112390771Y-101771428D01*
X112390771Y-101771428D02*
X112438390Y-101866666D01*
X112438390Y-101866666D02*
X112486009Y-101914285D01*
X112486009Y-101914285D02*
X112581247Y-101961904D01*
X112581247Y-101961904D02*
X112819342Y-101961904D01*
X112819342Y-101961904D02*
X112914580Y-101914285D01*
X112914580Y-101914285D02*
X112962200Y-101866666D01*
X112962200Y-101866666D02*
X113009819Y-101771428D01*
X113009819Y-101771428D02*
X113009819Y-101533333D01*
X113009819Y-101533333D02*
X112962200Y-101438095D01*
X112962200Y-101438095D02*
X112914580Y-101390476D01*
X132329819Y-100557142D02*
X131853628Y-100223809D01*
X132329819Y-99985714D02*
X131329819Y-99985714D01*
X131329819Y-99985714D02*
X131329819Y-100366666D01*
X131329819Y-100366666D02*
X131377438Y-100461904D01*
X131377438Y-100461904D02*
X131425057Y-100509523D01*
X131425057Y-100509523D02*
X131520295Y-100557142D01*
X131520295Y-100557142D02*
X131663152Y-100557142D01*
X131663152Y-100557142D02*
X131758390Y-100509523D01*
X131758390Y-100509523D02*
X131806009Y-100461904D01*
X131806009Y-100461904D02*
X131853628Y-100366666D01*
X131853628Y-100366666D02*
X131853628Y-99985714D01*
X131425057Y-100938095D02*
X131377438Y-100985714D01*
X131377438Y-100985714D02*
X131329819Y-101080952D01*
X131329819Y-101080952D02*
X131329819Y-101319047D01*
X131329819Y-101319047D02*
X131377438Y-101414285D01*
X131377438Y-101414285D02*
X131425057Y-101461904D01*
X131425057Y-101461904D02*
X131520295Y-101509523D01*
X131520295Y-101509523D02*
X131615533Y-101509523D01*
X131615533Y-101509523D02*
X131758390Y-101461904D01*
X131758390Y-101461904D02*
X132329819Y-100890476D01*
X132329819Y-100890476D02*
X132329819Y-101509523D01*
X131758390Y-102080952D02*
X131710771Y-101985714D01*
X131710771Y-101985714D02*
X131663152Y-101938095D01*
X131663152Y-101938095D02*
X131567914Y-101890476D01*
X131567914Y-101890476D02*
X131520295Y-101890476D01*
X131520295Y-101890476D02*
X131425057Y-101938095D01*
X131425057Y-101938095D02*
X131377438Y-101985714D01*
X131377438Y-101985714D02*
X131329819Y-102080952D01*
X131329819Y-102080952D02*
X131329819Y-102271428D01*
X131329819Y-102271428D02*
X131377438Y-102366666D01*
X131377438Y-102366666D02*
X131425057Y-102414285D01*
X131425057Y-102414285D02*
X131520295Y-102461904D01*
X131520295Y-102461904D02*
X131567914Y-102461904D01*
X131567914Y-102461904D02*
X131663152Y-102414285D01*
X131663152Y-102414285D02*
X131710771Y-102366666D01*
X131710771Y-102366666D02*
X131758390Y-102271428D01*
X131758390Y-102271428D02*
X131758390Y-102080952D01*
X131758390Y-102080952D02*
X131806009Y-101985714D01*
X131806009Y-101985714D02*
X131853628Y-101938095D01*
X131853628Y-101938095D02*
X131948866Y-101890476D01*
X131948866Y-101890476D02*
X132139342Y-101890476D01*
X132139342Y-101890476D02*
X132234580Y-101938095D01*
X132234580Y-101938095D02*
X132282200Y-101985714D01*
X132282200Y-101985714D02*
X132329819Y-102080952D01*
X132329819Y-102080952D02*
X132329819Y-102271428D01*
X132329819Y-102271428D02*
X132282200Y-102366666D01*
X132282200Y-102366666D02*
X132234580Y-102414285D01*
X132234580Y-102414285D02*
X132139342Y-102461904D01*
X132139342Y-102461904D02*
X131948866Y-102461904D01*
X131948866Y-102461904D02*
X131853628Y-102414285D01*
X131853628Y-102414285D02*
X131806009Y-102366666D01*
X131806009Y-102366666D02*
X131758390Y-102271428D01*
X148791666Y-75812295D02*
X149124999Y-75431342D01*
X149363094Y-75812295D02*
X149363094Y-75012295D01*
X149363094Y-75012295D02*
X148982142Y-75012295D01*
X148982142Y-75012295D02*
X148886904Y-75050390D01*
X148886904Y-75050390D02*
X148839285Y-75088485D01*
X148839285Y-75088485D02*
X148791666Y-75164676D01*
X148791666Y-75164676D02*
X148791666Y-75278961D01*
X148791666Y-75278961D02*
X148839285Y-75355152D01*
X148839285Y-75355152D02*
X148886904Y-75393247D01*
X148886904Y-75393247D02*
X148982142Y-75431342D01*
X148982142Y-75431342D02*
X149363094Y-75431342D01*
X147934523Y-75278961D02*
X147934523Y-75812295D01*
X148172618Y-74974200D02*
X148410713Y-75545628D01*
X148410713Y-75545628D02*
X147791666Y-75545628D01*
X136767857Y-94304819D02*
X137101190Y-93828628D01*
X137339285Y-94304819D02*
X137339285Y-93304819D01*
X137339285Y-93304819D02*
X136958333Y-93304819D01*
X136958333Y-93304819D02*
X136863095Y-93352438D01*
X136863095Y-93352438D02*
X136815476Y-93400057D01*
X136815476Y-93400057D02*
X136767857Y-93495295D01*
X136767857Y-93495295D02*
X136767857Y-93638152D01*
X136767857Y-93638152D02*
X136815476Y-93733390D01*
X136815476Y-93733390D02*
X136863095Y-93781009D01*
X136863095Y-93781009D02*
X136958333Y-93828628D01*
X136958333Y-93828628D02*
X137339285Y-93828628D01*
X136386904Y-93400057D02*
X136339285Y-93352438D01*
X136339285Y-93352438D02*
X136244047Y-93304819D01*
X136244047Y-93304819D02*
X136005952Y-93304819D01*
X136005952Y-93304819D02*
X135910714Y-93352438D01*
X135910714Y-93352438D02*
X135863095Y-93400057D01*
X135863095Y-93400057D02*
X135815476Y-93495295D01*
X135815476Y-93495295D02*
X135815476Y-93590533D01*
X135815476Y-93590533D02*
X135863095Y-93733390D01*
X135863095Y-93733390D02*
X136434523Y-94304819D01*
X136434523Y-94304819D02*
X135815476Y-94304819D01*
X135196428Y-93304819D02*
X135101190Y-93304819D01*
X135101190Y-93304819D02*
X135005952Y-93352438D01*
X135005952Y-93352438D02*
X134958333Y-93400057D01*
X134958333Y-93400057D02*
X134910714Y-93495295D01*
X134910714Y-93495295D02*
X134863095Y-93685771D01*
X134863095Y-93685771D02*
X134863095Y-93923866D01*
X134863095Y-93923866D02*
X134910714Y-94114342D01*
X134910714Y-94114342D02*
X134958333Y-94209580D01*
X134958333Y-94209580D02*
X135005952Y-94257200D01*
X135005952Y-94257200D02*
X135101190Y-94304819D01*
X135101190Y-94304819D02*
X135196428Y-94304819D01*
X135196428Y-94304819D02*
X135291666Y-94257200D01*
X135291666Y-94257200D02*
X135339285Y-94209580D01*
X135339285Y-94209580D02*
X135386904Y-94114342D01*
X135386904Y-94114342D02*
X135434523Y-93923866D01*
X135434523Y-93923866D02*
X135434523Y-93685771D01*
X135434523Y-93685771D02*
X135386904Y-93495295D01*
X135386904Y-93495295D02*
X135339285Y-93400057D01*
X135339285Y-93400057D02*
X135291666Y-93352438D01*
X135291666Y-93352438D02*
X135196428Y-93304819D01*
X113716666Y-78809580D02*
X113764285Y-78857200D01*
X113764285Y-78857200D02*
X113907142Y-78904819D01*
X113907142Y-78904819D02*
X114002380Y-78904819D01*
X114002380Y-78904819D02*
X114145237Y-78857200D01*
X114145237Y-78857200D02*
X114240475Y-78761961D01*
X114240475Y-78761961D02*
X114288094Y-78666723D01*
X114288094Y-78666723D02*
X114335713Y-78476247D01*
X114335713Y-78476247D02*
X114335713Y-78333390D01*
X114335713Y-78333390D02*
X114288094Y-78142914D01*
X114288094Y-78142914D02*
X114240475Y-78047676D01*
X114240475Y-78047676D02*
X114145237Y-77952438D01*
X114145237Y-77952438D02*
X114002380Y-77904819D01*
X114002380Y-77904819D02*
X113907142Y-77904819D01*
X113907142Y-77904819D02*
X113764285Y-77952438D01*
X113764285Y-77952438D02*
X113716666Y-78000057D01*
X113335713Y-78000057D02*
X113288094Y-77952438D01*
X113288094Y-77952438D02*
X113192856Y-77904819D01*
X113192856Y-77904819D02*
X112954761Y-77904819D01*
X112954761Y-77904819D02*
X112859523Y-77952438D01*
X112859523Y-77952438D02*
X112811904Y-78000057D01*
X112811904Y-78000057D02*
X112764285Y-78095295D01*
X112764285Y-78095295D02*
X112764285Y-78190533D01*
X112764285Y-78190533D02*
X112811904Y-78333390D01*
X112811904Y-78333390D02*
X113383332Y-78904819D01*
X113383332Y-78904819D02*
X112764285Y-78904819D01*
X148766666Y-76862295D02*
X149099999Y-76481342D01*
X149338094Y-76862295D02*
X149338094Y-76062295D01*
X149338094Y-76062295D02*
X148957142Y-76062295D01*
X148957142Y-76062295D02*
X148861904Y-76100390D01*
X148861904Y-76100390D02*
X148814285Y-76138485D01*
X148814285Y-76138485D02*
X148766666Y-76214676D01*
X148766666Y-76214676D02*
X148766666Y-76328961D01*
X148766666Y-76328961D02*
X148814285Y-76405152D01*
X148814285Y-76405152D02*
X148861904Y-76443247D01*
X148861904Y-76443247D02*
X148957142Y-76481342D01*
X148957142Y-76481342D02*
X149338094Y-76481342D01*
X148433332Y-76062295D02*
X147814285Y-76062295D01*
X147814285Y-76062295D02*
X148147618Y-76367057D01*
X148147618Y-76367057D02*
X148004761Y-76367057D01*
X148004761Y-76367057D02*
X147909523Y-76405152D01*
X147909523Y-76405152D02*
X147861904Y-76443247D01*
X147861904Y-76443247D02*
X147814285Y-76519438D01*
X147814285Y-76519438D02*
X147814285Y-76709914D01*
X147814285Y-76709914D02*
X147861904Y-76786104D01*
X147861904Y-76786104D02*
X147909523Y-76824200D01*
X147909523Y-76824200D02*
X148004761Y-76862295D01*
X148004761Y-76862295D02*
X148290475Y-76862295D01*
X148290475Y-76862295D02*
X148385713Y-76824200D01*
X148385713Y-76824200D02*
X148433332Y-76786104D01*
X147697738Y-99804757D02*
X147792976Y-99757138D01*
X147792976Y-99757138D02*
X147888214Y-99661900D01*
X147888214Y-99661900D02*
X148031071Y-99519042D01*
X148031071Y-99519042D02*
X148126309Y-99471423D01*
X148126309Y-99471423D02*
X148221547Y-99471423D01*
X148173928Y-99709519D02*
X148269166Y-99661900D01*
X148269166Y-99661900D02*
X148364404Y-99566661D01*
X148364404Y-99566661D02*
X148412023Y-99376185D01*
X148412023Y-99376185D02*
X148412023Y-99042852D01*
X148412023Y-99042852D02*
X148364404Y-98852376D01*
X148364404Y-98852376D02*
X148269166Y-98757138D01*
X148269166Y-98757138D02*
X148173928Y-98709519D01*
X148173928Y-98709519D02*
X147983452Y-98709519D01*
X147983452Y-98709519D02*
X147888214Y-98757138D01*
X147888214Y-98757138D02*
X147792976Y-98852376D01*
X147792976Y-98852376D02*
X147745357Y-99042852D01*
X147745357Y-99042852D02*
X147745357Y-99376185D01*
X147745357Y-99376185D02*
X147792976Y-99566661D01*
X147792976Y-99566661D02*
X147888214Y-99661900D01*
X147888214Y-99661900D02*
X147983452Y-99709519D01*
X147983452Y-99709519D02*
X148173928Y-99709519D01*
X146792976Y-99709519D02*
X147364404Y-99709519D01*
X147078690Y-99709519D02*
X147078690Y-98709519D01*
X147078690Y-98709519D02*
X147173928Y-98852376D01*
X147173928Y-98852376D02*
X147269166Y-98947614D01*
X147269166Y-98947614D02*
X147364404Y-98995233D01*
X145416666Y-78737295D02*
X145749999Y-78356342D01*
X145988094Y-78737295D02*
X145988094Y-77937295D01*
X145988094Y-77937295D02*
X145607142Y-77937295D01*
X145607142Y-77937295D02*
X145511904Y-77975390D01*
X145511904Y-77975390D02*
X145464285Y-78013485D01*
X145464285Y-78013485D02*
X145416666Y-78089676D01*
X145416666Y-78089676D02*
X145416666Y-78203961D01*
X145416666Y-78203961D02*
X145464285Y-78280152D01*
X145464285Y-78280152D02*
X145511904Y-78318247D01*
X145511904Y-78318247D02*
X145607142Y-78356342D01*
X145607142Y-78356342D02*
X145988094Y-78356342D01*
X144559523Y-77937295D02*
X144749999Y-77937295D01*
X144749999Y-77937295D02*
X144845237Y-77975390D01*
X144845237Y-77975390D02*
X144892856Y-78013485D01*
X144892856Y-78013485D02*
X144988094Y-78127771D01*
X144988094Y-78127771D02*
X145035713Y-78280152D01*
X145035713Y-78280152D02*
X145035713Y-78584914D01*
X145035713Y-78584914D02*
X144988094Y-78661104D01*
X144988094Y-78661104D02*
X144940475Y-78699200D01*
X144940475Y-78699200D02*
X144845237Y-78737295D01*
X144845237Y-78737295D02*
X144654761Y-78737295D01*
X144654761Y-78737295D02*
X144559523Y-78699200D01*
X144559523Y-78699200D02*
X144511904Y-78661104D01*
X144511904Y-78661104D02*
X144464285Y-78584914D01*
X144464285Y-78584914D02*
X144464285Y-78394438D01*
X144464285Y-78394438D02*
X144511904Y-78318247D01*
X144511904Y-78318247D02*
X144559523Y-78280152D01*
X144559523Y-78280152D02*
X144654761Y-78242057D01*
X144654761Y-78242057D02*
X144845237Y-78242057D01*
X144845237Y-78242057D02*
X144940475Y-78280152D01*
X144940475Y-78280152D02*
X144988094Y-78318247D01*
X144988094Y-78318247D02*
X145035713Y-78394438D01*
X148816666Y-77912295D02*
X149149999Y-77531342D01*
X149388094Y-77912295D02*
X149388094Y-77112295D01*
X149388094Y-77112295D02*
X149007142Y-77112295D01*
X149007142Y-77112295D02*
X148911904Y-77150390D01*
X148911904Y-77150390D02*
X148864285Y-77188485D01*
X148864285Y-77188485D02*
X148816666Y-77264676D01*
X148816666Y-77264676D02*
X148816666Y-77378961D01*
X148816666Y-77378961D02*
X148864285Y-77455152D01*
X148864285Y-77455152D02*
X148911904Y-77493247D01*
X148911904Y-77493247D02*
X149007142Y-77531342D01*
X149007142Y-77531342D02*
X149388094Y-77531342D01*
X148435713Y-77188485D02*
X148388094Y-77150390D01*
X148388094Y-77150390D02*
X148292856Y-77112295D01*
X148292856Y-77112295D02*
X148054761Y-77112295D01*
X148054761Y-77112295D02*
X147959523Y-77150390D01*
X147959523Y-77150390D02*
X147911904Y-77188485D01*
X147911904Y-77188485D02*
X147864285Y-77264676D01*
X147864285Y-77264676D02*
X147864285Y-77340866D01*
X147864285Y-77340866D02*
X147911904Y-77455152D01*
X147911904Y-77455152D02*
X148483332Y-77912295D01*
X148483332Y-77912295D02*
X147864285Y-77912295D01*
X132617857Y-97959580D02*
X132665476Y-98007200D01*
X132665476Y-98007200D02*
X132808333Y-98054819D01*
X132808333Y-98054819D02*
X132903571Y-98054819D01*
X132903571Y-98054819D02*
X133046428Y-98007200D01*
X133046428Y-98007200D02*
X133141666Y-97911961D01*
X133141666Y-97911961D02*
X133189285Y-97816723D01*
X133189285Y-97816723D02*
X133236904Y-97626247D01*
X133236904Y-97626247D02*
X133236904Y-97483390D01*
X133236904Y-97483390D02*
X133189285Y-97292914D01*
X133189285Y-97292914D02*
X133141666Y-97197676D01*
X133141666Y-97197676D02*
X133046428Y-97102438D01*
X133046428Y-97102438D02*
X132903571Y-97054819D01*
X132903571Y-97054819D02*
X132808333Y-97054819D01*
X132808333Y-97054819D02*
X132665476Y-97102438D01*
X132665476Y-97102438D02*
X132617857Y-97150057D01*
X131665476Y-98054819D02*
X132236904Y-98054819D01*
X131951190Y-98054819D02*
X131951190Y-97054819D01*
X131951190Y-97054819D02*
X132046428Y-97197676D01*
X132046428Y-97197676D02*
X132141666Y-97292914D01*
X132141666Y-97292914D02*
X132236904Y-97340533D01*
X130760714Y-97054819D02*
X131236904Y-97054819D01*
X131236904Y-97054819D02*
X131284523Y-97531009D01*
X131284523Y-97531009D02*
X131236904Y-97483390D01*
X131236904Y-97483390D02*
X131141666Y-97435771D01*
X131141666Y-97435771D02*
X130903571Y-97435771D01*
X130903571Y-97435771D02*
X130808333Y-97483390D01*
X130808333Y-97483390D02*
X130760714Y-97531009D01*
X130760714Y-97531009D02*
X130713095Y-97626247D01*
X130713095Y-97626247D02*
X130713095Y-97864342D01*
X130713095Y-97864342D02*
X130760714Y-97959580D01*
X130760714Y-97959580D02*
X130808333Y-98007200D01*
X130808333Y-98007200D02*
X130903571Y-98054819D01*
X130903571Y-98054819D02*
X131141666Y-98054819D01*
X131141666Y-98054819D02*
X131236904Y-98007200D01*
X131236904Y-98007200D02*
X131284523Y-97959580D01*
X117686904Y-74929819D02*
X117115476Y-74929819D01*
X117401190Y-75929819D02*
X117401190Y-74929819D01*
X116782142Y-75929819D02*
X116782142Y-74929819D01*
X116782142Y-74929819D02*
X116401190Y-74929819D01*
X116401190Y-74929819D02*
X116305952Y-74977438D01*
X116305952Y-74977438D02*
X116258333Y-75025057D01*
X116258333Y-75025057D02*
X116210714Y-75120295D01*
X116210714Y-75120295D02*
X116210714Y-75263152D01*
X116210714Y-75263152D02*
X116258333Y-75358390D01*
X116258333Y-75358390D02*
X116305952Y-75406009D01*
X116305952Y-75406009D02*
X116401190Y-75453628D01*
X116401190Y-75453628D02*
X116782142Y-75453628D01*
X115829761Y-75025057D02*
X115782142Y-74977438D01*
X115782142Y-74977438D02*
X115686904Y-74929819D01*
X115686904Y-74929819D02*
X115448809Y-74929819D01*
X115448809Y-74929819D02*
X115353571Y-74977438D01*
X115353571Y-74977438D02*
X115305952Y-75025057D01*
X115305952Y-75025057D02*
X115258333Y-75120295D01*
X115258333Y-75120295D02*
X115258333Y-75215533D01*
X115258333Y-75215533D02*
X115305952Y-75358390D01*
X115305952Y-75358390D02*
X115877380Y-75929819D01*
X115877380Y-75929819D02*
X115258333Y-75929819D01*
D11*
X143766379Y-92259095D02*
X144575902Y-92259095D01*
X144575902Y-92259095D02*
X144671140Y-92306714D01*
X144671140Y-92306714D02*
X144718760Y-92354333D01*
X144718760Y-92354333D02*
X144766379Y-92449571D01*
X144766379Y-92449571D02*
X144766379Y-92640047D01*
X144766379Y-92640047D02*
X144718760Y-92735285D01*
X144718760Y-92735285D02*
X144671140Y-92782904D01*
X144671140Y-92782904D02*
X144575902Y-92830523D01*
X144575902Y-92830523D02*
X143766379Y-92830523D01*
X143766379Y-93211476D02*
X143766379Y-93878142D01*
X143766379Y-93878142D02*
X144766379Y-93449571D01*
D10*
X150064819Y-93454333D02*
X150064819Y-92978143D01*
X150064819Y-92978143D02*
X149064819Y-92978143D01*
X150064819Y-94311476D02*
X150064819Y-93740048D01*
X150064819Y-94025762D02*
X149064819Y-94025762D01*
X149064819Y-94025762D02*
X149207676Y-93930524D01*
X149207676Y-93930524D02*
X149302914Y-93835286D01*
X149302914Y-93835286D02*
X149350533Y-93740048D01*
X134341666Y-89909580D02*
X134389285Y-89957200D01*
X134389285Y-89957200D02*
X134532142Y-90004819D01*
X134532142Y-90004819D02*
X134627380Y-90004819D01*
X134627380Y-90004819D02*
X134770237Y-89957200D01*
X134770237Y-89957200D02*
X134865475Y-89861961D01*
X134865475Y-89861961D02*
X134913094Y-89766723D01*
X134913094Y-89766723D02*
X134960713Y-89576247D01*
X134960713Y-89576247D02*
X134960713Y-89433390D01*
X134960713Y-89433390D02*
X134913094Y-89242914D01*
X134913094Y-89242914D02*
X134865475Y-89147676D01*
X134865475Y-89147676D02*
X134770237Y-89052438D01*
X134770237Y-89052438D02*
X134627380Y-89004819D01*
X134627380Y-89004819D02*
X134532142Y-89004819D01*
X134532142Y-89004819D02*
X134389285Y-89052438D01*
X134389285Y-89052438D02*
X134341666Y-89100057D01*
X133484523Y-89004819D02*
X133674999Y-89004819D01*
X133674999Y-89004819D02*
X133770237Y-89052438D01*
X133770237Y-89052438D02*
X133817856Y-89100057D01*
X133817856Y-89100057D02*
X133913094Y-89242914D01*
X133913094Y-89242914D02*
X133960713Y-89433390D01*
X133960713Y-89433390D02*
X133960713Y-89814342D01*
X133960713Y-89814342D02*
X133913094Y-89909580D01*
X133913094Y-89909580D02*
X133865475Y-89957200D01*
X133865475Y-89957200D02*
X133770237Y-90004819D01*
X133770237Y-90004819D02*
X133579761Y-90004819D01*
X133579761Y-90004819D02*
X133484523Y-89957200D01*
X133484523Y-89957200D02*
X133436904Y-89909580D01*
X133436904Y-89909580D02*
X133389285Y-89814342D01*
X133389285Y-89814342D02*
X133389285Y-89576247D01*
X133389285Y-89576247D02*
X133436904Y-89481009D01*
X133436904Y-89481009D02*
X133484523Y-89433390D01*
X133484523Y-89433390D02*
X133579761Y-89385771D01*
X133579761Y-89385771D02*
X133770237Y-89385771D01*
X133770237Y-89385771D02*
X133865475Y-89433390D01*
X133865475Y-89433390D02*
X133913094Y-89481009D01*
X133913094Y-89481009D02*
X133960713Y-89576247D01*
X108379819Y-81732142D02*
X107903628Y-81398809D01*
X108379819Y-81160714D02*
X107379819Y-81160714D01*
X107379819Y-81160714D02*
X107379819Y-81541666D01*
X107379819Y-81541666D02*
X107427438Y-81636904D01*
X107427438Y-81636904D02*
X107475057Y-81684523D01*
X107475057Y-81684523D02*
X107570295Y-81732142D01*
X107570295Y-81732142D02*
X107713152Y-81732142D01*
X107713152Y-81732142D02*
X107808390Y-81684523D01*
X107808390Y-81684523D02*
X107856009Y-81636904D01*
X107856009Y-81636904D02*
X107903628Y-81541666D01*
X107903628Y-81541666D02*
X107903628Y-81160714D01*
X108379819Y-82684523D02*
X108379819Y-82113095D01*
X108379819Y-82398809D02*
X107379819Y-82398809D01*
X107379819Y-82398809D02*
X107522676Y-82303571D01*
X107522676Y-82303571D02*
X107617914Y-82208333D01*
X107617914Y-82208333D02*
X107665533Y-82113095D01*
X107379819Y-83017857D02*
X107379819Y-83636904D01*
X107379819Y-83636904D02*
X107760771Y-83303571D01*
X107760771Y-83303571D02*
X107760771Y-83446428D01*
X107760771Y-83446428D02*
X107808390Y-83541666D01*
X107808390Y-83541666D02*
X107856009Y-83589285D01*
X107856009Y-83589285D02*
X107951247Y-83636904D01*
X107951247Y-83636904D02*
X108189342Y-83636904D01*
X108189342Y-83636904D02*
X108284580Y-83589285D01*
X108284580Y-83589285D02*
X108332200Y-83541666D01*
X108332200Y-83541666D02*
X108379819Y-83446428D01*
X108379819Y-83446428D02*
X108379819Y-83160714D01*
X108379819Y-83160714D02*
X108332200Y-83065476D01*
X108332200Y-83065476D02*
X108284580Y-83017857D01*
X145848094Y-85525819D02*
X145848094Y-84525819D01*
X145848094Y-84525819D02*
X145609999Y-84525819D01*
X145609999Y-84525819D02*
X145467142Y-84573438D01*
X145467142Y-84573438D02*
X145371904Y-84668676D01*
X145371904Y-84668676D02*
X145324285Y-84763914D01*
X145324285Y-84763914D02*
X145276666Y-84954390D01*
X145276666Y-84954390D02*
X145276666Y-85097247D01*
X145276666Y-85097247D02*
X145324285Y-85287723D01*
X145324285Y-85287723D02*
X145371904Y-85382961D01*
X145371904Y-85382961D02*
X145467142Y-85478200D01*
X145467142Y-85478200D02*
X145609999Y-85525819D01*
X145609999Y-85525819D02*
X145848094Y-85525819D01*
X144895713Y-84621057D02*
X144848094Y-84573438D01*
X144848094Y-84573438D02*
X144752856Y-84525819D01*
X144752856Y-84525819D02*
X144514761Y-84525819D01*
X144514761Y-84525819D02*
X144419523Y-84573438D01*
X144419523Y-84573438D02*
X144371904Y-84621057D01*
X144371904Y-84621057D02*
X144324285Y-84716295D01*
X144324285Y-84716295D02*
X144324285Y-84811533D01*
X144324285Y-84811533D02*
X144371904Y-84954390D01*
X144371904Y-84954390D02*
X144943332Y-85525819D01*
X144943332Y-85525819D02*
X144324285Y-85525819D01*
X114304819Y-100007142D02*
X113828628Y-99673809D01*
X114304819Y-99435714D02*
X113304819Y-99435714D01*
X113304819Y-99435714D02*
X113304819Y-99816666D01*
X113304819Y-99816666D02*
X113352438Y-99911904D01*
X113352438Y-99911904D02*
X113400057Y-99959523D01*
X113400057Y-99959523D02*
X113495295Y-100007142D01*
X113495295Y-100007142D02*
X113638152Y-100007142D01*
X113638152Y-100007142D02*
X113733390Y-99959523D01*
X113733390Y-99959523D02*
X113781009Y-99911904D01*
X113781009Y-99911904D02*
X113828628Y-99816666D01*
X113828628Y-99816666D02*
X113828628Y-99435714D01*
X113400057Y-100388095D02*
X113352438Y-100435714D01*
X113352438Y-100435714D02*
X113304819Y-100530952D01*
X113304819Y-100530952D02*
X113304819Y-100769047D01*
X113304819Y-100769047D02*
X113352438Y-100864285D01*
X113352438Y-100864285D02*
X113400057Y-100911904D01*
X113400057Y-100911904D02*
X113495295Y-100959523D01*
X113495295Y-100959523D02*
X113590533Y-100959523D01*
X113590533Y-100959523D02*
X113733390Y-100911904D01*
X113733390Y-100911904D02*
X114304819Y-100340476D01*
X114304819Y-100340476D02*
X114304819Y-100959523D01*
X113304819Y-101292857D02*
X113304819Y-101959523D01*
X113304819Y-101959523D02*
X114304819Y-101530952D01*
X138436904Y-79804819D02*
X138436904Y-80614342D01*
X138436904Y-80614342D02*
X138389285Y-80709580D01*
X138389285Y-80709580D02*
X138341666Y-80757200D01*
X138341666Y-80757200D02*
X138246428Y-80804819D01*
X138246428Y-80804819D02*
X138055952Y-80804819D01*
X138055952Y-80804819D02*
X137960714Y-80757200D01*
X137960714Y-80757200D02*
X137913095Y-80709580D01*
X137913095Y-80709580D02*
X137865476Y-80614342D01*
X137865476Y-80614342D02*
X137865476Y-79804819D01*
X136960714Y-80138152D02*
X136960714Y-80804819D01*
X137198809Y-79757200D02*
X137436904Y-80471485D01*
X137436904Y-80471485D02*
X136817857Y-80471485D01*
X116516666Y-77829819D02*
X116849999Y-77353628D01*
X117088094Y-77829819D02*
X117088094Y-76829819D01*
X117088094Y-76829819D02*
X116707142Y-76829819D01*
X116707142Y-76829819D02*
X116611904Y-76877438D01*
X116611904Y-76877438D02*
X116564285Y-76925057D01*
X116564285Y-76925057D02*
X116516666Y-77020295D01*
X116516666Y-77020295D02*
X116516666Y-77163152D01*
X116516666Y-77163152D02*
X116564285Y-77258390D01*
X116564285Y-77258390D02*
X116611904Y-77306009D01*
X116611904Y-77306009D02*
X116707142Y-77353628D01*
X116707142Y-77353628D02*
X117088094Y-77353628D01*
X115564285Y-77829819D02*
X116135713Y-77829819D01*
X115849999Y-77829819D02*
X115849999Y-76829819D01*
X115849999Y-76829819D02*
X115945237Y-76972676D01*
X115945237Y-76972676D02*
X116040475Y-77067914D01*
X116040475Y-77067914D02*
X116135713Y-77115533D01*
X109659819Y-81728501D02*
X109183628Y-81395168D01*
X109659819Y-81157073D02*
X108659819Y-81157073D01*
X108659819Y-81157073D02*
X108659819Y-81538025D01*
X108659819Y-81538025D02*
X108707438Y-81633263D01*
X108707438Y-81633263D02*
X108755057Y-81680882D01*
X108755057Y-81680882D02*
X108850295Y-81728501D01*
X108850295Y-81728501D02*
X108993152Y-81728501D01*
X108993152Y-81728501D02*
X109088390Y-81680882D01*
X109088390Y-81680882D02*
X109136009Y-81633263D01*
X109136009Y-81633263D02*
X109183628Y-81538025D01*
X109183628Y-81538025D02*
X109183628Y-81157073D01*
X109659819Y-82680882D02*
X109659819Y-82109454D01*
X109659819Y-82395168D02*
X108659819Y-82395168D01*
X108659819Y-82395168D02*
X108802676Y-82299930D01*
X108802676Y-82299930D02*
X108897914Y-82204692D01*
X108897914Y-82204692D02*
X108945533Y-82109454D01*
X108659819Y-83585644D02*
X108659819Y-83109454D01*
X108659819Y-83109454D02*
X109136009Y-83061835D01*
X109136009Y-83061835D02*
X109088390Y-83109454D01*
X109088390Y-83109454D02*
X109040771Y-83204692D01*
X109040771Y-83204692D02*
X109040771Y-83442787D01*
X109040771Y-83442787D02*
X109088390Y-83538025D01*
X109088390Y-83538025D02*
X109136009Y-83585644D01*
X109136009Y-83585644D02*
X109231247Y-83633263D01*
X109231247Y-83633263D02*
X109469342Y-83633263D01*
X109469342Y-83633263D02*
X109564580Y-83585644D01*
X109564580Y-83585644D02*
X109612200Y-83538025D01*
X109612200Y-83538025D02*
X109659819Y-83442787D01*
X109659819Y-83442787D02*
X109659819Y-83204692D01*
X109659819Y-83204692D02*
X109612200Y-83109454D01*
X109612200Y-83109454D02*
X109564580Y-83061835D01*
X145716666Y-77636104D02*
X145764285Y-77674200D01*
X145764285Y-77674200D02*
X145907142Y-77712295D01*
X145907142Y-77712295D02*
X146002380Y-77712295D01*
X146002380Y-77712295D02*
X146145237Y-77674200D01*
X146145237Y-77674200D02*
X146240475Y-77598009D01*
X146240475Y-77598009D02*
X146288094Y-77521819D01*
X146288094Y-77521819D02*
X146335713Y-77369438D01*
X146335713Y-77369438D02*
X146335713Y-77255152D01*
X146335713Y-77255152D02*
X146288094Y-77102771D01*
X146288094Y-77102771D02*
X146240475Y-77026580D01*
X146240475Y-77026580D02*
X146145237Y-76950390D01*
X146145237Y-76950390D02*
X146002380Y-76912295D01*
X146002380Y-76912295D02*
X145907142Y-76912295D01*
X145907142Y-76912295D02*
X145764285Y-76950390D01*
X145764285Y-76950390D02*
X145716666Y-76988485D01*
X144764285Y-77712295D02*
X145335713Y-77712295D01*
X145049999Y-77712295D02*
X145049999Y-76912295D01*
X145049999Y-76912295D02*
X145145237Y-77026580D01*
X145145237Y-77026580D02*
X145240475Y-77102771D01*
X145240475Y-77102771D02*
X145335713Y-77140866D01*
X154948094Y-92425819D02*
X154948094Y-91425819D01*
X154948094Y-91425819D02*
X154709999Y-91425819D01*
X154709999Y-91425819D02*
X154567142Y-91473438D01*
X154567142Y-91473438D02*
X154471904Y-91568676D01*
X154471904Y-91568676D02*
X154424285Y-91663914D01*
X154424285Y-91663914D02*
X154376666Y-91854390D01*
X154376666Y-91854390D02*
X154376666Y-91997247D01*
X154376666Y-91997247D02*
X154424285Y-92187723D01*
X154424285Y-92187723D02*
X154471904Y-92282961D01*
X154471904Y-92282961D02*
X154567142Y-92378200D01*
X154567142Y-92378200D02*
X154709999Y-92425819D01*
X154709999Y-92425819D02*
X154948094Y-92425819D01*
X154043332Y-91425819D02*
X153424285Y-91425819D01*
X153424285Y-91425819D02*
X153757618Y-91806771D01*
X153757618Y-91806771D02*
X153614761Y-91806771D01*
X153614761Y-91806771D02*
X153519523Y-91854390D01*
X153519523Y-91854390D02*
X153471904Y-91902009D01*
X153471904Y-91902009D02*
X153424285Y-91997247D01*
X153424285Y-91997247D02*
X153424285Y-92235342D01*
X153424285Y-92235342D02*
X153471904Y-92330580D01*
X153471904Y-92330580D02*
X153519523Y-92378200D01*
X153519523Y-92378200D02*
X153614761Y-92425819D01*
X153614761Y-92425819D02*
X153900475Y-92425819D01*
X153900475Y-92425819D02*
X153995713Y-92378200D01*
X153995713Y-92378200D02*
X154043332Y-92330580D01*
X135784580Y-91958333D02*
X135832200Y-91910714D01*
X135832200Y-91910714D02*
X135879819Y-91767857D01*
X135879819Y-91767857D02*
X135879819Y-91672619D01*
X135879819Y-91672619D02*
X135832200Y-91529762D01*
X135832200Y-91529762D02*
X135736961Y-91434524D01*
X135736961Y-91434524D02*
X135641723Y-91386905D01*
X135641723Y-91386905D02*
X135451247Y-91339286D01*
X135451247Y-91339286D02*
X135308390Y-91339286D01*
X135308390Y-91339286D02*
X135117914Y-91386905D01*
X135117914Y-91386905D02*
X135022676Y-91434524D01*
X135022676Y-91434524D02*
X134927438Y-91529762D01*
X134927438Y-91529762D02*
X134879819Y-91672619D01*
X134879819Y-91672619D02*
X134879819Y-91767857D01*
X134879819Y-91767857D02*
X134927438Y-91910714D01*
X134927438Y-91910714D02*
X134975057Y-91958333D01*
X135308390Y-92529762D02*
X135260771Y-92434524D01*
X135260771Y-92434524D02*
X135213152Y-92386905D01*
X135213152Y-92386905D02*
X135117914Y-92339286D01*
X135117914Y-92339286D02*
X135070295Y-92339286D01*
X135070295Y-92339286D02*
X134975057Y-92386905D01*
X134975057Y-92386905D02*
X134927438Y-92434524D01*
X134927438Y-92434524D02*
X134879819Y-92529762D01*
X134879819Y-92529762D02*
X134879819Y-92720238D01*
X134879819Y-92720238D02*
X134927438Y-92815476D01*
X134927438Y-92815476D02*
X134975057Y-92863095D01*
X134975057Y-92863095D02*
X135070295Y-92910714D01*
X135070295Y-92910714D02*
X135117914Y-92910714D01*
X135117914Y-92910714D02*
X135213152Y-92863095D01*
X135213152Y-92863095D02*
X135260771Y-92815476D01*
X135260771Y-92815476D02*
X135308390Y-92720238D01*
X135308390Y-92720238D02*
X135308390Y-92529762D01*
X135308390Y-92529762D02*
X135356009Y-92434524D01*
X135356009Y-92434524D02*
X135403628Y-92386905D01*
X135403628Y-92386905D02*
X135498866Y-92339286D01*
X135498866Y-92339286D02*
X135689342Y-92339286D01*
X135689342Y-92339286D02*
X135784580Y-92386905D01*
X135784580Y-92386905D02*
X135832200Y-92434524D01*
X135832200Y-92434524D02*
X135879819Y-92529762D01*
X135879819Y-92529762D02*
X135879819Y-92720238D01*
X135879819Y-92720238D02*
X135832200Y-92815476D01*
X135832200Y-92815476D02*
X135784580Y-92863095D01*
X135784580Y-92863095D02*
X135689342Y-92910714D01*
X135689342Y-92910714D02*
X135498866Y-92910714D01*
X135498866Y-92910714D02*
X135403628Y-92863095D01*
X135403628Y-92863095D02*
X135356009Y-92815476D01*
X135356009Y-92815476D02*
X135308390Y-92720238D01*
X114640594Y-103812319D02*
X114640594Y-102812319D01*
X114640594Y-102812319D02*
X114402499Y-102812319D01*
X114402499Y-102812319D02*
X114259642Y-102859938D01*
X114259642Y-102859938D02*
X114164404Y-102955176D01*
X114164404Y-102955176D02*
X114116785Y-103050414D01*
X114116785Y-103050414D02*
X114069166Y-103240890D01*
X114069166Y-103240890D02*
X114069166Y-103383747D01*
X114069166Y-103383747D02*
X114116785Y-103574223D01*
X114116785Y-103574223D02*
X114164404Y-103669461D01*
X114164404Y-103669461D02*
X114259642Y-103764700D01*
X114259642Y-103764700D02*
X114402499Y-103812319D01*
X114402499Y-103812319D02*
X114640594Y-103812319D01*
X113212023Y-103145652D02*
X113212023Y-103812319D01*
X113450118Y-102764700D02*
X113688213Y-103478985D01*
X113688213Y-103478985D02*
X113069166Y-103478985D01*
X149017857Y-97629819D02*
X149351190Y-97153628D01*
X149589285Y-97629819D02*
X149589285Y-96629819D01*
X149589285Y-96629819D02*
X149208333Y-96629819D01*
X149208333Y-96629819D02*
X149113095Y-96677438D01*
X149113095Y-96677438D02*
X149065476Y-96725057D01*
X149065476Y-96725057D02*
X149017857Y-96820295D01*
X149017857Y-96820295D02*
X149017857Y-96963152D01*
X149017857Y-96963152D02*
X149065476Y-97058390D01*
X149065476Y-97058390D02*
X149113095Y-97106009D01*
X149113095Y-97106009D02*
X149208333Y-97153628D01*
X149208333Y-97153628D02*
X149589285Y-97153628D01*
X148636904Y-96725057D02*
X148589285Y-96677438D01*
X148589285Y-96677438D02*
X148494047Y-96629819D01*
X148494047Y-96629819D02*
X148255952Y-96629819D01*
X148255952Y-96629819D02*
X148160714Y-96677438D01*
X148160714Y-96677438D02*
X148113095Y-96725057D01*
X148113095Y-96725057D02*
X148065476Y-96820295D01*
X148065476Y-96820295D02*
X148065476Y-96915533D01*
X148065476Y-96915533D02*
X148113095Y-97058390D01*
X148113095Y-97058390D02*
X148684523Y-97629819D01*
X148684523Y-97629819D02*
X148065476Y-97629819D01*
X147208333Y-96963152D02*
X147208333Y-97629819D01*
X147446428Y-96582200D02*
X147684523Y-97296485D01*
X147684523Y-97296485D02*
X147065476Y-97296485D01*
X120717304Y-80758019D02*
X120717304Y-81567542D01*
X120717304Y-81567542D02*
X120669685Y-81662780D01*
X120669685Y-81662780D02*
X120622066Y-81710400D01*
X120622066Y-81710400D02*
X120526828Y-81758019D01*
X120526828Y-81758019D02*
X120336352Y-81758019D01*
X120336352Y-81758019D02*
X120241114Y-81710400D01*
X120241114Y-81710400D02*
X120193495Y-81662780D01*
X120193495Y-81662780D02*
X120145876Y-81567542D01*
X120145876Y-81567542D02*
X120145876Y-80758019D01*
X119717304Y-80853257D02*
X119669685Y-80805638D01*
X119669685Y-80805638D02*
X119574447Y-80758019D01*
X119574447Y-80758019D02*
X119336352Y-80758019D01*
X119336352Y-80758019D02*
X119241114Y-80805638D01*
X119241114Y-80805638D02*
X119193495Y-80853257D01*
X119193495Y-80853257D02*
X119145876Y-80948495D01*
X119145876Y-80948495D02*
X119145876Y-81043733D01*
X119145876Y-81043733D02*
X119193495Y-81186590D01*
X119193495Y-81186590D02*
X119764923Y-81758019D01*
X119764923Y-81758019D02*
X119145876Y-81758019D01*
M02*
